<svg aria-hidden="true" xmlns="http://www.w3.org/2000/svg"><defs><symbol id="polygon" viewBox="0 0 52 32"><path d="M26 32 .019 2h51.962L26 32z"/></symbol><symbol id="search-icon" viewBox="0 0 32 32"><path d="M4.024 4.024C6.619 1.429 10.069 0 13.739 0s7.12 1.429 9.715 4.024a13.649 13.649 0 0 1 4.024 9.715 13.64 13.64 0 0 1-3.383 9.029l7.63 7.63a.94.94 0 0 1-1.327 1.327l-7.63-7.63a13.635 13.635 0 0 1-9.029 3.383c-3.67 0-7.12-1.429-9.715-4.024S0 17.409 0 13.739s1.429-7.12 4.024-9.715zm1.327 18.103c4.625 4.625 12.15 4.625 16.775 0s4.625-12.15 0-16.775c-2.313-2.313-5.35-3.469-8.388-3.469S7.662 3.04 5.35 5.352c-4.625 4.625-4.625 12.15 0 16.775z"/></symbol></defs></svg>