<svg aria-hidden="true" style="width:0;height:0;position:absolute;overflow:hidden" xmlns="http://www.w3.org/2000/svg"><defs><symbol id="icon-close" viewBox="0 0 32 32"><path fill="#4c00fe" style="fill:var(--color1,#4c00fe)" d="M1.646 32a1.646 1.646 0 0 1-1.163-2.811L29.19.482a1.646 1.646 0 1 1 2.328 2.329L2.811 31.517A1.65 1.65 0 0 1 1.646 32z"/><path fill="#4c00fe" style="fill:var(--color1,#4c00fe)" d="M30.355 32a1.63 1.63 0 0 1-1.163-.483L.483 2.811A1.647 1.647 0 0 1 2.812.482l28.707 28.707A1.646 1.646 0 0 1 30.356 32z"/></symbol><symbol id="open-select" viewBox="0 0 52 32"><path d="M26 32 .019 2h51.962L26 32z"/></symbol><symbol id="close-select" viewBox="0 0 52 32"><path d="M21 16 8.01 1h25.981l-12.99 15z"/></symbol><symbol id="icon-search" viewBox="0 0 32 32"><path d="M4.024 4.024C6.619 1.429 10.069 0 13.739 0s7.12 1.429 9.715 4.024a13.649 13.649 0 0 1 4.024 9.715 13.64 13.64 0 0 1-3.383 9.029l7.63 7.63a.94.94 0 0 1-1.327 1.327l-7.63-7.63a13.635 13.635 0 0 1-9.029 3.383c-3.67 0-7.12-1.429-9.715-4.024S0 17.409 0 13.739s1.429-7.12 4.024-9.715zm1.327 18.103c4.625 4.625 12.15 4.625 16.775 0s4.625-12.15 0-16.775c-2.313-2.313-5.35-3.469-8.388-3.469S7.662 3.04 5.35 5.352c-4.625 4.625-4.625 12.15 0 16.775z"/></symbol><symbol id="icon-close-modal" viewBox="0 0 32 32"><path d="M1.646 32a1.646 1.646 0 0 1-1.163-2.811L29.19.482a1.646 1.646 0 1 1 2.328 2.329L2.811 31.517A1.65 1.65 0 0 1 1.646 32z"/><path d="M30.355 32c-.421 0-.843-.16-1.163-.483L.483 2.811A1.647 1.647 0 0 1 2.812.482l28.707 28.707A1.646 1.646 0 0 1 30.356 32z"/></symbol><symbol id="icon-place" viewBox="0 0 42 32"><path fill="#939393" style="fill:var(--color1,#939393)" d="M21 16 8.01 1h25.981l-12.99 15z"/></symbol><symbol id="icon-location" viewBox="0 0 26 32"><path d="M12.075 0C5.417 0 0 4.99 0 11.123 0 18.832 12.087 32 12.087 32S24.15 18.453 24.15 11.123C24.15 4.99 18.733 0 12.075 0zm3.643 14.38c-1.005.925-2.324 1.388-3.643 1.388s-2.639-.463-3.643-1.388c-2.009-1.85-2.009-4.861 0-6.712.973-.896 2.267-1.39 3.643-1.39s2.67.494 3.643 1.39c2.009 1.851 2.009 4.862 0 6.712z"/></symbol><symbol id="icon-ticket" viewBox="0 0 45 32"><path d="M5.02 1.569H0v30.118h5.02V1.569zM17.645 1.569h-5.02v30.118h5.02V1.569zM25.25 1.569h-5.019v30.118h5.019V1.569zM45.176 1.569h-7.453v30.118h7.453V1.569zM10.039 1.569H7.605v30.118h2.434V1.569zM30.118 1.569h-2.434v30.118h2.434V1.569zM35.137 1.569h-2.434v30.118h2.434V1.569z"/></symbol><symbol id="icon-event-logo" viewBox="0 0 62 32"><path fill="#fff" style="fill:var(--color1,#fff)" d="M19.119 23.909c-.575-1.648-1.759-2.472-3.552-2.472h-.566V31.6h.566c1.385 0 2.408-.563 3.068-1.688.556-.96.834-2.183.834-3.666-.001-.883-.118-1.662-.35-2.337zM9.412 24.031c.576 1.648 1.76 2.471 3.551 2.471h.566V16.339h-.566c-1.385 0-2.408.563-3.068 1.688-.554.96-.831 2.182-.832 3.666 0 .882.116 1.661.348 2.337zM0 .108h7.526V2.8H2.702v1.346H6.71V6.7H2.702v1.361h4.824v2.692H0V.109zM11.31.096h9.738L16.179 10.97 11.31.096zm4.869 9.527L20.202.661h-8.03l4.008 8.962zM24.937.108h7.526V2.8h-4.824v1.346h4.008V6.7h-4.008v1.361h4.824v2.692h-7.526V.109zM37.094 10.737V.095h.579l7.214 7.234V.095h.549v10.644l-8.342-.003zM53.318 10.753V2.8h-3.904V.108h8.342V2.8h-3.904v7.953h-.534zM4.438 18.461c.653 0 1.173.102 1.559.306.443.223.816.572 1.074 1.005s.39.934.381 1.442c.003.49-.131.97-.386 1.384-.259.424-.623.77-1.054 1.002a2.94 2.94 0 0 1 1.351 1.009c.359.459.553 1.032.549 1.621a2.816 2.816 0 0 1-.393 1.46 2.919 2.919 0 0 1-1.046 1.048 2.703 2.703 0 0 1-.727.275c-.267.061-.623.092-1.069.092H.105V18.461h4.334zM21.842 28.333c-.777-.698-1.16-1.746-1.15-3.143h2.419c-.01.581.158 1.025.505 1.331s.831.459 1.455.459c.515 0 .92-.087 1.217-.26s.445-.438.445-.795c0-.296-.151-.51-.453-.642a4.165 4.165 0 0 0-.898-.283l-.549-.102a11.623 11.623 0 0 1-1.974-.561 3.44 3.44 0 0 1-1.395-.994c-.376-.449-.564-1.04-.564-1.774s.188-1.359.564-1.873c.376-.515.878-.9 1.507-1.155a5.409 5.409 0 0 1 2.056-.382c.901 0 1.68.173 2.338.52s1.175.872 1.551 1.575c.174.297.291.627.341.971.039.302.059.606.059.91h-2.42c0-.551-.143-.956-.43-1.216s-.732-.39-1.336-.39c-.485 0-.861.087-1.128.26s-.401.408-.401.703c0 .326.178.566.534.719.438.178.89.316 1.351.413.891.184 1.586.359 2.086.528.504.171.953.48 1.299.895.366.428.549 1.03.549 1.805 0 .734-.198 1.366-.594 1.896s-.918.935-1.566 1.216a5.24 5.24 0 0 1-2.1.421c-1.435-.002-2.541-.352-3.318-1.05zM35.506 29.105v-7.953h-3.904V18.46h8.342v2.692H36.04v7.953h-.534zM42.749 18.461h7.526v2.692h-4.824v1.346h4.008v2.554h-4.008v1.361h4.824v2.692h-7.526V18.462zM61.422 29.105h-7.941V18.461h4.023c.861 0 1.563.158 2.108.474.52.291.951.725 1.247 1.254.298.535.452 1.142.445 1.759a3.433 3.433 0 0 1-.713 2.133 3.345 3.345 0 0 1-1.796 1.246l2.628 3.777zm-7.392-9.711v5.49h3.815l-3.815-5.49zm0 9.145h6.353l-2.167-3.105-.46.015H54.03v3.089zm.386-9.513 4.037 5.811a2.83 2.83 0 0 0 1.648-1.025c.428-.521.66-1.183.653-1.866a2.983 2.983 0 0 0-.401-1.529 2.656 2.656 0 0 0-1.128-1.055c-.435-.224-1.004-.336-1.707-.336h-3.102z"/></symbol><symbol id="icon-unload" viewBox="0 0 24 32"><path fill="#d400bd" style="fill:var(--color2,#d400bd)" d="m20.296 18.128-1.752-.424s-.008.024-.008.048c0 .016-.008.024-.008.032s-.008.016-.008.016l1.744.448s0-.008.008-.016c0-.008.008-.024.008-.04l.016-.064zM20.776 16.904l-2.064-.184s0 .024-.008.048v.048l2.064.216V16.96c.008-.024.008-.056.008-.056zM22.24 17.032s0-.04.008-.08c0-.016 0-.04.008-.056v-.024l-3.536-.256v.048c0 .008-.008.048-.008.048l2.064.184 1.464.136zM22.76 16.432v-.16l-1.4-.024-2.624-.04v.096l1.64.048 2.384.08zM22.432 18s0-.008.008-.024c0-.016.008-.032.008-.056l.016-.08-3.808-.632s-.008.024-.008.048c0 .016-.008.024-.008.032v.016l1.192.216 2.6.48zM21.368 18.384l.016-.072.016-.072-2.824-.64s-.008.024-.008.048c-.008.024-.008.048-.008.048l1.752.424 1.056.264zM18.632 20.456l-.992-.656s-.016.024-.024.04a.06.06 0 0 0-.016.032c-.008.008-.008.016-.008.016l3.168 2.168s.008-.008.016-.024.016-.032.032-.048.04-.064.04-.064l-2.216-1.464zM20.16 19.44l-1.92-.784-.016.048c-.008.008-.008.024-.016.032 0 .008-.008.016-.008.016l1.904.816s0-.008.008-.016.008-.024.016-.04a.328.328 0 0 1 .032-.072zM19.064 20.024l-1.168-.656s-.016.024-.024.04a.06.06 0 0 0-.016.032c-.008.008-.008.016-.008.016l1.16.672s0-.008.008-.016.016-.024.024-.032c.008-.032.024-.056.024-.056zM22.328 19.968l.032-.08c.016-.04.024-.08.024-.08l-4.04-1.448-.016.048-.016.048 1.24.464 2.776 1.048zM21.52 19.992s.016-.032.032-.072a.114.114 0 0 0 .016-.048c.008-.016.008-.024.008-.024l-2.064-.808-1.232-.488s0 .008-.008.016a.06.06 0 0 1-.016.032l-.016.048 1.92.784 1.36.56zM20.952 18.856l-2.512-.776s0 .008-.008.016c0 .008-.008.024-.008.032l-.016.048 2.496.808s.008-.032.024-.064c.008-.016.008-.032.016-.048.008-.008.008-.016.008-.016z"/><path fill="#d400bd" style="fill:var(--color2,#d400bd)" d="M22.192 19.576s0-.008.008-.024.008-.032.016-.056c.016-.04.024-.08.024-.08l-3.832-1.24-.016.048c0 .008-.008.024-.008.032s-.008.016-.008.016l1.552.528 2.264.776zM21.144 21.184s.016-.032.04-.064l.024-.048c.008-.016.008-.024.008-.024l-3.272-1.768s0 .008-.008.016-.008.016-.016.032c-.016.024-.024.04-.024.04l1.168.656 2.08 1.16zM21.416 20.976s.008-.008.008-.024l.024-.048c.016-.032.032-.072.032-.072l-3.456-1.728s-.008.024-.024.048c-.008.008-.008.024-.016.032s-.008.016-.008.016l1.08.56 2.36 1.216zM19.056 19.232l-.896-.4s0 .008-.008.016a.06.06 0 0 1-.016.032c-.008.024-.024.048-.024.048l.888.408s.016-.024.024-.048c.008-.016.008-.024.016-.032a.099.099 0 0 1 .016-.024zM17.144 22.12l-.776-.912s-.016.016-.04.032l-.024.024c-.008.008-.016.008-.016.008l.76.92s.008-.008.016-.008c.008-.008.016-.016.032-.024.032-.016.048-.04.048-.04z"/><path fill="#d400bd" style="fill:var(--color2,#d400bd)" d="M18.56 23.792s.032-.024.056-.048c.016-.016.032-.024.04-.032l.016-.016-1.04-1.192-1.184-1.352-.008.008-.024.024c-.016.016-.04.032-.04.032l.776.912 1.408 1.664zM18.816 21.68l-1.6-1.32s0 .008-.008.016l-.024.024c-.008.008-.032.04-.032.04l1.584 1.344s.024-.024.04-.048c.008-.016.024-.024.032-.032l.008-.024zM17.6 21.912l-.928-.968-.008.008-.024.024c-.016.016-.04.032-.04.032l.912.984.04-.04.032-.032c.008 0 .016-.008.016-.008zM18.784 21l-1.32-.96s-.016.024-.032.04c-.008.008-.016.024-.024.024-.008.008-.008.016-.008.016l1.312.984s.008-.008.008-.016c.008-.008.016-.024.024-.032.024-.024.04-.056.04-.056z"/><path fill="#d400bd" style="fill:var(--color2,#d400bd)" d="m20.44 23.44.016-.016.04-.04c.024-.032.056-.064.056-.064l-1.816-1.536-1.584-1.344s-.016.016-.032.04l-.024.024-.008.008.736.64 2.616 2.288zM19.28 22.816s.024-.024.048-.056a.14.14 0 0 0 .032-.04l.016-.016-2.36-2.128-.008.008-.024.024c-.016.016-.032.04-.032.04l2.328 2.168zM18.128 21.752l-1.176-1.096s-.016.016-.032.04l-.024.024-.008.008 1.16 1.112.016-.016.032-.032c.016-.016.032-.04.032-.04zM18.472 23.24l.016-.016a.175.175 0 0 1 .04-.032c.024-.024.056-.048.056-.048L17.52 22l-.912-.984s-.016.016-.04.032l-.024.024-.008.008 1.208 1.336.728.824zM15.04 23.4l-.456-1.104-.048.016c-.008.008-.024.008-.032.016-.008 0-.016.008-.016.008l1.4 3.576s.008 0 .024-.008l.048-.024a1.06 1.06 0 0 0 .072-.032L15.04 23.4zM15.624 23.808l-.76-1.632s-.024.008-.048.024c-.008.008-.024.008-.032.016-.008 0-.016.008-.016.008l.736 1.64s.008 0 .016-.008.024-.008.04-.016l.064-.032z"/><path fill="#d400bd" style="fill:var(--color2,#d400bd)" d="m15.152 23.36-.472-1.096s-.008 0-.016.008a.06.06 0 0 0-.032.016l-.048.016.456 1.104s.024-.008.056-.024c.016-.008.024-.008.04-.016.008-.008.016-.008.016-.008zM18.368 25.08l.064-.048.064-.048-2.52-3.464s-.024.016-.04.032-.04.032-.04.032l.768 1.088 1.704 2.408zM17.688 24.648s.032-.024.064-.04c.016-.008.032-.024.04-.032l.016-.016-2.008-2.928s-.008 0-.016.008-.016.016-.032.016c-.024.016-.04.024-.04.024l1.144 1.728.832 1.24zM17.048 22.768l-.984-1.312s-.008 0-.016.008l-.024.024a.289.289 0 0 0-.04.032l.96 1.32s.024-.016.048-.04c.016-.008.024-.016.032-.024a.035.035 0 0 0 .024-.008zM16.712 25.424s.032-.016.072-.032l.048-.024c.016-.008.024-.008.024-.008l-1.168-2.24-.56-1.08s-.008 0-.016.008-.016.008-.032.016l-.048.024.6 1.2 1.08 2.136zM17.056 25.4s.008-.008.024-.008l.048-.024c.032-.016.072-.04.072-.04l-1.104-1.968-.784-1.4s-.024.016-.04.024a.06.06 0 0 1-.032.016c-.008.008-.016.008-.016.008l.576 1.064 1.256 2.328z"/><path fill="#d400bd" style="fill:var(--color2,#d400bd)" d="m16.2 23.296-.808-1.392s-.008 0-.016.008-.016.008-.032.016c-.024.016-.04.024-.04.024l.784 1.4s.024-.016.056-.032c.016-.008.024-.016.04-.024h.016zM12.76 23.96l-.104-1.192s-.024 0-.048.008h-.048l.28 3.832h.024c.016 0 .032 0 .056-.008.04 0 .08-.008.08-.008l-.24-2.632zM12.88 23.944l-.12-1.184h-.048c-.008 0-.048.008-.048.008l.104 1.192s.032 0 .056-.008h.04c.008-.008.016-.008.016-.008zM15.448 26.552s.04-.016.08-.024a.148.148 0 0 1 .056-.016c.016-.008.024-.008.024-.008L14.752 24l-.528-1.552s-.008 0-.016.008c-.008 0-.024.008-.032.008l-.048.016.408 1.264.912 2.808zM15.672 26.2s.04-.016.072-.024a1.06 1.06 0 0 0 .072-.032l-.496-1.312-.92-2.456-.048.016-.048.016.552 1.544.816 2.248zM14.528 23.736l-.408-1.264-.048.016c-.008 0-.024.008-.032.008s-.016.008-.016.008l.392 1.264s.008 0 .016-.008a.135.135 0 0 0 .04-.016c.032 0 .056-.008.056-.008zM13.76 26.384l.08-.016c.016 0 .04-.008.056-.008s.024-.008.024-.008l-.664-3.664h-.016c-.008 0-.024 0-.032.008s-.048.008-.048.008l.216 1.32.384 2.36zM14.088 26.464l.08-.016.08-.016-.464-2.208-.336-1.576s-.024.008-.048.008c-.024.008-.048.008-.048.008l.232 1.192.504 2.608zM13.984 23.528l-.248-.944s-.008 0-.016.008c-.008 0-.024.008-.032.008-.024.008-.048.008-.048.008l.232.952s.024-.008.056-.016c.016 0 .024-.008.04-.008.008-.008.016-.008.016-.008zM14.248 25.728l.072-.016.072-.016-.52-2.136-.232-.952s-.024.008-.048.008c-.024.008-.048.008-.048.008l.36 1.568.344 1.536zM10.664 24.48l.296-1.776s-.024-.008-.048-.008c-.016 0-.024 0-.032-.008h-.016l-.32 1.768h.016c.008 0 .024.008.04.008a.16.16 0 0 0 .064.016zM11.928 24.872l.032-2.072h-.096l-.064 2.072h.128zM12.216 27.08h.16l-.08-2.648-.048-1.64h-.096l.016 1.328.048 2.96zM12.536 26.816h.08c.04 0 .08-.008.08-.008l-.08-1.4-.152-2.624h-.096l.072 1.632.096 2.4zM10.664 26.432s.04.008.08.008c.04.008.08.008.08.008l.296-2.496.144-1.208s-.024 0-.048-.008c-.024 0-.048-.008-.048-.008l-.176 1.328-.328 2.376zM10.952 26.6h.024c.016 0 .032 0 .056.008.04 0 .08.008.08.008l.2-2.248.144-1.6s-.024 0-.048-.008h-.048l-.128 1.208-.28 2.632z"/><path fill="#d400bd" style="fill:var(--color2,#d400bd)" d="m11.432 24.384.12-1.6h-.048c-.008 0-.048-.008-.048-.008l-.144 1.6s.032 0 .064.008h.056zM10.488 25.568s.032.008.072.008c.032.008.072.008.072.008l.232-1.544.2-1.328s-.024 0-.048-.008-.048-.008-.048-.008l-.296 1.776-.184 1.096zM8.224 22.992l.584-1.04s-.024-.016-.04-.024a.06.06 0 0 0-.032-.016c-.008-.008-.016-.008-.016-.008l-1.92 3.32s.008.008.024.016l.048.024.072.04 1.28-2.312zM8.264 23.704l.808-1.608s-.024-.008-.048-.024c-.008-.008-.024-.008-.032-.016s-.016-.008-.016-.008l-.832 1.6s.008 0 .016.008.024.016.04.024c.032.008.064.024.064.024z"/><path fill="#d400bd" style="fill:var(--color2,#d400bd)" d="M8.328 23.048 8.896 22s-.008 0-.016-.008-.016-.008-.032-.016c-.024-.016-.04-.024-.04-.024l-.584 1.04.048.032c.016.008.024.016.032.016.016.008.024.008.024.008zM9.352 24.448l.64-1.976-.048-.016c-.008 0-.024-.008-.032-.008s-.016-.008-.016-.008l-.672 1.96s.008 0 .016.008c.008 0 .024.008.04.016a.32.32 0 0 1 .072.024zM8.984 26.648s.04.008.08.024c.04.008.08.024.08.024l.704-2.552.432-1.576-.048-.016-.048-.016-.368 1.272-.832 2.84z"/><path fill="#d400bd" style="fill:var(--color2,#d400bd)" d="M8.896 25.848s.04.008.072.024c.016.008.04.008.048.016.016.008.024.008.024.008l.656-2.12.392-1.264s-.008 0-.016-.008c-.008 0-.024-.008-.032-.008l-.048-.016-.64 1.976-.456 1.392zM9.36 26.488s.008 0 .024.008c.016 0 .032.008.056.016l.08.016.328-1.36.624-2.552s-.024-.008-.048-.008c-.016 0-.024-.008-.032-.008s-.016-.008-.016-.008l-.408 1.584-.608 2.312zM7.68 25.56s.032.016.072.032l.048.024c.016.008.024.008.024.008l1.52-3.408s-.008 0-.016-.008a.06.06 0 0 1-.032-.016c-.024-.008-.048-.024-.048-.024l-.568 1.216-1 2.176zM7.912 25.816s.008 0 .024.008l.048.024c.04.016.072.032.072.032l.856-2.088.608-1.488-.048-.016c-.008-.008-.024-.008-.032-.016-.008 0-.016-.008-.016-.008l-.48 1.112-1.032 2.44z"/><path fill="#d400bd" style="fill:var(--color2,#d400bd)" d="m9.024 23.832.584-1.496s-.008 0-.016-.008a.06.06 0 0 1-.032-.016l-.048-.016-.608 1.488s.032.008.056.024c.016.008.032.008.04.016.016.008.024.008.024.008zM6.36 21.56l.864-.824-.008-.008-.024-.024c-.016-.016-.032-.04-.032-.04l-2.816 2.608s.024.032.056.056c.016.016.024.032.04.04l.016.016L6.36 21.56zM4.888 23.176l.056.056.056.056 1.104-1.128 1.264-1.28-.032-.032-.032-.032-.848.84-1.568 1.52zM6.688 22.08l.896-1-.008-.008-.024-.024c-.016-.016-.04-.032-.04-.032L6.6 22l.04.04c.008.008.024.024.032.024l.016.016zM6.008 25.272s.032.024.072.048c.016.008.032.024.048.032s.024.016.024.016l1.432-2.232.88-1.376-.08-.056-.736 1.096-1.64 2.472zM6.424 25.224s.032.024.072.04c.032.024.072.04.072.04l.72-1.208L8.64 21.84s-.024-.016-.04-.024c-.024-.016-.04-.024-.04-.024l-.88 1.4-1.256 2.032z"/><path fill="#d400bd" style="fill:var(--color2,#d400bd)" d="m7.648 22.8.728-1.104s-.024-.016-.04-.024a.06.06 0 0 0-.032-.016c-.008-.008-.016-.008-.016-.008l-.752 1.096s.008.008.016.008c.008.008.024.016.032.024.032.008.064.024.064.024zM6.952 22.136l.784-.928s-.016-.016-.04-.032l-.024-.024-.008-.008-.8.912.016.016c.008.008.016.016.032.024.016.024.04.04.04.04zM5.376 25.024s.008.008.024.016.032.024.048.032.064.048.064.048l2.624-3.6s-.024-.016-.04-.032c-.008-.008-.024-.016-.024-.024-.008-.008-.016-.008-.016-.008l-.584.784-2.096 2.784zM5.24 24.16l.064.048c.016.016.032.024.04.032l.016.016 1.432-1.744 1.024-1.232s-.008 0-.016-.008l-.024-.024c-.008-.008-.04-.032-.04-.032l-.784.928L5.24 24.16zM5.432 23.04l.016.016a.175.175 0 0 0 .04.032c.024.024.056.048.056.048l1.064-1.144.912-.984s-.016-.016-.04-.032l-.024-.024-.008-.008-1.24 1.304-.776.792zM4.648 20.248l1.568-.88s-.016-.024-.024-.04a.06.06 0 0 1-.016-.032c-.008-.008-.008-.016-.008-.016l-1.584.856s0 .008.008.016.016.024.024.04a.621.621 0 0 1 .032.056zM5.064 19.744l1.056-.552s0-.008-.008-.016-.008-.016-.016-.032l-.024-.048-1.064.536a.2.2 0 0 0 .024.056c.008.016.016.024.016.032.016.016.016.024.016.024zM3.584 23.08l.016.016.04.04a.702.702 0 0 0 .056.064l2.024-1.712 1.24-1.056s-.016-.016-.032-.04l-.024-.024c-.008-.008-.008-.016-.008-.016l-1.024.848-2.288 1.88zM3.968 22.376l.048.064a.583.583 0 0 0 .048.056L5.8 21.112l1.04-.824s-.016-.016-.032-.04c-.016-.016-.032-.04-.032-.04l-1.64 1.272-1.168.896zM5.232 22.448l1.928-1.784s-.016-.016-.032-.04l-.024-.024-.008-.008-1.952 1.76.016.016.032.032c.016.024.04.048.04.048z"/><path fill="#d400bd" style="fill:var(--color2,#d400bd)" d="m5.792 21.584 1.232-1.08-.008-.008-.024-.024c-.016-.016-.032-.04-.032-.04l-1.248 1.056s.024.024.04.048c.008.008.024.024.024.032.008.016.016.016.016.016zM3.048 22.664l.048.064c.016.016.024.032.032.048s.016.024.016.024l3.56-2.68s0-.008-.008-.016l-.024-.024a.289.289 0 0 0-.032-.04l-.792.576-2.8 2.048zM5.208 20.784l1.328-.904s0-.008-.008-.016-.016-.016-.016-.032c-.016-.024-.024-.04-.024-.04l-1.344.888.032.048a.11.11 0 0 0 .024.032c0 .016.008.024.008.024zM3.688 20.784l.032.064c.008.016.016.032.024.04s.008.016.008.016l2.512-1.456s0-.008-.008-.016-.008-.016-.016-.032c-.016-.024-.024-.04-.024-.04l-1.568.88-.96.544zM4.288 17.408l1.176-.192s-.008-.024-.008-.048c-.008-.024-.008-.048-.008-.048l-3.792.56.016.08.016.08 2.6-.432z"/><path fill="#d400bd" style="fill:var(--color2,#d400bd)" d="m4.304 17.52 1.176-.208v-.016c0-.008 0-.024-.008-.032s-.008-.048-.008-.048l-1.176.192s.008.032.008.056c0 .016.008.032.008.04v.016zM1.904 20.272l.032.08c.008.016.016.04.024.056s.008.024.008.024l3.944-1.68s0-.008-.008-.016a.06.06 0 0 0-.016-.032l-.016-.048-1.224.504-2.744 1.112zM2.272 20.472s.008.008.008.024l.024.048c.016.04.032.072.032.072l1.272-.592 2.384-1.104s-.008-.024-.024-.048c-.008-.008-.008-.024-.016-.032 0-.008-.008-.016-.008-.016l-1.496.664-2.176.984zM4.648 19.152l1.224-.504-.016-.048c-.008-.008-.008-.024-.016-.032 0-.008-.008-.016-.008-.016L4.6 19.04s0 .008.008.016.008.024.016.04.024.056.024.056zM1.944 18.584l.016.072c.008.016.008.04.016.056 0 .016.008.024.008.024l3.608-.936s0-.008-.008-.016c0-.008-.008-.024-.008-.032-.008-.024-.008-.048-.008-.048l-1.304.32-2.32.56zM4.808 18.592l.928-.312s0-.008-.008-.016c0-.008-.008-.024-.008-.032l-.016-.048-.936.296s.008.024.016.056c.008.016.008.024.016.04a.025.025 0 0 1 .008.016z"/><path fill="#d400bd" style="fill:var(--color2,#d400bd)" d="M2.64 19.024s0 .008.008.024.008.032.016.048.024.072.024.072l3.016-.984-.016-.048c0-.008-.008-.024-.008-.032s-.008-.016-.008-.016l-1.536.472-1.496.464zM3.608 15.352l1.792.16s0-.024.008-.048v-.048l-1.792-.184v.056c0 .016-.008.064-.008.064zM1.128 17.096s0 .04.008.08c0 .024 0 .04.008.056v.024l4.256-.44v-.048c0-.008-.008-.048-.008-.048l-1.312.112-2.952.264zM1.416 17.392s.008.04.008.08c.008.04.008.08.008.08l1.392-.184 2.6-.352s0-.024-.008-.048c0-.024-.008-.048-.008-.048l-3.992.472z"/><path fill="#d400bd" style="fill:var(--color2,#d400bd)" d="m4.08 16.832 1.32-.12s0-.024-.008-.048v-.048l-1.32.096v.056c.008.04.008.064.008.064zM1.664 15.496s0 .04-.008.08v.08l3.72.168v-.096l-1.336-.08-2.376-.152zM1.52 15.8v.16l3.864.056v-.096l-1.216-.032L1.52 15.8zM4.4 16.344l.976-.032v-.096l-.976.016v.112zM2.512 15.256s0 .032-.008.072c0 .016 0 .032-.008.048v.024l2.896.208v-.048c0-.008.008-.048.008-.048l-2.888-.256zM4.208 12.896l1.664.68.016-.048c.008-.008.008-.024.016-.032 0-.008.008-.016.008-.016l-1.656-.704s0 .008-.008.016-.008.024-.016.04l-.024.064zM4.856 12.912l1.088.488s0-.008.008-.016a.06.06 0 0 1 .016-.032c.008-.024.024-.048.024-.048l-1.08-.504s-.016.024-.024.056c-.008.016-.016.024-.016.04l-.016.016zM3.544 14.04l2.016.488s.008-.024.008-.048c0-.016.008-.024.008-.032s.008-.016.008-.016l-2.008-.52s0 .008-.008.016c0 .008-.008.024-.008.04a1.73 1.73 0 0 1-.016.072zM1.328 13.84l-.016.08-.016.08 2.6.512 1.608.312s.008-.024.008-.048c.008-.024.008-.048.008-.048l-1.296-.272-2.896-.616z"/><path fill="#d400bd" style="fill:var(--color2,#d400bd)" d="m2.12 13.688-.016.072a1.73 1.73 0 0 1-.016.072l3.464.792s.008-.024.008-.048c.008-.024.008-.048.008-.048l-2.016-.488-1.432-.352zM1.512 14.208s0 .008-.008.024c0 .016-.008.032-.008.056l-.016.08 1.384.232 2.592.424s.008-.024.008-.048c0-.016.008-.024.008-.032v-.016l-1.608-.288-2.352-.432zM2.312 12.456s-.016.04-.024.072c-.016.04-.024.072-.024.072l3.512 1.256.016-.048.016-.048-1.256-.472-2.24-.832zM2.072 12.704s0 .008-.008.024-.008.032-.016.048c-.016.04-.024.072-.024.072l3.672 1.192.016-.048c0-.008.008-.024.008-.032s.008-.016.008-.016l-1.152-.392-2.504-.848zM4.136 13.672l1.536.472s0-.008.008-.016c0-.008.008-.024.008-.032l.016-.048-1.528-.496s-.008.032-.016.056c-.008.016-.008.032-.016.04-.008.016-.008.024-.008.024zM3.184 12.48s-.016.032-.024.064a.114.114 0 0 0-.016.048c-.008.016-.008.024-.008.024l2.704 1.056s0-.008.008-.016a.06.06 0 0 1 .016-.032l.016-.048-1.664-.68-1.032-.416zM6.2 10.848l.888.8.008-.008.024-.024c.016-.016.032-.04.032-.04L4.344 8.96s-.024.032-.056.056c-.016.016-.024.032-.04.04l-.016.016L6.2 10.848zM5.504 10.728l1.392 1.144s0-.008.008-.016l.024-.024c.008-.008.032-.04.032-.04l-1.376-1.168s-.024.024-.04.048c-.008.016-.024.024-.032.032a.035.035 0 0 1-.008.024z"/><path fill="#d400bd" style="fill:var(--color2,#d400bd)" d="m4.48 9.496-.016.016c-.008.008-.024.024-.032.04s-.048.056-.048.056l1.208 1.024L6.96 11.8s.016-.016.032-.04l.024-.024.008-.008-.896-.784L4.48 9.496zM2.48 10.768s-.016.032-.04.072c-.008.016-.024.032-.024.048a.099.099 0 0 1-.016.024l3.776 2.032s0-.008.008-.016.008-.016.016-.032c.016-.024.024-.04.024-.04L2.48 10.768zM2.544 11.176s-.008.008-.008.024l-.024.048c-.016.032-.032.072-.032.072l3.6 1.808s.008-.024.024-.048c.008-.008.008-.024.016-.032s.008-.016.008-.016l-1.456-.752-2.128-1.104z"/><path fill="#d400bd" style="fill:var(--color2,#d400bd)" d="m5.064 12.216 1.16.648s.016-.024.024-.04a.06.06 0 0 0 .016-.032c.008-.008.008-.016.008-.016l-1.152-.664s0 .008-.008.016-.016.024-.024.032a.476.476 0 0 0-.024.056zM5.672 11.472l.984.712s.016-.024.032-.04c.008-.008.016-.024.024-.024.008-.008.008-.016.008-.016l-.968-.728s-.008.008-.008.016c-.008.008-.016.024-.024.032-.032.024-.048.048-.048.048zM3.528 9.92l-.048.064-.048.064 3.152 2.232s.016-.024.032-.04a.289.289 0 0 1 .032-.04l-.984-.712L3.528 9.92zM3.912 10.56l-.016.016c-.008.008-.016.024-.032.04s-.04.064-.04.064l2.648 1.744s.016-.024.024-.04a.06.06 0 0 0 .016-.032c.008-.008.008-.016.008-.016L3.912 10.56zM5.208 8.512l-.016.016c-.008.008-.024.024-.04.032s-.056.056-.056.056l2.416 2.608s.016-.016.04-.032l.024-.024.008-.008-1.392-1.544-.984-1.104zM5.232 9.784l1.928 1.784s.016-.016.032-.04l.024-.024.008-.008L5.328 9.68l-.016.016-.032.032a.583.583 0 0 1-.048.056z"/><path fill="#d400bd" style="fill:var(--color2,#d400bd)" d="m6.52 10.328.92.96.008-.008.024-.024c.016-.016.04-.032.04-.032l-.904-.976-.04.04-.032.032c-.008 0-.016.008-.016.008zM7.32 9.8l.728.968s.008 0 .016-.008l.024-.024a.289.289 0 0 0 .04-.032l-.712-.984-.048.032c-.008.008-.024.016-.032.024a.099.099 0 0 1-.016.024z"/><path fill="#d400bd" style="fill:var(--color2,#d400bd)" d="M6.064 7.608 6 7.656l-.064.048 1.48 2.032.712.984s.024-.016.04-.032.04-.032.04-.032L7.44 9.552 6.064 7.608zM4.856 7.624s-.032.024-.064.056c-.016.016-.032.024-.04.04l-.016.016 1.56 1.784 1.368 1.56.008-.008.024-.024c.016-.016.04-.032.04-.032l-2.88-3.392z"/><path fill="#d400bd" style="fill:var(--color2,#d400bd)" d="m7.104 10.272.632.744s.016-.016.04-.032l.024-.024c.008-.008.016-.008.016-.008l-.624-.752s-.008.008-.016.008c-.008.008-.016.016-.032.024-.016.024-.04.04-.04.04zM6.776 8.12s-.032.016-.056.04c-.016.008-.032.016-.04.024l-.016.016.88 1.288.76 1.104s.008 0 .016-.008.016-.016.032-.016c.024-.016.04-.024.04-.024L7.384 9.04l-.608-.92zM10.184 8.464l.28 1.16s.024-.008.048-.008c.024-.008.048-.008.048-.008l-.848-3.744-.08.016-.08.016.632 2.568z"/><path fill="#d400bd" style="fill:var(--color2,#d400bd)" d="m10.072 8.496.296 1.152s.008 0 .016-.008c.008 0 .024-.008.032-.008.024-.008.048-.008.048-.008l-.28-1.16s-.032.008-.056.016c-.016 0-.032.008-.04.008s-.016.008-.016.008zM8.376 8.168l.872 1.88s.024-.008.048-.024c.008-.008.024-.008.032-.016.008 0 .016-.008.016-.008l-.848-1.896s-.008 0-.016.008-.024.008-.04.016l-.064.04zM9.576 8.48l.416 1.272.048-.016c.008 0 .024-.008.032-.008s.016-.008.016-.008l-.392-1.28s-.008 0-.016.008a.135.135 0 0 0-.04.016l-.064.016zM7.144 6.304s-.04.016-.072.04c-.016.008-.04.016-.048.024-.016.008-.024.008-.024.008l1.224 2.352.752 1.456s.008 0 .016-.008.016-.008.032-.016l.048-.024-.592-1.184-1.336-2.648zM7.4 8.056l1.312 2.272s.008 0 .016-.008.016-.008.032-.016c.024-.016.04-.024.04-.024L7.52 7.984l-.064.032c-.016.008-.032.016-.04.024l-.016.016z"/><path fill="#d400bd" style="fill:var(--color2,#d400bd)" d="M6.976 6.68s-.008.008-.024.008l-.048.024c-.032.016-.072.04-.072.04l.688 1.232L8.8 10.28s.024-.016.04-.024a.06.06 0 0 1 .032-.016c.008-.008.016-.008.016-.008l-.776-1.44L6.976 6.68zM8.84 6.216s-.04.016-.072.024a.166.166 0 0 1-.048.016c-.016.008-.024.008-.024.008l1.2 3.528s.008 0 .016-.008c.008 0 .024-.008.032-.008l.048-.016-.416-1.272-.736-2.272zM8.496 6.184s-.04.016-.072.024c-.04.016-.072.024-.072.024l.792 2.112.568 1.504.048-.016.048-.016L9.4 8.672l-.904-2.488zM9.048 9.072l.384.896s.008 0 .016-.008a.06.06 0 0 0 .032-.016l.048-.016-.368-.904s-.024.008-.056.024c-.016.008-.024.008-.04.016-.008.008-.016.008-.016.008z"/><path fill="#d400bd" style="fill:var(--color2,#d400bd)" d="M8.456 6.936s-.008 0-.024.008-.032.016-.048.016c-.032.016-.072.024-.072.024l.832 2.032.368.904.048-.016c.008-.008.024-.008.032-.016.008 0 .016-.008.016-.008l-.584-1.496-.568-1.448zM12.184 7.64l-.024 1.8h.096l.056-1.8h-.128zM10.264 5.296l-.08.016c-.024 0-.04.008-.056.008s-.024.008-.024.008l.472 2.608.288 1.608h.016c.008 0 .024 0 .032-.008s.048-.008.048-.008l-.216-1.312-.48-2.92zM9.984 5.6l-.08.016-.08.016.288 1.376.544 2.568s.024-.008.048-.008c.024-.008.048-.008.048-.008l-.312-1.608L9.984 5.6zM11.904 5.712h-.16l.072 2.512.032 1.216h.096l-.016-1.344-.024-2.384zM11.584 5.584h-.08c-.04 0-.08.008-.08.008l.136 2.248.096 1.608h.096l-.056-1.208-.112-2.656zM11.256 8.496l.104.968h.048c.008 0 .048-.008.048-.008l-.088-.976s-.032 0-.056.008h-.04c-.008.008-.016.008-.016.008z"/><path fill="#d400bd" style="fill:var(--color2,#d400bd)" d="M11.32 6.288h-.024c-.016 0-.032 0-.048.008a.33.33 0 0 0-.072.008l.192 2.192.088.976s.024 0 .048-.008h.048l-.12-1.6-.112-1.576zM14.68 8.048l-.552 1.712.048.016c.008 0 .024.008.032.008s.016.008.016.008l.584-1.704s-.008 0-.016-.008a.135.135 0 0 1-.04-.016.527.527 0 0 1-.072-.016zM13.488 7.48l-.336 2.048s.024.008.048.008c.016 0 .024.008.032.008h.016l.368-2.04h-.024c-.016 0-.032-.008-.048-.008-.024-.016-.056-.016-.056-.016zM13.528 5.248s-.04-.008-.08-.008c-.04-.008-.08-.008-.08-.008l-.312 2.632-.192 1.624s.024 0 .048.008c.024 0 .048.008.048.008l.176-1.312.392-2.944z"/><path fill="#d400bd" style="fill:var(--color2,#d400bd)" d="m13.728 6.024-.072-.016C13.616 6 13.584 6 13.584 6l-.328 2.2-.2 1.312s.024 0 .048.008.048.008.048.008l.336-2.048.24-1.456zM12.752 6.832l-.192 2.616h.048c.008 0 .048.008.048.008l.232-2.616s-.032 0-.072-.008c-.016 0-.032 0-.048-.008-.008.008-.016.008-.016.008zM13.176 5.464h-.024c-.016 0-.032 0-.056-.008-.04 0-.08-.008-.08-.008l-.128 1.4-.232 2.616s.024 0 .048.008h.048l.168-1.624.256-2.384zM14.976 6.128s-.04-.008-.072-.024a.32.32 0 0 1-.072-.024l-.984 3.592.048.016.048.016.376-1.288.656-2.288zM14.704 5.904s-.008 0-.024-.008c-.016 0-.032-.008-.056-.016l-.08-.016-.536 2.192-.376 1.56s.024.008.048.008c.016 0 .024.008.032.008s.016.008.016.008l.304-1.176.672-2.56zM15.016 7s-.032-.008-.072-.024c-.016-.008-.032-.008-.048-.016a.035.035 0 0 1-.024-.008l-.456 1.496-.392 1.28s.008 0 .016.008c.008 0 .024.008.032.008l.048.016.552-1.712L15.016 7zM16.872 9.888l-.728.944s.016.016.04.032c.016.016.04.032.04.032l2.392-3-.064-.048-.064-.048-1.616 2.088zM18.088 8.064l-.016-.016c-.008-.008-.024-.016-.04-.032s-.064-.048-.064-.048l-1.984 2.736s.024.016.04.032c.008.008.024.016.024.024a.025.025 0 0 0 .016.008l.72-.952 1.304-1.752zM15.976 8.28l-.936 1.856s.024.008.048.024c.008.008.024.008.032.016s.016.008.016.008l.96-1.84s-.008 0-.016-.008-.024-.016-.04-.024c-.04-.016-.064-.032-.064-.032zM16.472 9.416l-.736 1.12s.024.016.04.024a.06.06 0 0 0 .032.016.025.025 0 0 0 .016.008l.76-1.104s-.008-.008-.016-.008c-.008-.008-.024-.016-.032-.024-.04-.016-.064-.032-.064-.032zM16.664 6.16s-.04-.016-.072-.032c-.016-.008-.04-.016-.048-.024-.016-.008-.024-.008-.024-.008l-1.08 2.416-.664 1.496s.008 0 .016.008a.06.06 0 0 1 .032.016c.024.008.048.024.048.024l.56-1.2 1.232-2.696zM15.456 7.448l-.96 2.448s.008 0 .016.008a.06.06 0 0 1 .032.016l.048.016 1-2.432s-.032-.016-.064-.024a.114.114 0 0 0-.048-.016c-.016-.016-.024-.016-.024-.016z"/><path fill="#d400bd" style="fill:var(--color2,#d400bd)" d="M16.264 6.264s-.008-.008-.024-.008l-.048-.024a1.06 1.06 0 0 1-.072-.032l-.536 1.296-1 2.432.048.016c.008.008.024.008.032.016.008 0 .016.008.016.008l.64-1.504.944-2.2zM17.6 7.144s-.032-.024-.064-.04a.473.473 0 0 0-.064-.04l-1.984 3.312s.024.016.04.024c.024.016.04.024.04.024l.64-1.032L17.6 7.144zM15.688 9.368l-.464.856s.008 0 .016.008.016.008.032.016c.024.016.04.024.04.024l.48-.856s-.024-.016-.048-.024c-.016-.008-.024-.016-.032-.016-.024 0-.024-.008-.024-.008z"/><path fill="#d400bd" style="fill:var(--color2,#d400bd)" d="M16.984 7.576s-.008-.008-.016-.008l-.048-.024c-.032-.016-.064-.04-.064-.04l-1.072 1.92-.48.856s.024.016.04.024a.06.06 0 0 0 .032.016.025.025 0 0 0 .016.008l.808-1.392.784-1.36zM20.192 10.2l-.048-.064c-.008-.016-.024-.032-.032-.04l-.016-.016-1.264.952-1.44 1.08s0 .008.008.016l.024.024c.016.024.032.04.032.04l2.736-1.992zM19.128 8.72l-.016-.016a.175.175 0 0 0-.04-.032l-.056-.056-2.416 2.608s.016.016.04.032l.024.024.008.008 2.456-2.568zM18.984 7.944l-.064-.048c-.016-.016-.032-.024-.04-.032l-.016-.016-2.56 3.112s.008 0 .016.008l.024.024c.008.008.04.032.04.032l1.056-1.248 1.544-1.832z"/><path fill="#d400bd" style="fill:var(--color2,#d400bd)" d="m17.432 9.768-1.056 1.248s.016.016.04.032l.024.024.008.008 1.08-1.232-.016-.016c-.008-.008-.024-.016-.032-.024s-.048-.04-.048-.04zM17.416 10.168l-.888.984.008.008.024.024c.016.016.04.032.04.032l.904-.976-.04-.04c-.008-.008-.024-.024-.032-.024l-.016-.008zM18 10.92l-.912.8.008.008.024.024c.016.016.032.04.032.04l.928-.784s-.016-.024-.04-.048c-.008-.008-.016-.024-.024-.032-.008 0-.016-.008-.016-.008z"/><path fill="#d400bd" style="fill:var(--color2,#d400bd)" d="m20.096 9.504-.016-.016c-.008-.008-.024-.024-.032-.04S20 9.392 20 9.392l-1.92 1.616-.928.784s.016.016.032.04l.024.024a.025.025 0 0 1 .008.016l1.032-.856 1.848-1.512zM19.984 8.304l-.056-.056-.056-.056-3.128 3.176.032.032.032.032.696-.688 2.48-2.44zM19.28 9.416s-.024-.024-.048-.056a.14.14 0 0 1-.032-.04l-.016-.016-1.584 1.52-.704.672.008.008.024.024c.016.016.032.04.032.04l1.176-1.096 1.144-1.056z"/><path fill="#d400bd" style="fill:var(--color2,#d400bd)" d="m18.128 10.48-1.176 1.096s.016.016.032.04l.024.024.008.008 1.192-1.072-.016-.016c-.008-.008-.016-.024-.032-.032-.008-.024-.032-.048-.032-.048zM19.64 10.256l-.04-.056c-.024-.024-.048-.056-.048-.056l-1.224.976-1.048.832s.016.016.032.04c.016.016.032.04.032.04l1.424-1.104.872-.672zM19.544 13.68l-1.136.368.016.048c0 .008.008.024.008.032s.008.016.008.016l3.672-1.128s0-.008-.008-.024-.008-.032-.016-.048c-.016-.04-.024-.072-.024-.072l-2.52.808z"/><path fill="#d400bd" style="fill:var(--color2,#d400bd)" d="m19.512 13.568-1.128.384s0 .008.008.016c0 .008.008.024.008.032l.016.048 1.136-.368s-.008-.024-.016-.056c-.008-.016-.008-.024-.016-.04-.008-.008-.008-.016-.008-.016zM19.704 11.848l-1.808 1.016s.016.024.024.04a.06.06 0 0 1 .016.032.025.025 0 0 1 .008.016l1.824-.984s0-.008-.008-.016-.016-.024-.024-.04l-.032-.064zM19.48 13.072l-1.24.512.016.048c.008.008.008.024.016.032 0 .008.008.016.008.016l1.248-.488s0-.008-.008-.016-.008-.024-.016-.04a.353.353 0 0 1-.024-.064zM21.472 10.488s-.024-.032-.04-.072c-.024-.032-.04-.072-.04-.072l-2.256 1.392-1.392.864s.016.024.024.04c.016.024.024.04.024.04l1.136-.68 2.544-1.512z"/><path fill="#d400bd" style="fill:var(--color2,#d400bd)" d="M20.992 11.136s-.016-.032-.04-.064l-.024-.048a.099.099 0 0 0-.016-.024l-1.92 1.112-1.152.664s0 .008.008.016.008.016.016.032c.016.024.024.04.024.04l1.808-1.016 1.296-.712zM19.744 10.872l-2.168 1.48s0 .008.008.016.016.016.016.032c.016.024.024.04.024.04l2.192-1.448s-.016-.032-.04-.056c-.008-.016-.016-.032-.024-.04a.035.035 0 0 0-.008-.024zM21.688 12.168s-.016-.04-.032-.072c-.008-.016-.016-.04-.024-.048-.008-.016-.008-.024-.008-.024L18.2 13.496s0 .008.008.016a.06.06 0 0 0 .016.032l.016.048 3.448-1.424zM21.688 11.824s0-.008-.008-.024l-.024-.048-.032-.072-3.504 1.632s.008.024.024.048c.008.008.008.024.016.032 0 .008.008.016.008.016l1.112-.496 2.408-1.088zM18.856 12.592l-.864.448s0 .008.008.016.008.016.016.032l.024.048.872-.44s-.016-.024-.024-.048c-.008-.016-.016-.024-.016-.032l-.016-.024zM19.928 15.88l-1.192.032v.096l1.192-.016v-.112zM20.048 15.392l-1.336.12s0 .024.008.048v.048l1.336-.096v-.056c-.008-.032-.008-.064-.008-.064zM22.712 13.52l-.016-.08c-.008-.016-.008-.04-.016-.056a.035.035 0 0 0-.008-.024l-4.152 1.072s0 .008.008.016c0 .008.008.024.008.032.008.024.008.048.008.048l4.168-1.008zM22.424 15.184s0-.04-.008-.08c0-.016 0-.04-.008-.056v-.024l-2.496.256-1.208.128v.048c0 .008.008.048.008.048l1.336-.12 2.376-.2zM19.592 14.744l-.96.176v.016c0 .008 0 .024.008.032s.008.048.008.048l.96-.16s-.008-.032-.008-.056c0-.016-.008-.032-.008-.04v-.016z"/><path fill="#f715ff" style="fill:var(--color3,#f715ff)" d="M9.952 17.52c-.104-.296-.312-.44-.632-.44h-.104v1.8h.104c.248 0 .424-.096.544-.296.096-.168.144-.384.144-.648a1.14 1.14 0 0 0-.056-.416zM8.232 17.544c.104.296.312.44.632.44h.104v-1.8h-.104c-.248 0-.424.096-.544.296-.096.168-.144.384-.144.648-.008.16.016.296.056.416zM6.56 13.296h1.336v.48H7.04v.24h.712v.456H7.04v.24h.856v.48H6.56v-1.896zM8.568 13.296h1.728l-.864 1.928-.864-1.928zm.864 1.696.712-1.592H8.72l.712 1.592zM10.984 13.296h1.336v.48h-.856v.24h.712v.456h-.712v.24h.856v.48h-1.336v-1.896zM13.144 15.184v-1.888h.104l1.28 1.288v-1.288h.096v1.888h-1.48zM16.024 15.192v-1.408h-.696v-.48h1.48v.48h-.696v1.408h-.088zM7.344 16.56c.112 0 .208.016.28.056.08.04.144.104.192.176.048.08.072.168.064.256 0 .088-.024.176-.072.248s-.112.136-.184.176c.096.032.176.096.24.176s.096.184.096.288a.476.476 0 0 1-.072.256.507.507 0 0 1-.184.184.418.418 0 0 1-.128.048 1.149 1.149 0 0 1-.192.016h-.808v-1.88h.768zM10.44 18.312c-.136-.12-.208-.312-.208-.56h.432c0 .104.032.184.088.24.064.056.144.08.256.08.088 0 .16-.016.216-.048s.08-.08.08-.144c0-.056-.024-.088-.08-.112-.048-.024-.104-.04-.16-.048s-.088-.016-.096-.016a2.533 2.533 0 0 1-.352-.096c-.096-.04-.184-.096-.248-.176s-.104-.184-.104-.312.032-.24.104-.336a.627.627 0 0 1 .264-.208.833.833 0 0 1 .368-.064c.16 0 .296.032.416.096s.208.152.272.28a.661.661 0 0 1 .064.176c.008.056.008.104.008.16h-.432c0-.096-.024-.168-.08-.216-.048-.048-.128-.072-.24-.072-.088 0-.152.016-.2.048s-.072.072-.072.128c0 .056.032.104.096.128.08.032.16.056.24.072.16.032.28.064.368.096s.168.088.232.16c.064.08.096.184.096.32 0 .128-.032.24-.104.336s-.16.168-.28.216c-.12.048-.248.072-.376.072-.24-.016-.432-.08-.568-.2zM12.864 18.448V17.04h-.696v-.48h1.48v.48h-.688v1.408h-.096zM14.152 16.56h1.336v.48h-.856v.24h.712v.456h-.712v.24h.856v.48h-1.336V16.56zM17.464 18.448h-1.408V16.56h.712c.152 0 .28.032.376.088.096.048.168.128.224.224s.08.2.08.312a.58.58 0 0 1-.128.376.604.604 0 0 1-.32.224l.464.664zm-1.312-1.728v.976h.68l-.68-.976zm0 1.624h1.128l-.384-.552h-.744v.552zm.064-1.688.72 1.032a.533.533 0 0 0 .296-.184.495.495 0 0 0 .112-.328.491.491 0 0 0-.272-.456.666.666 0 0 0-.304-.056h-.552z"/></symbol></defs></svg>