<svg aria-hidden="true" style="width:0;height:0;position:absolute;overflow:hidden" xmlns="http://www.w3.org/2000/svg"><defs><symbol id="icon-close" viewBox="0 0 32 32"><path fill="#4c00fe" style="fill:var(--color1,#4c00fe)" d="M1.646 32a1.646 1.646 0 0 1-1.163-2.811L29.19.482a1.646 1.646 0 1 1 2.328 2.329L2.811 31.517A1.65 1.65 0 0 1 1.646 32z"/><path fill="#4c00fe" style="fill:var(--color1,#4c00fe)" d="M30.355 32a1.63 1.63 0 0 1-1.163-.483L.483 2.811A1.647 1.647 0 0 1 2.812.482l28.707 28.707A1.646 1.646 0 0 1 30.356 32z"/></symbol><symbol id="open-select" viewBox="0 0 42 32"><path fill="#939393" style="fill:var(--color2,#939393)" d="M21 16 8.01 1h25.981l-12.99 15z"/></symbol><symbol id="close-select" viewBox="0 0 42 32"><path fill="#939393" style="fill:var(--color1,#939393)" d="M21 16 8.01 1h25.981l-12.99 15z"/></symbol><symbol id="icon-search" viewBox="0 0 32 32"><path fill="#939393" style="fill:var(--color2,#939393)" d="M4.024 4.024C6.619 1.429 10.069 0 13.739 0s7.12 1.429 9.715 4.024a13.649 13.649 0 0 1 4.024 9.715 13.64 13.64 0 0 1-3.383 9.029l7.63 7.63a.94.94 0 0 1-1.327 1.327l-7.63-7.63a13.635 13.635 0 0 1-9.029 3.383c-3.67 0-7.12-1.429-9.715-4.024S0 17.409 0 13.739s1.429-7.12 4.024-9.715zm1.327 18.103c4.625 4.625 12.15 4.625 16.775 0s4.625-12.15 0-16.775c-2.313-2.313-5.35-3.469-8.388-3.469S7.662 3.04 5.35 5.352c-4.625 4.625-4.625 12.15 0 16.775z"/></symbol><symbol id="icon-close-modal" viewBox="0 0 32 32"><path d="M1.646 32a1.646 1.646 0 0 1-1.163-2.811L29.19.482a1.646 1.646 0 1 1 2.328 2.329L2.811 31.517A1.65 1.65 0 0 1 1.646 32z"/><path d="M30.355 32c-.421 0-.843-.16-1.163-.483L.483 2.811A1.647 1.647 0 0 1 2.812.482l28.707 28.707A1.646 1.646 0 0 1 30.356 32z"/></symbol><symbol id="icon-place" viewBox="0 0 42 32"><path fill="#939393" style="fill:var(--color1,#939393)" d="M21 16 8.01 1h25.981l-12.99 15z"/></symbol><symbol id="icon-ticket" viewBox="0 0 45 32"><path d="M5.02 1.569H0v30.118h5.02V1.569zM17.645 1.569h-5.02v30.118h5.02V1.569zM25.25 1.569h-5.019v30.118h5.019V1.569zM45.176 1.569h-7.453v30.118h7.453V1.569zM10.039 1.569H7.605v30.118h2.434V1.569zM30.118 1.569h-2.434v30.118h2.434V1.569zM35.137 1.569h-2.434v30.118h2.434V1.569z"/></symbol></defs></svg>