<svg aria-hidden="true" style="width:0;height:0;position:absolute;overflow:hidden" xmlns="http://www.w3.org/2000/svg"><defs><symbol id="icon-close" viewBox="0 0 32 32"><path fill="#4c00fe" style="fill:var(--color1,#4c00fe)" d="M1.646 32a1.646 1.646 0 0 1-1.163-2.811L29.19.482a1.646 1.646 0 1 1 2.328 2.329L2.811 31.517A1.65 1.65 0 0 1 1.646 32z"/><path fill="#4c00fe" style="fill:var(--color1,#4c00fe)" d="M30.355 32c-.421 0-.843-.16-1.163-.483L.483 2.811A1.647 1.647 0 0 1 2.812.482l28.707 28.707A1.646 1.646 0 0 1 30.356 32z"/></symbol><symbol id="icon-ticket" viewBox="0 0 45 32"><path d="M5.02 1.568H0v30.118h5.02V1.568zm12.625 0h-5.02v30.118h5.02V1.568zm7.605 0h-5.018v30.118h5.018V1.568zm19.926 0h-7.454v30.118h7.454V1.568zm-35.137 0H7.605v30.118h2.434V1.568zm20.079 0h-2.434v30.118h2.434V1.568zm5.02 0h-2.434v30.118h2.434V1.568z"/></symbol></defs></svg>