<svg version="1.1" id="Слой_1" xmlns="http://www.w3.org/2000/svg" x="0" y="0" viewBox="0 0 300 400" style="enable-background:new 0 0 300 400" xml:space="preserve"><style>.st0{fill:#d400bd}.st1{fill:#f715ff}</style><path class="st0" d="m245.2 229.1-14.3-4.2-.4 1.2 45.9 14.1.5-1.9zM253.7 226.6l-21.9-5.3s-.1.3-.1.6c0 .2-.1.3-.1.4 0 .1-.1.2-.1.2l21.8 5.6s0-.1.1-.2c0-.1.1-.3.1-.5l.2-.8zM245.6 227.6l-14.4-4-.2.6-.2.6 14.3 4.2s.1-.4.2-.7c.2-.3.3-.7.3-.7z"/><path class="st0" d="m272 234.9.4-1.8-19.1-5-21.8-5.6-.3 1.2 14.4 3.9zM259.7 211.3l-25.8-2.3s0 .3-.1.6V210.2l25.8 2.7V212c.1-.3.1-.7.1-.7zM248.8 222.3l-16.4-3.5-.3 1.3 16.4 3.7zM287.5 209.6s0-.5.1-1v-1l-33.1-1.5-20.4-.9v1.2l16.6 1 36.8 2.2zM278 212.9s0-.5.1-1c0-.2 0-.5.1-.7v-.3l-27.7-2-16.5-1.2V208.3c0 .3-.1.6-.1.6l25.8 2.3 18.3 1.7zM267 201.4h-32.8v1.3l32.8.5z"/><path class="st0" d="M284.5 205.4v-2l-17.5-.3-32.8-.5v1.2l20.5.6 29.8 1zM254.6 204.6l-20.4-.6-.1 1.2 20.5.9zM250.6 207.4l-16.5-.9-.1 1.2 16.5 1.2zM247.8 219.1l-14.9-2.7-.3 1.2 14.9 2.9z"/><path class="st0" d="m278 228.5.2-1 .2-1-30.8-6-14.9-2.9s-.1.3-.1.6c-.1.3-.1.6-.1.6l16.4 3.5 29.1 6.2zM288.9 218l.2-2-29.5-3.1-25.8-2.7-.2 1.2 12.1 1.5zM280.4 225s0-.1.1-.3c0-.2.1-.4.1-.7l.2-1-27.8-4.6-19.8-3.3s-.1.3-.1.6c0 .2-.1.3-.1.4v.2l14.9 2.7 32.5 6z"/><path class="st0" d="m245.7 212.9-12.1-1.4s0 .3-.1.6c0 .3-.1.6-.1.6l12.1 1.6s0-.4.1-.7c.1-.4.1-.7.1-.7z"/><path class="st0" d="m272.5 219.8.3-1.8-27.2-3.7-12.1-1.6-.2 1.2 19.9 3zM253.2 216.9l-19.9-3s0 .3-.1.6-.1.6-.1.6l19.8 3.3s.1-.4.1-.8c.1-.3.2-.7.2-.7zM267.1 229.8s.1-.4.2-.9c.1-.4.2-.9.2-.9l-19-4.3-16.3-3.7s-.1.3-.1.6c-.1.3-.1.6-.1.6l21.9 5.3 13.2 3.3zM232.9 255.7l-12.4-8.2s-.2.3-.3.5c-.1.1-.2.3-.2.4-.1.1-.1.2-.1.2l39.6 27.1s.1-.1.2-.3c.1-.2.2-.4.4-.6.3-.4.5-.8.5-.8l-27.7-18.3zM241.7 255.8l-19.3-11.6s-.2.3-.3.5c-.2.3-.3.5-.3.5l19.1 11.8s.2-.3.4-.7c.2-.1.4-.5.4-.5z"/><path class="st0" d="m233.7 254.4-12.6-8-.7 1 12.5 8.3z"/><path class="st0" d="m256.7 269.2 1-1.6-16.8-10.4-19.1-11.9-.7 1.1 12.6 8zM252 243l-24-9.8-.2.6c-.1.1-.1.3-.2.4 0 .1-.1.2-.1.2l23.8 10.2s0-.1.1-.2.1-.3.2-.5c.2-.6.4-.9.4-.9zM238.3 250.3l-14.6-8.2s-.2.3-.3.5c-.1.1-.2.3-.2.4-.1.1-.1.2-.1.2l14.5 8.4s0-.1.1-.2.2-.3.3-.4c.1-.4.3-.7.3-.7zM279.1 249.6l.4-1c.2-.5.3-1 .3-1l-31.2-11.2-19.3-6.9-.2.6-.2.6 15.5 5.8 34.7 13.1zM269 249.9s.2-.4.4-.9c.1-.2.2-.4.2-.6.1-.2.1-.3.1-.3L243.9 238l-15.4-6.1s0 .1-.1.2c0 .1-.1.3-.2.4l-.2.6 24 9.8 17 7zM261.9 235.7l-31.4-9.7s0 .1-.1.2c0 .1-.1.3-.1.4l-.2.6 31.2 10.1s.1-.4.3-.8c.1-.2.1-.4.2-.6.1-.1.1-.2.1-.2z"/><path class="st0" d="M277.4 244.7s0-.1.1-.3c.1-.2.1-.4.2-.7.2-.5.3-1 .3-1l-16.7-5.4-31.2-10.1-.2.6c0 .1-.1.3-.1.4 0 .1-.1.2-.1.2l19.4 6.6 28.3 9.7z"/><path class="st0" d="m249.1 235.1-19.3-6.7-.5 1.2 19.3 6.9zM244.4 236.6l-15.5-5.8-.4 1.2 15.4 6zM238.3 246.9l-13.5-7-.5 1.1 13.3 7.2z"/><path class="st0" d="M264.3 264.8s.2-.4.5-.8l.3-.6c.1-.2.1-.3.1-.3l-27.6-14.9-13.3-7.2s0 .1-.1.2-.1.2-.2.4c-.2.3-.3.5-.3.5l14.6 8.2 26 14.5zM277.9 258.1l.8-1.9-27.3-11.7-23.9-10.2-.5 1.1 11.2 5zM267.7 262.2s.1-.1.1-.3l.3-.6c.2-.4.4-.9.4-.9l-25.2-12.6-18-9s-.1.3-.3.6c-.1.1-.1.3-.2.4-.1.1-.1.2-.1.2l13.5 7 29.5 15.2z"/><path class="st0" d="m238.2 240.4-11.2-5s0 .1-.1.2c0 .1-.1.3-.2.4-.1.3-.3.6-.3.6l11.1 5.1s.2-.3.3-.6c.1-.2.1-.3.2-.4.1-.2.2-.3.2-.3z"/><path class="st0" d="m261.7 254.9.8-1.7-24.9-11.5-11.1-5.2-.5 1.2 18.1 8.7z"/><path class="st0" d="m244.1 246.4-18.1-8.7-.6 1.1 18 9zM253.5 262.9l1-1.5-16.9-9.8-14.6-8.4-.6 1.1 19.3 11.5zM213.2 277.5l-9.5-11.5-1 .7 30 37.5 1.5-1.2zM221.6 280.2l-15-16.7-1 .8 14.8 17z"/><path class="st0" d="m214.3 276.5-9.7-11.4s-.2.2-.5.4l-.3.3c-.1.1-.2.1-.2.1l9.5 11.5s.1-.1.2-.1c.1-.1.2-.2.4-.3.4-.2.6-.5.6-.5z"/><path class="st0" d="M232 297.4s.4-.3.7-.6c.2-.2.4-.3.5-.4l.2-.2-13-14.9-14.8-16.9-.1.1-.3.3c-.2.2-.5.4-.5.4l9.7 11.4 17.6 20.8zM235.2 271l-20-16.5s0 .1-.1.2l-.3.3c-.2.2-.4.5-.4.5l19.8 16.8s.3-.3.5-.6c.1-.2.3-.3.4-.4l.1-.3zM220 273.9l-11.6-12.1-.1.1-.3.3c-.2.2-.5.4-.5.4l11.4 12.3.5-.5.4-.4c.1 0 .2-.1.2-.1zM259.1 285.3l1.3-1.6-26.5-19.9-16.4-12.3-.7 1 13.1 10.2z"/><path class="st0" d="m249.5 282.7 1.2-1.5-21.7-17.4-13-10.3-.8 1 20 16.5zM246.8 267l-27.1-18.5-.7 1 26.8 18.9z"/><path class="st0" d="m259 280.2.6-.8.6-.8-14.3-10.1-26.9-19s-.2.3-.4.5c-.2.3-.4.5-.4.5l16.5 12 24.3 17.7z"/><path class="st0" d="m234.8 262.5-16.5-12s-.2.3-.4.5c-.1.1-.2.3-.3.3-.1.1-.1.2-.1.2l16.4 12.3s.1-.1.1-.2c.1-.1.2-.3.3-.4.3-.3.5-.7.5-.7zM229.9 262.7l-13.1-10.2s-.2.2-.4.5c-.2.2-.4.5-.4.5l13 10.3s.2-.3.5-.6c.2-.2.4-.5.4-.5zM221 270.7 210.2 260l-.4.4-.4.4 10.6 10.8.5-.5c.2-.1.5-.4.5-.4zM240.6 295.5l1.4-1.4-22.1-22.4-10.6-10.8-.9.9 11.6 12.1zM255.5 293l.2-.2.5-.5c.3-.4.7-.8.7-.8l-22.7-19.2-19.8-16.8s-.2.2-.4.5l-.3.3-.1.1 9.2 8 32.7 28.6z"/><path class="st0" d="m244.6 293.9 1.4-1.4-20.4-19.5-14.5-13.8-.9.8 10.8 10.7zM222.8 264.4l-9.2-8-.8.9 9 8.2z"/><path class="st0" d="M241 285.2s.3-.3.6-.7c.2-.2.3-.3.4-.5l.2-.2-20.4-18.4-9.1-8.2-.1.1-.3.3c-.2.2-.4.5-.4.5l14.7 13.7 14.4 13.4zM226.6 271.9l-14.7-13.7s-.2.2-.4.5l-.3.3-.1.1 14.5 13.9.2-.2.4-.4c.2-.2.4-.5.4-.5zM230.9 290.5l.2-.2c.1-.1.3-.3.5-.4.3-.3.7-.6.7-.6L219 275l-11.4-12.3s-.2.2-.5.4l-.3.3-.1.1 15.1 16.7 9.1 10.3zM188 292.5l-5.7-13.8-.6.2c-.1.1-.3.1-.4.2-.1 0-.2.1-.2.1l17.5 44.7s.1 0 .3-.1l.6-.3c.5-.2.9-.4.9-.4L188 292.5zM195.3 297.6l-9.5-20.4s-.3.1-.6.3c-.1.1-.3.1-.4.2-.1 0-.2.1-.2.1l9.2 20.5s.1 0 .2-.1.3-.1.5-.2l.8-.4z"/><path class="st0" d="m189.4 292-5.9-13.7s-.1 0-.2.1c-.1 0-.3.1-.4.2l-.6.2 5.7 13.8s.3-.1.7-.3c.2-.1.3-.1.5-.2.1-.1.2-.1.2-.1z"/><path class="st0" d="m200.1 317.1 1.8-.7-8.1-18.1-9.1-20.5-1.2.5 5.9 13.7zM211 292.8l-14.3-21.6-1.1.6 14 21.9zM195.5 291.1l-7.5-14.9-1.1.5 7.3 15.1zM229.6 313.5l.8-.6.8-.6-19.5-26.8-12-16.5s-.3.2-.5.4-.5.4-.5.4l9.6 13.6 21.3 30.1z"/><path class="st0" d="M221.1 308.1s.4-.3.8-.5c.2-.1.4-.3.5-.4l.2-.2-15.7-22.9-9.4-13.7s-.1 0-.2.1-.2.2-.4.2c-.3.2-.5.3-.5.3l14.3 21.6 10.4 15.5zM223.2 292.4l-20.5-25.7s-.2.2-.5.4c-.2.2-.5.4-.5.4l20.1 26s.3-.3.7-.5c.4-.3.7-.6.7-.6z"/><path class="st0" d="m231 308.6 1.6-1.2-10.7-13.9-20.1-26-1 .8 12.3 16.3z"/><path class="st0" d="m213.1 284.6-12.3-16.4s-.1 0-.2.1l-.3.3c-.3.2-.5.4-.5.4l12 16.5s.3-.2.6-.5c.2-.1.3-.2.4-.3.2 0 .3-.1.3-.1zM208.3 283.3l-9.6-13.5-1 .7 9.4 13.7zM197.5 288.4l-7.2-13.4-1.1.6 6.9 13.4z"/><path class="st0" d="M208.9 317.8s.4-.2.9-.4l.6-.3c.2-.1.3-.1.3-.1l-14.6-28-7-13.5s-.1 0-.2.1-.2.1-.4.2c-.3.1-.6.3-.6.3l7.5 15 13.5 26.7zM223.9 319.8l1.8-1.1-16.1-25-14-21.9-1 .7 6.4 10.4zM213.2 317.5s.1-.1.3-.1l.6-.3c.4-.2.9-.5.9-.5L201.2 292l-9.8-17.5s-.3.2-.5.3c-.1.1-.3.2-.4.2-.1.1-.2.1-.2.1l7.2 13.3 15.7 29.1zM201 282.9l-6.4-10.4s-.3.2-.5.3c-.3.2-.5.3-.5.3l6.3 10.5.6-.4c.2-.1.5-.3.5-.3zM212.3 308.1l1.6-.9-14.1-23.6-6.3-10.4-1.1.6 10.1 17.4z"/><path class="st0" d="m202.5 291.2-10.1-17.4s-.1 0-.2.1-.2.1-.4.2c-.3.2-.5.3-.5.3l9.8 17.5s.3-.2.7-.4c.2-.1.3-.2.5-.3h.2zM201.1 310.2l1.6-.8-8.5-17.6-7.3-15.1-1.1.5 9.5 20.4zM159.5 299.5l-1.3-14.9s-.3 0-.6.1H157l3.5 47.9h.3c.2 0 .4 0 .7-.1.5 0 1-.1 1-.1l-3-32.9zM164.9 306.5l-3-22.3s-.3 0-.6.1c-.3 0-.6.1-.6.1l2.7 22.3s.4 0 .8-.1c.3-.1.7-.1.7-.1zM161 299.3l-1.5-14.8H158.9c-.3 0-.6.1-.6.1l1.3 14.9s.4 0 .7-.1h.5c.1-.1.2-.1.2-.1z"/><path class="st0" d="m163.8 326.5 1.9-.2-2.3-19.6-2.7-22.3-1.2.1 1.5 14.8zM181.4 306.5l-7.3-24.9-.6.2-.6.2 6.9 25 .8-.2c.4-.2.8-.3.8-.3zM167.1 300.4l-2.7-16.5s-.3.1-.6.1c-.3.1-.6.1-.6.1l2.5 16.6s.4 0 .7-.1c.4-.2.7-.2.7-.2zM193.1 331.9s.5-.2 1-.3c.2-.1.5-.2.7-.2.2-.1.3-.1.3-.1L184.4 300l-6.6-19.4s-.1 0-.2.1c-.1 0-.3.1-.4.1l-.6.2 5.1 15.8 11.4 35.1zM186.6 324.2l1.8-.5-8.2-26.6-4.9-15.8-1.2.3 7.3 24.9zM193.2 309.8l-12-30.6-1.2.5 11.6 30.7z"/><path class="st0" d="M195.9 327.5s.5-.2.9-.3c.5-.2.9-.4.9-.4l-6.2-16.4-11.5-30.7-.6.2-.6.2 6.9 19.3 10.2 28.1z"/><path class="st0" d="m185.8 299.3-6.9-19.2-1.2.4 6.6 19.4zM181.6 296.7l-5.1-15.8-.6.2c-.1 0-.3.1-.4.1-.1 0-.2.1-.2.1l4.9 15.8s.1 0 .2-.1c.1 0 .3-.1.5-.2.4 0 .7-.1.7-.1zM169.8 298.3l-2.9-14.9-1.3.2 2.7 14.9z"/><path class="st0" d="m172 329.8 1-.2c.2 0 .5-.1.7-.1.2 0 .3-.1.3-.1l-5.6-30.9-2.7-14.9h-.2c-.1 0-.3 0-.4.1-.3.1-.6.1-.6.1l2.7 16.5 4.8 29.5zM185.7 336.2l2-.6-7.9-28.6-6.9-25-1.2.3 3.1 11.8zM176.1 330.8l1-.2 1-.2-5.8-27.6-4.2-19.7s-.3.1-.6.1c-.3.1-.6.1-.6.1l2.9 14.9 6.3 32.6z"/><path class="st0" d="m174.8 294.1-3.1-11.8s-.1 0-.2.1c-.1 0-.3.1-.4.1-.3.1-.6.1-.6.1l2.9 11.9s.3-.1.7-.2c.2 0 .3-.1.5-.1.1-.1.2-.1.2-.1zM178.1 321.6s.5-.1.9-.2.9-.2.9-.2l-6.5-26.7-2.9-11.9s-.3.1-.6.1c-.3.1-.6.1-.6.1l4.5 19.6 4.3 19.2z"/><path class="st0" d="m173.8 302.5-4.5-19.6-1.2.2 4.1 19.7zM166.8 320.2l1.7-.3-2.8-19.3-2.5-16.6-1.3.2 3 22.3zM130.2 297.7l3.1-14.6-1.2-.2-10.7 46.8 2 .4zM133.3 306l3.7-22.2s-.3-.1-.6-.1c-.2 0-.3 0-.4-.1h-.2l-4 22.1h.2c.1 0 .3.1.5.1.4.2.8.2.8.2zM131.7 298l2.9-14.6s-.3-.1-.6-.1c-.3-.1-.6-.1-.6-.1l-3.1 14.6s.4.1.7.2h.7z"/><path class="st0" d="m126.4 324.9 1.8.3 3.6-19.4 3.9-22.2-1.2-.2-2.8 14.6zM149.1 310.9l.4-25.9h-1.2l-.8 25.9H149.1zM137.2 300.8l2.2-16.6-1.2-.2-2.5 16.6zM152.7 338.5h2l-1-33.1-.6-20.5H151.9l.2 16.6.6 37z"/><path class="st0" d="M148.8 329.3h1.9V285l-1.3-.1-.3 26zM159.4 317.5l-2.4-32.8-1.3.1 1.9 32.8z"/><path class="st0" d="M156.7 335.2h1c.5 0 1-.1 1-.1l-1-17.5-1.9-32.8h-1.2l.9 20.4 1.2 30zM155.4 305.3l-.9-20.4h-1.3l.6 20.5zM152.2 301.5l-.2-16.6-1.3.1v16.5zM140.4 299.6l1.5-15.1-1.2-.1-1.8 15z"/><path class="st0" d="M133.3 330.4s.5.1 1 .1c.5.1 1 .1 1 .1l3.7-31.2 1.8-15.1s-.3 0-.6-.1c-.3 0-.6-.1-.6-.1l-2.2 16.6-4.1 29.7zM144.5 340.5l2 .1.9-29.8.8-25.9h-1.3l-.5 12.2zM136.9 332.5h.3c.2 0 .4 0 .7.1.5 0 1 .1 1 .1l2.5-28.1 1.8-20s-.3 0-.6-.1H142l-1.6 15.1-3.5 32.9z"/><path class="st0" d="m146.4 297.1.5-12.2h-1.2L145 297h.7c.3 0 .7.1.7.1zM141.5 324.3l1.8.1L145 297l.7-12.2-1.3-.1-1.5 20.1z"/><path class="st0" d="m142.9 304.8 1.5-20H143.8c-.3 0-.6-.1-.6-.1l-1.8 20s.4 0 .8.1h.7zM131.1 319.6s.4.1.9.1c.4.1.9.1.9.1l2.9-19.3 2.5-16.6s-.3 0-.6-.1-.6-.1-.6-.1l-3.7 22.2-2.3 13.7zM102.8 287.4l7.3-13s-.3-.2-.5-.3c-.1-.1-.3-.2-.4-.2-.1-.1-.2-.1-.2-.1l-24 41.5s.1.1.3.2l.6.3c.4.2.9.5.9.5l16-28.9zM103.3 296.3l10.1-20.1s-.3-.1-.6-.3c-.1-.1-.3-.1-.4-.2-.1-.1-.2-.1-.2-.1l-10.4 20s.1 0 .2.1.3.2.5.3c.4.1.8.3.8.3z"/><path class="st0" d="m104.1 288.1 7.1-13.1s-.1 0-.2-.1-.2-.1-.4-.2c-.3-.2-.5-.3-.5-.3l-7.3 13 .6.4c.2.1.3.2.4.2.2.1.3.1.3.1z"/><path class="st0" d="m91.1 312.2 1.6.9 9.2-17.6 10.3-19.9-1.1-.6-7 13.1zM116.9 305.6l8-24.7-.6-.2c-.1 0-.3-.1-.4-.1-.1 0-.2-.1-.2-.1l-8.4 24.5s.1 0 .2.1c.1 0 .3.1.5.2.5.1.9.3.9.3zM108.5 292.5l7.1-15.3-1.1-.5-7.3 15.1zM112.3 333.1s.5.1 1 .3c.5.1 1 .3 1 .3l8.8-31.9 5.4-19.7-.6-.2-.6-.2-4.6 15.9-10.4 35.5z"/><path class="st0" d="M111.2 323.1s.5.1.9.3c.2.1.5.1.6.2.2.1.3.1.3.1l8.2-26.5 4.9-15.8s-.1 0-.2-.1c-.1 0-.3-.1-.4-.1l-.6-.2-8 24.7-5.7 17.4zM124.8 314.9l7.3-32s-.3-.1-.6-.1c-.3-.1-.6-.1-.6-.1l-7.8 31.9.8.2c.5 0 .9.1.9.1z"/><path class="st0" d="M117 331.1s.1 0 .3.1c.2 0 .4.1.7.2l1 .2 4.1-17 7.8-31.9s-.3-.1-.6-.1c-.2 0-.3-.1-.4-.1-.1 0-.2-.1-.2-.1l-5.1 19.8-7.6 28.9zM124.5 302.1l5.2-19.8-1.2-.3-5.5 19.7zM122.6 297.5l4.7-15.9-1.2-.3-4.9 15.8zM111.9 292.2l6-13.9-1.2-.5-6.1 13.8z"/><path class="st0" d="M96 319.5s.4.2.9.4l.6.3c.2.1.3.1.3.1l12.8-28.7 6.2-13.9s-.1 0-.2-.1c-.1 0-.3-.1-.4-.2-.3-.1-.6-.3-.6-.3l-7.1 15.2L96 319.5zM103.7 332.5l2 .7 9.6-28.2 8.4-24.5-1.2-.4-4.1 11.5zM98.9 322.7s.1 0 .3.1l.6.3c.5.2.9.4.9.4l10.7-26.1 7.6-18.6-.6-.2c-.1-.1-.3-.1-.4-.2-.1 0-.2-.1-.2-.1l-6 13.9-12.9 30.5z"/><path class="st0" d="m118.4 291.6 4.1-11.5-.6-.2-.6-.2-4.3 11.4s.3.1.7.3c.4.1.7.2.7.2z"/><path class="st0" d="m105.7 316.1 1.7.7 9.7-25.7 4.2-11.4-1.1-.5-7.4 18.7zM112.8 297.9l7.3-18.7s-.1 0-.2-.1c-.1 0-.3-.1-.4-.2l-.6-.2-7.6 18.6s.4.1.7.3c.2.1.4.1.5.2.2.1.3.1.3.1zM97.1 308.6l1.6.8 8.5-17.6 7.3-15.1-1.2-.5-10 20.1zM79.5 269.5l10.8-10.3-.1-.1-.3-.3c-.2-.2-.4-.5-.4-.5l-35.2 32.6s.3.4.7.7c.2.2.3.4.5.5l.2.2 23.8-22.8zM77.4 278.1 93 261.8l-.9-.9L76.3 277z"/><path class="st0" d="M80.6 270.5 91.2 260l-.9-.8-10.8 10.3zM61.1 289.7l.7.7.7.7L76.3 277l15.8-16-.4-.4-.4-.4-10.6 10.5-19.6 19zM87.7 290.9l14.9-21.2s-.3-.2-.5-.4c-.3-.2-.5-.4-.5-.4l-15.3 21s.3.2.7.5c.4.3.7.5.7.5zM83.6 276l11.2-12.5-.1-.1-.3-.3c-.2-.2-.5-.4-.5-.4L82.5 275l.5.5c.1.1.3.3.4.3l.2.2zM75.1 315.9s.4.3.9.6c.2.1.4.3.6.4.2.1.3.2.3.2l17.9-27.9 11-17.2-1-.7-9.2 13.7-20.5 30.9zM77.1 306l1.6 1.1 15.6-22.9 9.4-13.7-1.1-.7-14.9 21.1zM92.5 302.2l16.5-28.4-1.1-.6L91 301.3z"/><path class="st0" d="M80.3 315.3s.4.3.9.5c.4.3.9.5.9.5l9-15.1L108 273s-.3-.2-.5-.3c-.3-.2-.5-.3-.5-.3l-11 17.5-15.7 25.4zM96 289.9l10.8-17.4-1-.7-11.1 17.3zM95.6 285l9.1-13.8s-.3-.2-.5-.3c-.1-.1-.3-.2-.4-.2-.1-.1-.2-.1-.2-.1l-9.4 13.7s.1.1.2.1c.1.1.3.2.4.3.4.1.8.3.8.3zM86.9 276.7l9.8-11.6s-.2-.2-.5-.4l-.3-.3-.1-.1-10 11.4.2.2c.1.1.2.2.4.3.2.3.5.5.5.5z"/><path class="st0" d="m63.7 298.1 1.4 1.3 20.7-23.6 10-11.5-1-.8L83.6 276zM67.2 312.8s.1.1.3.2c.2.1.4.3.6.4l.8.6 17.5-24 15.3-21s-.3-.2-.5-.4c-.1-.1-.3-.2-.3-.3-.1-.1-.2-.1-.2-.1l-7.3 9.8-26.2 34.8zM65.5 302l.8.6c.2.2.4.3.5.4l.2.2 17.9-21.8L97.7 266s-.1 0-.2-.1l-.3-.3c-.2-.2-.5-.4-.5-.4l-9.8 11.6L65.5 302zM93.3 278l7.3-9.7-1-.8-7.5 9.7z"/><path class="st0" d="M73.9 297.7s.4.3.7.6c.4.3.7.6.7.6l16.8-21.7 7.5-9.7s-.2-.2-.5-.4c-.2-.2-.5-.4-.5-.4l-12.5 15.7-12.2 15.3z"/><path class="st0" d="m86.1 282.4 12.5-15.7-.9-.7-12.8 15.5zM67.9 288l.2.2c.1.1.3.3.5.4.3.3.7.6.7.6l13.3-14.3L94 262.6s-.2-.2-.5-.4l-.3-.3-.1-.1-15.5 16.3-9.7 9.9zM62.6 245.5l13.4-6.7-.6-1.1-43.2 20.8.9 1.8zM58.1 253.1l19.6-11s-.2-.3-.3-.5c-.1-.1-.2-.3-.2-.4-.1-.1-.1-.2-.1-.2l-19.8 10.7s0 .1.1.2.2.3.3.5c.2.3.4.7.4.7z"/><path class="st0" d="m63.3 246.8 13.2-6.9s0-.1-.1-.2-.1-.2-.2-.4c-.1-.3-.3-.6-.3-.6l-13.3 6.7s.2.3.3.7c.1.2.2.3.2.4.2.2.2.3.2.3z"/><path class="st0" d="m39.1 259.4.8 1.7 17.4-9.4L77.1 241l-.6-1.1-13.2 6.9zM64.1 268.4l20.5-15.9-.7-1-20.8 15.6zM64.6 252.9l14.4-8.6-.7-1.1-14.5 8.4zM44.8 288.5l.2.2.5.5c.3.4.7.8.7.8l25.3-21.4L87 255.4s-.2-.2-.4-.5l-.3-.3c-.1-.1-.1-.2-.1-.2L73.4 265l-28.6 23.5zM49.6 279.7l.6.8c.3.4.6.7.6.7l21.7-17.3 13-10.3s-.2-.2-.4-.5c-.2-.2-.4-.5-.4-.5l-20.5 15.9-14.6 11.2zM65.4 280.6l24.1-22.3s-.2-.2-.4-.5l-.3-.3-.1-.1-24.4 22 .2.2.4.4c.2.3.5.6.5.6zM49.9 289.5l1.3 1.5 13-11.7 24.4-22-.8-.9-15.4 13.4z"/><path class="st0" d="m72.4 269.8 15.4-13.5-.1-.1-.3-.3c-.2-.2-.4-.5-.4-.5l-15.6 13.2s.3.3.5.6c.1.1.3.3.3.4.1.2.2.2.2.2zM73.4 265l12.8-10.5-.8-1-13 10.3zM67.5 254.6l12.8-8.2-.7-1.1-12.9 8z"/><path class="st0" d="M39 268.2s.2.4.5.8.5.8.5.8l26.7-16.5 12.9-8s-.2-.3-.3-.5c-.2-.3-.3-.5-.3-.5l-14.4 8.6L39 268.2zM38.1 283.3l.6.8c.2.2.3.4.4.6.1.2.2.3.2.3l23.8-17.9 20.7-15.6s0-.1-.1-.2l-.3-.3c-.2-.3-.4-.5-.4-.5l-9.9 7.2-35 25.6zM39.6 272.4l1.1 1.7 23.5-15.6L81 247.4l-.7-1-12.8 8.2z"/><path class="st0" d="m73.2 257.7 9.9-7.2s-.2-.3-.4-.5-.4-.5-.4-.5l-10 7 .4.6c.3.3.5.6.5.6z"/><path class="st0" d="m48.9 270.8 1.1 1.6 22.4-15.9 10-7-.7-1-16.6 11.3z"/><path class="st0" d="m65.1 259.8 16.6-11.3s0-.1-.1-.2-.2-.2-.2-.4c-.2-.3-.3-.5-.3-.5l-16.8 11.1.4.6c.1.2.2.3.3.4 0 .2.1.3.1.3zM46.1 259.8l.4.8c.1.2.2.4.3.5.1.1.1.2.1.2l16.9-9.8 14.5-8.4s0-.1-.1-.2-.1-.2-.2-.4c-.2-.3-.3-.5-.3-.5l-19.6 11-12 6.8zM53.6 217.6l14.7-2.4s-.1-.3-.1-.6c-.1-.3-.1-.6-.1-.6l-47.4 7 .2 1 .2 1 32.5-5.4zM47 223.5l22-4.7s-.1-.3-.1-.6c-.1-.3-.1-.6-.1-.6l-22.1 4.3s.1.4.1.8l.2.8z"/><path class="st0" d="m53.8 219 14.7-2.6v-.2c0-.1 0-.3-.1-.4-.1-.3-.1-.6-.1-.6l-14.7 2.4s.1.4.1.7c0 .2.1.4.1.5v.2z"/><path class="st0" d="m26.9 223.9.4 1.8 19.4-3.8 22-4.3-.2-1.2-14.7 2.6zM48.2 239.9l24.3-9.1-.2-.6-.2-.6-24.4 8.8s.1.4.3.8c.1.3.2.7.2.7zM53.3 225.2l16.3-4s-.1-.3-.1-.6c-.1-.3-.1-.6-.1-.6l-16.3 3.7s.1.4.2.7c-.1.5 0 .8 0 .8zM23.8 253.4l.4 1c.1.2.2.5.3.7.1.2.1.3.1.3l30.5-13 18.8-8s0-.1-.1-.2c0-.1-.1-.3-.2-.4l-.2-.6-15.3 6.3-34.3 13.9z"/><path class="st0" d="m31 246.4.6 1.8L57.5 238l15.4-6-.4-1.2-24.3 9.1zM45.8 251.9l29.6-14.2-.5-1.2-29.8 13.9zM28.4 255.9s.1.1.1.3l.3.6c.2.5.4.9.4.9l15.9-7.4 29.8-13.8s-.1-.3-.3-.6c-.1-.1-.1-.3-.2-.4 0-.1-.1-.2-.1-.2l-18.7 8.3-27.2 12.3z"/><path class="st0" d="m55.7 243.7 18.7-8.3-.5-1.1-18.8 8zM58.1 239.4l15.3-6.3-.2-.6c-.1-.1-.1-.3-.2-.4 0-.1-.1-.2-.1-.2L57.5 238s0 .1.1.2.1.3.2.5c.1.4.3.7.3.7zM55.6 227.7l14.6-4-.4-1.2-14.6 3.8z"/><path class="st0" d="M24.3 232.3s.1.5.2.9c.1.2.1.5.2.7 0 .2.1.3.1.3l30.4-7.9 14.7-3.8s0-.1-.1-.2c0-.1-.1-.3-.1-.4-.1-.3-.1-.6-.1-.6l-16.3 4-29 7zM18.9 246.4l.7 2 28-10 24.5-8.8-.5-1.2-11.5 4zM23.6 236.5s.1.5.3 1c.1.5.3.9.3.9l27.1-7.9 19.3-5.6-.2-.6-.2-.6-14.6 4-32 8.8z"/><path class="st0" d="m60.1 232.4 11.6-3.9s0-.1-.1-.2c0-.1-.1-.3-.1-.4l-.2-.6-11.7 3.7s.1.3.2.7c.1.2.1.3.2.5.1.1.1.2.1.2z"/><path class="st0" d="M33 237.8s0 .1.1.3c.1.2.1.4.2.6.1.4.3.9.3.9l26.1-8.5 11.6-3.8-.2-.6c0-.1-.1-.3-.1-.4 0-.1-.1-.2-.1-.2L51.7 232 33 237.8zM51.7 232l19.2-5.9-.4-1.2-19.3 5.6zM33.5 226.3l.4 1.8 19-4.3 16.4-3.7-.3-1.3-22 4.7zM53.1 188.2l14.8 2 .2-1.2-47.4-7.1-.3 1.9zM45.1 191.9l22.4 2s0-.3.1-.6V192.7l-22.4-2.3v.7c0 .4-.1.8-.1.8zM53 189.7l14.8 1.8s0-.3.1-.6c0-.3.1-.6.1-.6l-14.8-2s-.1.4-.1.7c-.1.3-.1.7-.1.7z"/><path class="st0" d="m25.8 186.4-.2 1.9 19.7 2.1 22.3 2.3.2-1.3-14.8-1.7zM41.4 208l25.9-1.5v-1.2l-25.9 1.1v1.6zM50.6 195.4l16.7 1 .1-1.2-16.7-1.3zM14.1 213.7s0 .5.1 1c0 .3 0 .5.1.7v.3l32.9-3.4 20.3-2.1V209.6c0-.3-.1-.6-.1-.6L51 210.4l-36.9 3.3zM23.1 209.1l.1 1.9 27.7-2.1 16.5-1.2-.1-1.2-25.9 1.5zM35.6 218.8l32.5-4.9-.2-1.2-32.5 4.4zM17.7 217.4s.1.5.1 1c.1.5.1 1 .1 1l17.4-2.3 32.5-4.4s0-.3-.1-.6c0-.3-.1-.6-.1-.6l-20.3 2.4-29.6 3.5z"/><path class="st0" d="m47.5 213.9 20.3-2.5-.2-1.2-20.3 2.1zM51 210.4l16.5-1.5s0-.3-.1-.6V207.7l-16.5 1.2v.7c.1.5.1.8.1.8zM52.1 198.5l15.1.4.1-1.2-15.2-.7z"/><path class="st0" d="M20.8 193.7s0 .5-.1 1v1l31.4 1.4 15.1.7v-1.2l-16.7-1-29.7-1.9zM11.6 205.6v2.1l29.8-1.3 25.9-1.2-.1-1.2-12.2.3zM19 197.5v2l28.2.4 20.1.3V199l-15.2-.4-33.1-1.1zM55 204.3l12.2-.4V202.7l-12.2.2v1.4z"/><path class="st0" d="M27.5 201.4v1.9l27.5-.4 12.2-.2v-1.3H47.1zM47.1 201.4h20.1v-1.2l-20.1-.3zM31.4 190.7s0 .4-.1.9c0 .2 0 .4-.1.6v.3l19.5 1.4 16.7 1.2V194.5c0-.3.1-.6.1-.6l-22.4-2-13.7-1.2zM61.4 160.1l13.5 6.2.5-1.1-43.2-20.8-.8 1.7zM52.6 161.2l20.8 8.5.2-.6c.1-.1.1-.3.2-.4 0-.1.1-.2.1-.2l-20.7-8.8s0 .1-.1.2-.1.3-.2.5c-.2.5-.3.8-.3.8z"/><path class="st0" d="m60.7 161.4 13.6 6.1s0-.1.1-.2c0-.1.1-.3.2-.4.1-.3.3-.6.3-.6L61.4 160s-.2.3-.3.7c-.1.2-.2.3-.2.5l-.2.2z"/><path class="st0" d="M35.8 150.3 35 152l18.2 7.8 20.7 8.8.5-1.1-13.7-6.1zM44.3 175.5l25.2 6.1s.1-.3.1-.6c0-.2.1-.3.1-.4 0-.1.1-.2.1-.2l-25.1-6.5s0 .1-.1.2c0 .1-.1.3-.1.5-.1.5-.2.9-.2.9zM56.8 166.2l15.7 5.9.4-1.2-15.6-6.1zM16.6 173l-.2 1-.2 1 32.5 6.4 20.1 3.9s.1-.3.1-.6c.1-.3.1-.6.1-.6l-16.2-3.4-36.2-7.7zM26.5 171.1s-.1.5-.2.9c-.1.5-.2.9-.2.9l27.1 6.2 16.2 3.7s.1-.3.1-.6c.1-.3.1-.6.1-.6l-25.2-6.1-17.9-4.4zM35.6 184.1l32.5 4.9s0-.3.1-.6.1-.6.1-.6l-32.4-5.3s-.1.4-.1.9c-.1.3-.2.7-.2.7z"/><path class="st0" d="M18.9 177.6s0 .1-.1.3c0 .2-.1.4-.1.7l-.2 1 17.3 2.9 32.4 5.3s.1-.3.1-.6c0-.2.1-.3.1-.4v-.2L48.3 183l-29.4-5.4zM48.4 182.9l20.1 3.6.2-1.2-20-4zM52.8 180.6 69 184l.3-1.2-16.2-3.6zM57.3 169.5l14.3 4.9.5-1.1-14.3-5.2zM28.9 155.7s-.2.5-.3.9c-.2.5-.3.9-.3.9l29.6 10.6 14.3 5.1.2-.6.2-.6-15.7-5.9-28-10.4zM16.5 164.4l-.6 2 28.8 7.5 25.1 6.5.4-1.2-11.8-3.2z"/><path class="st0" d="M25.9 158.8s0 .1-.1.3c-.1.2-.1.4-.2.6-.2.5-.3.9-.3.9l26.8 8.7 19.1 6.2.2-.6c0-.1.1-.3.1-.4 0-.1.1-.2.1-.2l-14.4-4.9-31.3-10.6zM58.4 176l11.8 3.2.2-.6.2-.6-11.7-3.4s-.1.3-.2.7c-.2.3-.3.7-.3.7z"/><path class="st0" d="m33 165.1-.6 1.8 26.4 7.7 11.7 3.4.4-1.2-19.2-5.9z"/><path class="st0" d="m51.7 170.9 19.2 5.9s0-.1.1-.2c0-.1.1-.3.1-.4l.2-.6-19.1-6.2s-.1.4-.2.7c-.1.2-.1.4-.2.5-.1.2-.1.3-.1.3zM39.8 156s-.2.4-.3.8c-.1.2-.2.4-.2.6-.1.2-.1.3-.1.3l18.2 7.1 15.6 6.1s0-.1.1-.2c0-.1.1-.3.2-.4l.2-.6-20.8-8.5-12.9-5.2zM77.5 135.6l11.1 10 .1-.1.3-.3c.2-.2.4-.5.4-.5L54.3 112s-.3.4-.7.7c-.2.2-.3.4-.5.5l-.2.2 24.6 22.2zM68.8 134.1l17.4 14.3s0-.1.1-.2l.3-.3c.2-.2.4-.5.4-.5l-17.2-14.6s-.3.3-.5.6c-.1.2-.3.3-.4.4 0 .2-.1.3-.1.3z"/><path class="st0" d="m76.6 136.7 11.2 9.8.8-.9-11.1-10zM56 118.7l-.2.2c-.1.1-.3.3-.4.5-.3.4-.6.7-.6.7l15.1 12.8L87 147.5s.2-.2.4-.5l.3-.3.1-.1-11.2-9.8L56 118.7zM56.7 145.3 79 158.6s.2-.3.3-.5c.2-.3.3-.5.3-.5l-22.1-13.7s-.2.3-.4.7c-.2.3-.4.7-.4.7zM71.4 140.1l13.3 10.3s.2-.2.4-.5c.2-.2.4-.5.4-.5l-13.1-10.5s-.2.3-.5.6-.5.6-.5.6zM31 134.6s-.2.4-.5.9c-.1.2-.3.4-.3.6-.1.2-.2.3-.2.3l29.2 15.7 18 9.7s0-.1.1-.2.1-.2.2-.4c.2-.3.3-.5.3-.5l-14.5-8.1-32.3-18z"/><path class="st0" d="m40.9 135.8-.9 1.7 24 13.9 14.3 8.3.7-1.1-22.3-13.3zM45.8 150.9l29.6 14.3.6-1.1-29.4-14.7zM31.8 139.7s-.1.1-.1.3l-.3.6c-.2.4-.4.9-.4.9l15.7 7.9L76 164.1s.1-.3.3-.6c.1-.1.1-.3.2-.4.1-.1.1-.2.1-.2l-18.2-9.4-26.6-13.8z"/><path class="st0" d="m58.4 153.5 18.1 9.5.6-1.1-18-9.7zM63.3 152.7l14.5 8.1s.2-.3.3-.5c.1-.1.2-.3.2-.4.1-.1.1-.2.1-.2L64 151.4s0 .1-.1.2-.2.3-.3.4c-.2.4-.3.7-.3.7zM70.9 143.4l12.3 8.9s.2-.3.4-.5c.1-.1.2-.3.3-.3.1-.1.1-.2.1-.2l-12.1-9.1s-.1.1-.1.2c-.1.1-.2.3-.3.4-.4.3-.6.6-.6.6z"/><path class="st0" d="m47.8 121.9-1.2 1.5 25.1 18.9 12.2 9.1.7-1-13.2-10.3zM33.4 126.5l-1.1 1.7 25.3 15.7 22 13.7.7-1.1-10.3-6.6zM44.1 124l-.6.8-.6.8 23 16.3 16.4 11.6s.2-.3.4-.5c.2-.3.4-.5.4-.5l-12.3-8.9L44.1 124z"/><path class="st0" d="m70 149.9 10.3 6.6.7-1-10.2-6.8zM48.9 132l-.2.2c-.1.1-.2.3-.4.5-.3.4-.5.8-.5.8l22.9 15.1 10.2 6.7s.2-.3.3-.5c.1-.1.2-.3.2-.4.1-.1.1-.2.1-.2l-16.6-11.3-16-10.9z"/><path class="st0" d="m65.1 143.1 16.6 11.3.7-1L66 141.8zM58.2 125.4l-1.2 1.3 15.3 12.2 13.1 10.5.8-1-17.4-14.3zM100.2 116.9l7.7 12.8 1.1-.6-24.1-41.5-1.7 1zM92.3 113l12.4 18.7 1.1-.7-12.2-18.9zM99 117.7l7.9 12.7s.3-.2.5-.3c.3-.2.5-.3.5-.3l-7.7-12.8-.6.4c-.3.1-.6.3-.6.3z"/><path class="st0" d="m84.6 94.4-1.6 1 10.6 16.7 12.2 18.9 1-.6-7.8-12.7zM77.5 120.1l17.3 19.3 1-.9L78.7 119zM93 119.4l9.6 13.7 1.1-.7-9.5-13.8zM55.9 102.3l-1.4 1.5 23.2 23.6 14.4 14.5.9-.8-11.5-12zM65.1 106.4l-.2.2c-.1.1-.3.3-.5.4-.4.3-.7.7-.7.7l18.9 20.4 11.3 12.2s.2-.2.5-.4l.3-.3.1-.1-17.4-19.3-12.3-13.8zM65.4 122.3l24.1 22.3s.2-.2.4-.5l.3-.3.1-.1L66.6 121l-.2.2-.4.4c-.3.4-.6.7-.6.7z"/><path class="st0" d="m55.3 107.5-1.4 1.4L66.6 121l23.7 22.7.9-.9-14.6-14.3z"/><path class="st0" d="m76.6 128.5 14.6 14.4.4-.4.4-.4-14.4-14.6s-.3.3-.6.5c-.1.2-.4.5-.4.5zM81.5 129.1l11.5 12 .1-.1.3-.3c.2-.2.5-.4.5-.4l-11.3-12.2-.5.5-.4.4c-.1 0-.2.1-.2.1zM91.5 122.5l9.1 12.1s.1 0 .2-.1l.3-.3c.3-.2.5-.4.5-.4l-8.9-12.3-.6.4c-.1.1-.3.2-.4.3-.1.2-.2.3-.2.3z"/><path class="st0" d="m75.8 95.1-.8.6-.8.6 18.5 25.4 8.9 12.3s.3-.2.5-.4.5-.4.5-.4L93 119.4 75.8 95.1zM60.7 95.3s-.4.3-.8.7c-.2.2-.4.3-.5.5l-.2.2L78.7 119l17.1 19.5.1-.1.3-.3c.2-.2.5-.4.5-.4l-7.9-9.3-28.1-33.1zM71.6 96l-1.5 1.2 17.2 22.3 12.3 15.9 1-.8-9.1-12.1z"/><path class="st0" d="m88.8 128.4 7.9 9.3s.2-.2.5-.4l.3-.3c.1-.1.2-.1.2-.1l-7.8-9.4s-.1.1-.2.1c-.1.1-.2.2-.4.3-.2.3-.5.5-.5.5z"/><path class="st0" d="m73.9 105.1-1.4 1.2 17.4 21.2 7.8 9.4.9-.8-12.5-15.7z"/><path class="st0" d="m86.1 120.4 12.5 15.7s.2-.2.5-.4c.2-.2.5-.4.5-.4l-12.3-15.9s-.3.2-.6.5-.6.5-.6.5zM84.7 101.5s-.4.2-.7.5c-.2.1-.4.2-.5.3l-.2.2 11 16.1 9.5 13.8s.1 0 .2-.1.2-.2.4-.2c.3-.2.5-.3.5-.3L92.3 113l-7.6-11.5zM127.3 105.8l3.5 14.5s.3-.1.6-.1c.3-.1.6-.1.6-.1l-10.6-46.8-1 .2-1 .2 7.9 32.1zM121 99.7l6.3 21.6.6-.2.6-.2-6-21.7-.8.2c-.4.2-.7.3-.7.3z"/><path class="st0" d="m125.9 106.2 3.7 14.4s.1 0 .2-.1c.1 0 .3-.1.4-.1.3-.1.6-.1.6-.1l-3.5-14.5s-.4.1-.7.2c-.2 0-.4.1-.5.1-.1 0-.2.1-.2.1z"/><path class="st0" d="m119.1 79.7-1.9.5 5.3 19 6 21.7 1.2-.3-3.8-14.4zM104.7 102.1l10.9 23.5s.3-.1.6-.3c.1-.1.3-.1.4-.2.1 0 .2-.1.2-.1l-10.6-23.7s-.1 0-.2.1-.3.1-.5.2c-.5.3-.8.5-.8.5zM119.7 106l5.2 15.9.6-.2c.1 0 .3-.1.4-.1.1 0 .2-.1.2-.1l-4.9-16s-.1 0-.2.1c-.1 0-.3.1-.5.2l-.8.2zM89.3 78.8s-.5.2-.9.5c-.2.1-.5.2-.6.3-.2.1-.3.1-.3.1l15.3 29.4 9.4 18.2s.1 0 .2-.1.2-.1.4-.2c.3-.1.6-.3.6-.3l-7.4-14.8-16.7-33.1zM96.9 85.4l-1.7.8 12.1 25 7.2 15 1.1-.6-10.9-23.5zM92.5 100.7l16.4 28.4s.1 0 .2-.1.2-.1.4-.2c.3-.2.5-.3.5-.3L94 99.8l-.8.4c-.2.1-.4.2-.5.3l-.2.2z"/><path class="st0" d="M87.2 83.5s-.1.1-.3.1l-.6.3c-.4.2-.9.5-.9.5L94 99.8l16 28.7s.3-.2.5-.3c.1-.1.3-.2.4-.2.1-.1.2-.1.2-.1l-9.7-18-14.2-26.4z"/><path class="st0" d="m101.4 109.9 9.7 18 1.1-.6-9.4-18.2zM105.9 111.9l7.4 14.8 1.2-.5-7.2-15zM117.4 108.5l5.1 14.3 1.2-.4-4.9-14.4z"/><path class="st0" d="M110.5 77.7s-.5.2-.9.3c-.2.1-.5.2-.6.2-.2.1-.3.1-.3.1l10.1 29.7 4.9 14.4s.1 0 .2-.1c.1 0 .3-.1.4-.1l.6-.2-5.2-15.9-9.2-28.4zM96 73.4l-1.9.9 12.1 27.1 10.5 23.7 1.2-.5-4.8-11.2zM106.2 77.3s-.5.2-.9.3c-.5.2-.9.3-.9.3l9.9 26.4 7.1 18.8.6-.2.6-.2-5.1-14.3-11.3-31.1z"/><path class="st0" d="m113.1 113.4 4.8 11.2s.1 0 .2-.1c.1 0 .3-.1.4-.2l.6-.2-4.6-11.3s-.3.1-.7.3c-.2.1-.3.1-.5.2-.1.1-.2.1-.2.1z"/><path class="st0" d="M105.7 86.7s-.1 0-.3.1c-.2.1-.4.2-.6.2-.4.2-.9.3-.9.3l10.4 25.4 4.6 11.3.6-.2c.1-.1.3-.1.4-.2.1 0 .2-.1.2-.1l-7.3-18.7-7.1-18.1z"/><path class="st0" d="m112.8 105 7.4 18.7 1.1-.5-7-18.8zM117.1 86.4l-1.7.5 5.7 18.7 5 16 1.2-.3-6.3-21.6zM156.6 103.2l-.9 14.9 1.3.1 3.5-47.9-2-.1zM152.3 95.5 152 118h1.2l.7-22.5h-1.6zM155.1 103.1l-.7 14.9h1.2l.9-14.9h-1.4z"/><path class="st0" d="m156.3 75.8-1.9-.1-.5 19.8-.7 22.5h1.3l.6-14.9zM136 93l3.4 25.7s.3 0 .6-.1c.3 0 .6-.1.6-.1l-3.1-25.8s-.4 0-.8.1c-.3.1-.7.2-.7.2zM149.2 101.2l.2 16.7h1.3v-16.7zM128.3 66.2l-1 .2c-.3 0-.5.1-.7.1-.2 0-.3.1-.3.1l5.9 32.6 3.6 20.1h.2c.1 0 .3 0 .4-.1.3-.1.6-.1.6-.1l-2.7-16.4-6-36.5z"/><path class="st0" d="m133.5 74.7-1.8.3 4.1 27.5 2.4 16.4 1.2-.2L136 93zM124.8 88l7.3 32 1.2-.3-6.8-32.1z"/><path class="st0" d="m124.8 70-1 .2-1 .2 3.6 17.2 6.8 32.1s.3-.1.6-.1c.3-.1.6-.1.6-.1l-3.9-20.1-5.7-29.4zM130.6 99.4l3.9 20.1 1.2-.2-3.6-20.2zM134.3 102.7 137 119s.3-.1.6-.1c.3-.1.6-.1.6-.1l-2.5-16.4s-.4 0-.7.1c-.4.1-.7.2-.7.2zM146.3 102.9l.6 15.1h1.3l-.5-15.2z"/><path class="st0" d="M148.8 71.4h-2l.9 31.4.4 15.2H149.3l-.2-16.8-.3-29.8zM136.2 63l-2.1.2 3.5 29.6 3.1 25.7 1.2-.1-1.2-12.2zM144.8 69.8h-1c-.5 0-1 .1-1 .1l1.7 28.1 1.2 20.1h1.2l-.7-15.1-1.4-33.2zM140.7 106.2l1.3 12.1H142.6c.3 0 .6-.1.6-.1l-1.1-12.2s-.4 0-.7.1h-.5c-.1.1-.2.1-.2.1z"/><path class="st0" d="M141.5 78.6h-.3c-.2 0-.4 0-.6.1-.5 0-.9.1-.9.1l2.4 27.4 1.1 12.2s.3 0 .6-.1H144.4l-1.5-20-1.4-19.7z"/><path class="st0" d="m142.9 98.1 1.5 20.1 1.3-.1-1.2-20.1zM152.5 81.7l-1.8-.1v36.3h1.3l.3-22.4zM185.3 109.3l-5.3 13.9 1.2.5L198.7 79l-1.8-.7zM183.5 100.6l-6.9 21.4.6.2c.1 0 .3.1.4.1.1 0 .2.1.2.1l7.3-21.3s-.1 0-.2-.1c-.1 0-.3-.1-.5-.2-.6-.1-.9-.2-.9-.2z"/><path class="st0" d="m183.9 108.8-5 14 .6.2.6.2 5.2-14s-.3-.1-.7-.3c-.3 0-.7-.1-.7-.1zM193.1 83l-1.7-.6-6.4 18.7-7.3 21.3 1.2.4 5-14zM168.6 93.5l-4.2 25.6s.3.1.6.1c.2 0 .3.1.4.1h.2l4.6-25.5h-.3c-.2 0-.4-.1-.6-.1-.3-.2-.7-.2-.7-.2zM178.8 105.2l-4.7 16.1 1.2.3 5-16zM169.1 65.6s-.5-.1-1-.1c-.5-.1-1-.1-1-.1l-3.9 32.9-2.4 20.3s.3 0 .6.1c.3 0 .6.1.6.1l2.2-16.4 4.9-36.8z"/><path class="st0" d="M171.6 75.3s-.5-.1-.9-.2c-.5-.1-.9-.1-.9-.1l-4.1 27.5-2.5 16.4s.3 0 .6.1.6.1.6.1l4.2-25.6 3-18.2zM159.4 85.4l-2.4 32.7H157.6c.3 0 .6.1.6.1l2.9-32.7s-.4 0-.9-.1c-.2 0-.4 0-.6-.1-.1.1-.2.1-.2.1zM164.7 68.3h-.3c-.2 0-.4 0-.7-.1-.5 0-1-.1-1-.1l-1.6 17.5-2.9 32.7s.3 0 .6.1H159.4l2.1-20.3 3.2-29.8zM161.6 98l-2.1 20.4 1.2.1 2.4-20.3z"/><path class="st0" d="m164.1 102.2-2.2 16.5 1.3.2 2.4-16.4zM175.5 105.9l-3.8 14.7 1.2.3 4.1-14.6zM187.2 76.6s-.5-.1-.9-.3a4 4 0 0 1-.9-.3l-8.3 30.3-4 14.6.6.2.6.2 4.7-16.1 8.2-28.6zM177.6 64.9l-2.1-.4-5.3 29.2-4.6 25.6 1.3.2 2.3-12zM183.8 73.8s-.1 0-.3-.1c-.2 0-.4-.1-.7-.2l-1-.2-6.7 27.4-4.7 19.5s.3.1.6.1c.2 0 .3.1.4.1.1 0 .2.1.2.1l3.8-14.7 8.4-32z"/><path class="st0" d="m169.2 107.5-2.3 12s.3.1.6.1c.3.1.6.1.6.1l2.5-11.9s-.3-.1-.7-.2c-.3 0-.7-.1-.7-.1zM178.1 81.3l-1.8-.4-5.7 26.9-2.5 11.9 1.2.3 4.5-19.6zM173.8 100.4l-4.5 19.6s.3.1.6.1c.3.1.6.1.6.1l4.7-19.5-.8-.2c-.3 0-.6-.1-.6-.1zM187.7 87.5s-.4-.1-.9-.3c-.2-.1-.4-.1-.6-.2-.2 0-.3-.1-.3-.1l-5.7 18.7-4.9 16s.1 0 .2.1c.1 0 .3.1.4.1l.6.2 6.9-21.4 4.3-13.1zM210.9 123.6l-9.1 11.8s.2.2.5.4c.2.2.5.4.5.4l29.9-37.5-.8-.6-.8-.6-20.2 26.1zM211.7 114.7l-13 18.4s.3.2.5.4c.3.2.5.4.5.4l13.2-18.2s-.3-.2-.6-.5c-.3-.2-.6-.5-.6-.5zM209.7 122.7l-8.9 11.9 1 .8 9.1-11.8z"/><path class="st0" d="m226.1 100.8-.2-.2c-.1-.1-.3-.2-.5-.4l-.8-.6-11.6 16-13.2 18.2s.3.2.5.4c.1.1.3.2.3.3.1.1.2.1.2.1l9-11.9 16.3-21.9zM199.7 103.5 188 126.7s.3.1.6.3c.1.1.3.1.4.2.1.1.2.1.2.1l12-23s-.1 0-.2-.1-.3-.2-.5-.3c-.5-.2-.8-.4-.8-.4zM205.9 117.7l-9.2 14s.3.2.5.3c.1.1.3.2.4.2.1.1.2.1.2.1l9.5-13.8s-.1-.1-.2-.1c-.1-.1-.3-.2-.4-.3-.5-.2-.8-.4-.8-.4zM208.3 77s-.5-.2-.9-.4c-.2-.1-.5-.2-.6-.3-.2-.1-.3-.1-.3-.1L193 106.4l-8.3 18.7s.1 0 .2.1c.1 0 .3.1.4.2.3.1.6.3.6.3l7-15L208.3 77z"/><path class="st0" d="m207.9 87.1-1.7-.9-12.1 25-7.2 15 1.1.5 11.7-23.2zM193.2 93.1l-12 30.6s.1 0 .2.1c.1 0 .3.1.4.2l.6.2 12.5-30.4s-.4-.2-.8-.3c-.2-.1-.4-.2-.6-.2-.2-.2-.3-.2-.3-.2z"/><path class="st0" d="M203.3 78.3s-.1-.1-.3-.1l-.6-.3c-.5-.2-.9-.4-.9-.4l-6.7 16.2-12.5 30.4.6.2c.1.1.3.1.4.2.1 0 .2.1.2.1l8-18.8 11.8-27.5zM191.6 105.8l-8.1 18.8 1.2.5 8.3-18.7zM192.8 110.6l-7 15 1.1.6 7.2-15zM202.6 117.5l-8 12.9 1 .6 8.2-12.7z"/><path class="st0" d="m222.4 92.9-1.7-1.1-16.9 26.5-8.2 12.7 1.1.7 9.2-14zM216.7 78.9l-1.9-1-13.7 26.4-11.9 23 1.1.6 5.8-10.8zM220 89.3s-.4-.3-.8-.5c-.4-.3-.8-.5-.8-.5l-14.5 24.2-10.3 17.2s.3.2.5.3c.3.2.5.3.5.3l8-12.9L220 89.3z"/><path class="st0" d="m196.1 117.1-5.8 10.7s.1 0 .2.1.2.1.4.2c.3.2.5.3.5.3l6-10.7s-.3-.2-.6-.3c-.2-.1-.3-.2-.4-.2-.3 0-.3-.1-.3-.1z"/><path class="st0" d="M212.3 94.7s-.1-.1-.2-.1l-.6-.3c-.4-.2-.8-.5-.8-.5l-13.4 24-6 10.7s.3.2.5.3c.1.1.3.2.4.2.1.1.2.1.2.1l10.1-17.4 9.8-17zM202.5 111.7l-10.1 17.4 1.1.6 10.3-17.2zM219.7 103.5l-1.5-1-11 16.1-9.5 13.8 1 .7 13-18.4zM231.2 144.8l-12.2 8.6.7 1 39.6-27.1-1.1-1.6zM234.6 136.6l-17.8 13.8.7 1 18-13.5z"/><path class="st0" d="m230.3 143.6-12.1 8.8s.2.3.4.5.4.5.4.5l12.2-8.6-.4-.6c-.2-.3-.5-.6-.5-.6z"/><path class="st0" d="m252.4 127.5-.6-.8c-.1-.2-.3-.4-.4-.5l-.2-.2-15.8 11.9-18 13.5s0 .1.1.2l.3.3c.2.3.4.5.4.5l12.1-8.8 22.1-16.1zM226.3 122.3l-17.9 18.8.9.8 18.2-18.4zM228.2 137.8l-13 10.6.8 1 13.1-10.5zM242.4 99.6l-1.5-1.4-21.8 24.9-13.5 15.4 1 .9 11.1-12.3z"/><path class="st0" d="m239.1 109-.2-.2c-.1-.1-.3-.3-.5-.4l-.7-.7-18.9 20.4-11.3 12.2s.2.2.5.4l.3.3.1.1 17.9-18.7 12.8-13.4zM223.2 110.5l-20.5 25.6 1 .8 20.9-25.3zM237.3 99.3l-.8-.6c-.2-.2-.4-.3-.5-.4l-.2-.2-11.1 13.5-20.9 25.4s.1 0 .2.1l.3.3c.2.2.5.4.5.4l13.2-15.6 19.3-22.9z"/><path class="st0" d="m217.9 122.1-13.2 15.6s.2.2.5.4l.3.3.1.1 13.5-15.4-.2-.2c-.1-.1-.3-.2-.4-.3-.3-.2-.6-.5-.6-.5zM217.7 127.1l-11.1 12.3.1.1.3.3c.2.2.5.4.5.4l11.3-12.2-.5-.5c-.1-.1-.3-.3-.4-.3l-.2-.1zM225 136.5l-11.4 10 .1.1.3.3c.2.2.4.5.4.5l11.6-9.8s-.2-.3-.5-.6c-.1-.1-.2-.3-.3-.4-.1 0-.2-.1-.2-.1z"/><path class="st0" d="m251.2 118.8-.2-.2c-.1-.1-.3-.3-.4-.5-.3-.4-.6-.7-.6-.7l-24 20.2-11.6 9.8s.2.2.4.5l.3.3c.1.1.1.2.1.2l12.9-10.7 23.1-18.9zM249.8 103.8l-.7-.7-.7-.7-20.9 21.2-18.2 18.5.4.4.4.4 8.7-8.6 31-30.5zM249.9 114.7l-1.3-1.5-20.9 18.9-14.9 13.5.8.9 11.4-10z"/><path class="st0" d="m218.9 134.3-8.7 8.5.9.9 8.8-8.4zM241 117.7s-.3-.3-.6-.7c-.2-.2-.3-.3-.4-.5l-.2-.2-19.8 19-8.8 8.4.1.1.3.3c.2.2.4.5.4.5l14.7-13.7 14.3-13.2z"/><path class="st0" d="m226.6 131-14.7 13.7s.2.2.4.5l.3.3.1.1 14.9-13.4-.2-.2c-.1-.1-.2-.3-.4-.4-.1-.3-.4-.6-.4-.6zM245.5 128.2s-.3-.4-.5-.7c-.3-.3-.6-.7-.6-.7L229.1 139 216 149.4s.2.2.4.5c.2.2.4.5.4.5l17.8-13.8 10.9-8.4zM244.3 171l-14.2 4.6.2.6c0 .1.1.3.1.4 0 .1.1.2.1.2l45.9-14.1s0-.1-.1-.3c-.1-.2-.1-.4-.2-.6-.2-.5-.3-.9-.3-.9L244.3 171zM250 164.2l-21.1 7.9.2.6.2.6 21.2-7.6s-.1-.4-.3-.7l-.2-.8z"/><path class="st0" d="m243.9 169.6-14.1 4.8s0 .1.1.2c0 .1.1.3.1.4l.2.6 14.2-4.6s-.1-.3-.2-.7c-.1-.2-.1-.3-.2-.5-.1-.1-.1-.2-.1-.2zM269.7 160.8l-.6-1.8-18.6 6.7-21.2 7.6.5 1.1 14.1-4.8zM246.3 148.1l-22.6 12.7s.2.3.3.5c.1.1.2.3.2.4.1.1.1.2.1.2l22.8-12.3s0-.1-.1-.2-.2-.3-.3-.5l-.4-.8zM243.5 163.4l-15.5 6.4.2.6c.1.1.1.3.2.4 0 .1.1.2.1.2l15.6-6.1s0-.1-.1-.2-.1-.3-.2-.5c-.2-.4-.3-.8-.3-.8zM268.4 131.1s-.3-.4-.5-.9c-.3-.4-.5-.9-.5-.9l-28.2 17.4-17.4 10.8s.2.3.3.5c.2.3.3.5.3.5l14.2-8.5 31.8-18.9z"/><path class="st0" d="M262.4 139.2s-.2-.4-.5-.8l-.3-.6c-.1-.2-.2-.3-.2-.3l-24 13.9-14.4 8.3s0 .1.1.2.1.2.2.4c.2.3.3.5.3.5l22.6-12.7 16.2-8.9zM246.8 135.9l-27.1 18.5s0 .1.1.2.2.2.2.4c.2.3.3.5.3.5l27.4-18.1s-.2-.4-.5-.7c-.1-.2-.2-.4-.3-.5 0-.2-.1-.3-.1-.3z"/><path class="st0" d="m263.5 129.3-1.1-1.6-14.6 9.6-27.4 18.2.7 1 17.2-11zM238.3 145.5l-17.2 11 .7 1.1 17.4-10.8zM236.6 150.1l-14.2 8.5.6 1.1 14.4-8.3zM240.9 161.3l-13.9 6.2.5 1.1 14-5.9z"/><path class="st0" d="M271.1 152.1s-.2-.5-.4-.9c-.1-.2-.2-.5-.3-.6-.1-.2-.1-.3-.1-.3l-28.9 12.4-13.9 6s0 .1.1.2c0 .1.1.3.2.4l.2.6 15.5-6.4 27.6-11.4zM274.2 137.3l-.9-1.8-26.2 14.1-22.8 12.3.5 1.1 10.9-5.6zM271.1 147.8s0-.1-.1-.3l-.3-.6c-.2-.4-.4-.9-.4-.9l-25.6 11.9-18.2 8.5s.1.3.3.6c.1.1.1.3.2.4 0 .1.1.2.1.2l13.9-6.2 30.1-13.6z"/><path class="st0" d="m235.7 157.4-10.8 5.6s0 .1.1.2.1.2.2.4c.1.3.3.6.3.6l10.9-5.5s-.2-.3-.3-.6c-.1-.2-.2-.3-.2-.4l-.2-.3z"/><path class="st0" d="m261.7 148-.8-1.7-24.6 12.3-10.9 5.5.6 1.1 18.1-8.7z"/><path class="st0" d="m244.1 156.5-18.1 8.7.5 1.1 18.2-8.4zM262.9 159.3l-.7-1.6-18.1 7.1-15.6 6.1.4 1.2 21.1-7.9zM249.1 200l-14.9.2v1.2h48v-1.9zM256.5 195.1l-22.5 1.3v1.2l22.5-1v-1.5zM249.1 198.5l-14.9.4V200.1l14.9-.2v-1.4zM276.4 197.7l-.1-1.9-19.7.9-22.5 1 .1 1.2 14.9-.4zM257.8 178.7l-25.4 5.4s.1.3.1.6c.1.3.1.6.1.6l25.5-5-.2-.8c0-.4-.1-.8-.1-.8zM250.6 192.4l-16.7 1.5s0 .3.1.6V195.1l16.7-1.2v-.7c-.1-.4-.1-.8-.1-.8zM283.9 169l-.2-1c-.1-.2-.1-.5-.2-.7 0-.2-.1-.3-.1-.3l-32.1 8.3-19.8 5.1s0 .1.1.2c0 .1.1.3.1.4.1.3.1.6.1.6l16.1-3.9 36-8.7z"/><path class="st0" d="m275.8 174.9-.4-1.9-27.1 6.2-16.2 3.6.3 1.2 25.4-5.3zM261.9 167.1l-31.4 9.7.4 1.2 31.5-9.2z"/><path class="st0" d="M279.8 165.8s-.1-.5-.3-1c-.1-.5-.3-1-.3-1l-16.8 4.9-31.5 9.2.2.6.2.6 19.7-5.4 28.8-7.9zM250.9 173.8l-19.7 5.4.3 1.2 19.8-5.1zM248 177.7l-16.1 3.9s.1.3.1.6c.1.3.1.6.1.6l16.2-3.7s-.1-.4-.2-.7c-.1-.3-.1-.7-.1-.7zM248.7 189.6l-15.1 1.8.2 1.3 15-1.6z"/><path class="st0" d="M280.3 189.8s0-.5-.1-1c0-.2 0-.5-.1-.7v-.3l-31.2 3.2-15.1 1.6V193.2c0 .3.1.6.1.6l16.7-1.5 29.7-2.5zM287.7 176.6l-.4-2-29.2 5.7-25.5 5 .3 1.2 12-2.2zM281.6 185.7s-.1-.5-.1-1c-.1-.5-.1-1-.1-1l-27.9 3.8-19.9 2.7s0 .3.1.6c0 .3.1.6.1.6l15.1-1.8 32.7-3.9z"/><path class="st0" d="m244.9 184.3-12 2.2v.2c0 .1 0 .3.1.4.1.3.1.6.1.6l12-2s-.1-.4-.1-.7c0-.2-.1-.4-.1-.5v-.2zM272.5 183.1s-.1-.5-.1-.9c-.1-.5-.2-.9-.2-.9l-27.1 4.5-12 2s.1.3.1.6c.1.3.1.6.1.6l19.9-3 19.3-2.9z"/><path class="st0" d="m253.2 186-19.9 3 .2 1.2 19.9-2.7zM270.3 194.3l-.1-1.8-19.5 1.4-16.7 1.3.1 1.2 22.4-1.3z"/><path class="st1" d="M124.4 219c-1.3-3.7-3.9-5.5-7.9-5.5h-1.3V236h1.3c3.1 0 5.3-1.2 6.8-3.7 1.2-2.1 1.8-4.8 1.8-8.1.1-1.9-.2-3.7-.7-5.2zM102.9 219.3c1.3 3.7 3.9 5.5 7.9 5.5h1.3v-22.5h-1.3c-3.1 0-5.3 1.2-6.8 3.7-1.2 2.1-1.8 4.8-1.8 8.1-.1 2 .2 3.7.7 5.2zM82 166.2h16.7v6H88v3h8.9v5.7H88v3h10.7v6H82v-23.7zM107.1 166.2h21.6l-10.8 24.1-10.8-24.1zm10.8 21.2 8.9-19.9H109l8.9 19.9zM137.3 166.2H154v6h-10.7v3h8.9v5.7h-8.9v3H154v6h-16.7v-23.7zM164.3 189.8v-23.6h1.3l16 16.1v-16.1h1.2v23.6h-18.5zM200.3 189.9v-17.6h-8.7v-6h18.5v6h-8.7v17.6h-1.1zM91.8 207c1.4 0 2.6.2 3.5.7 1 .5 1.8 1.3 2.4 2.2.6 1 .9 2.1.8 3.2 0 1.1-.3 2.2-.9 3.1-.6.9-1.4 1.7-2.3 2.2 1.2.4 2.2 1.2 3 2.2.8 1 1.2 2.3 1.2 3.6 0 1.1-.3 2.3-.9 3.2-.6 1-1.4 1.8-2.3 2.3-.5.3-1.1.5-1.6.6-.6.1-1.4.2-2.4.2H82.2V207h9.6zM130.5 228.9c-1.7-1.5-2.6-3.9-2.6-7h5.4c0 1.3.4 2.3 1.1 3 .8.7 1.8 1 3.2 1 1.1 0 2-.2 2.7-.6.7-.4 1-1 1-1.8 0-.7-.3-1.1-1-1.4-.6-.3-1.3-.5-2-.6-.7-.1-1.1-.2-1.2-.2-1.5-.3-3-.7-4.4-1.2-1.2-.5-2.3-1.2-3.1-2.2-.8-1-1.3-2.3-1.3-3.9s.4-3 1.3-4.2c.8-1.1 1.9-2 3.3-2.6 1.5-.6 3-.9 4.6-.8 2 0 3.7.4 5.2 1.2s2.6 1.9 3.4 3.5c.4.7.6 1.4.8 2.2.1.7.1 1.3.1 2h-5.4c0-1.2-.3-2.1-1-2.7-.6-.6-1.6-.9-3-.9-1.1 0-1.9.2-2.5.6-.6.4-.9.9-.9 1.6 0 .7.4 1.3 1.2 1.6 1 .4 2 .7 3 .9 2 .4 3.5.8 4.6 1.2 1.1.4 2.1 1.1 2.9 2 .8 1 1.2 2.3 1.2 4 0 1.6-.4 3-1.3 4.2-.9 1.2-2 2.1-3.5 2.7-1.5.6-3.1.9-4.7.9-3-.2-5.4-1-7.1-2.5zM160.8 230.6V213h-8.7v-6h18.5v6H162v17.6h-1.2zM176.9 207h16.7v6h-10.7v3h8.9v5.7h-8.9v3h10.7v6h-16.7V207zM218.3 230.6h-17.6V207h8.9c1.9 0 3.5.4 4.7 1.1 1.2.6 2.1 1.6 2.8 2.8.7 1.2 1 2.5 1 3.9 0 1.7-.5 3.4-1.6 4.7-1 1.4-2.4 2.3-4 2.8l5.8 8.3zM201.9 209v12.2h8.5l-8.5-12.2zm0 20.3H216l-4.8-6.9h-9.3v6.9zm.8-21.1 9 12.9c1.4-.3 2.7-1.1 3.7-2.3.9-1.2 1.5-2.6 1.4-4.1 0-1.2-.3-2.4-.9-3.4-.6-1-1.5-1.8-2.5-2.3-1-.5-2.2-.7-3.8-.7h-6.9z"/></svg>