<svg width="17" height="17" viewBox="0 0 17 17" fill="none" xmlns="http://www.w3.org/2000/svg">
<path d="M0.874187 17C0.65025 17 0.426313 16.9148 0.256172 16.7434C-0.0853907 16.4019 -0.0853907 15.8481 0.256172 15.5066L15.5069 0.256166C15.8485 -0.0853885 16.4023 -0.0853885 16.7438 0.256166C17.0854 0.59772 17.0854 1.15146 16.7438 1.49323L1.49327 16.7434C1.32185 16.9138 1.09791 17 0.874187 17Z" fill="#0E0E0E"/>
<path d="M16.126 17C15.9021 17 15.6784 16.9148 15.508 16.7434L0.256172 1.49323C-0.0853907 1.15146 -0.0853907 0.59772 0.256172 0.256166C0.597735 -0.0853885 1.15149 -0.0853885 1.49327 0.256166L16.7438 15.5066C17.0854 15.8481 17.0854 16.4019 16.7438 16.7434C16.5724 16.9138 16.3487 17 16.126 17Z" fill="#0E0E0E"/>
</svg>
