<?xml version="1.0" encoding="utf-8"?>
<!-- Generator: Adobe Illustrator 21.0.0, SVG Export Plug-In . SVG Version: 6.00 Build 0)  -->
<svg version="1.1" id="Слой_1" xmlns="http://www.w3.org/2000/svg" xmlns:xlink="http://www.w3.org/1999/xlink" x="0px" y="0px"
	 viewBox="0 0 300 400" style="enable-background:new 0 0 300 400;" xml:space="preserve">
<style type="text/css">
	.st0{fill:#D400BD;}
	.st1{fill:#F715FF;}
</style>
<g>
	<g>
		<polygon class="st0" points="245.2,229.1 230.9,224.9 230.5,226.1 276.4,240.2 276.9,238.3 		"/>
		<path class="st0" d="M253.7,226.6l-21.9-5.3c0,0-0.1,0.3-0.1,0.6c0,0.2-0.1,0.3-0.1,0.4c0,0.1-0.1,0.2-0.1,0.2l21.8,5.6
			c0,0,0-0.1,0.1-0.2c0-0.1,0.1-0.3,0.1-0.5C253.6,227,253.7,226.6,253.7,226.6z"/>
		<path class="st0" d="M245.6,227.6l-14.4-4c0,0-0.1,0.3-0.2,0.6c-0.1,0.3-0.2,0.6-0.2,0.6l14.3,4.2c0,0,0.1-0.4,0.2-0.7
			C245.5,228,245.6,227.6,245.6,227.6z"/>
		<polygon class="st0" points="272,234.9 272.4,233.1 253.3,228.1 231.5,222.5 231.2,223.7 245.6,227.6 		"/>
		<path class="st0" d="M259.7,211.3l-25.8-2.3c0,0,0,0.3-0.1,0.6c0,0.2,0,0.3,0,0.4c0,0.1,0,0.2,0,0.2l25.8,2.7c0,0,0-0.1,0-0.3
			c0-0.2,0-0.4,0-0.6C259.7,211.7,259.7,211.3,259.7,211.3z"/>
		<polygon class="st0" points="248.8,222.3 232.4,218.8 232.1,220.1 248.5,223.8 		"/>
		<path class="st0" d="M287.5,209.6c0,0,0-0.5,0.1-1c0-0.5,0-1,0-1l-33.1-1.5l-20.4-0.9c0,0,0,0.3,0,0.6c0,0.3,0,0.6,0,0.6l16.6,1
			L287.5,209.6z"/>
		<path class="st0" d="M278,212.9c0,0,0-0.5,0.1-1c0-0.2,0-0.5,0.1-0.7c0-0.2,0-0.3,0-0.3l-27.7-2l-16.5-1.2c0,0,0,0.1,0,0.2
			c0,0.1,0,0.3,0,0.4c0,0.3-0.1,0.6-0.1,0.6l25.8,2.3L278,212.9z"/>
		<polygon class="st0" points="267,201.4 234.2,201.4 234.2,202.7 267,203.2 		"/>
		<path class="st0" d="M284.5,205.4c0,0,0-0.1,0-0.3c0-0.2,0-0.4,0-0.7c0-0.5,0-1,0-1l-17.5-0.3l-32.8-0.5c0,0,0,0.3,0,0.6
			c0,0.2,0,0.3,0,0.4c0,0.1,0,0.2,0,0.2l20.5,0.6L284.5,205.4z"/>
		<polygon class="st0" points="254.6,204.6 234.2,204 234.1,205.2 254.6,206.1 		"/>
		<polygon class="st0" points="250.6,207.4 234.1,206.5 234,207.7 250.5,208.9 		"/>
		<polygon class="st0" points="247.8,219.1 232.9,216.4 232.6,217.6 247.5,220.5 		"/>
		<path class="st0" d="M278,228.5c0,0,0.1-0.5,0.2-1c0.1-0.5,0.2-1,0.2-1l-30.8-6l-14.9-2.9c0,0-0.1,0.3-0.1,0.6
			c-0.1,0.3-0.1,0.6-0.1,0.6l16.4,3.5L278,228.5z"/>
		<polygon class="st0" points="288.9,218 289.1,216 259.6,212.9 233.8,210.2 233.6,211.4 245.7,212.9 		"/>
		<path class="st0" d="M280.4,225c0,0,0-0.1,0.1-0.3c0-0.2,0.1-0.4,0.1-0.7c0.1-0.5,0.2-1,0.2-1l-27.8-4.6l-19.8-3.3
			c0,0-0.1,0.3-0.1,0.6c0,0.2-0.1,0.3-0.1,0.4c0,0.1,0,0.2,0,0.2l14.9,2.7L280.4,225z"/>
		<path class="st0" d="M245.7,212.9l-12.1-1.4c0,0,0,0.3-0.1,0.6c0,0.3-0.1,0.6-0.1,0.6l12.1,1.6c0,0,0-0.4,0.1-0.7
			C245.7,213.2,245.7,212.9,245.7,212.9z"/>
		<polygon class="st0" points="272.5,219.8 272.8,218 245.6,214.3 233.5,212.7 233.3,213.9 253.2,216.9 		"/>
		<path class="st0" d="M253.2,216.9l-19.9-3c0,0,0,0.3-0.1,0.6c-0.1,0.3-0.1,0.6-0.1,0.6l19.8,3.3c0,0,0.1-0.4,0.1-0.8
			C253.1,217.3,253.2,216.9,253.2,216.9z"/>
		<path class="st0" d="M267.1,229.8c0,0,0.1-0.4,0.2-0.9c0.1-0.4,0.2-0.9,0.2-0.9l-19-4.3l-16.3-3.7c0,0-0.1,0.3-0.1,0.6
			c-0.1,0.3-0.1,0.6-0.1,0.6l21.9,5.3L267.1,229.8z"/>
	</g>
	<g>
		<path class="st0" d="M232.9,255.7l-12.4-8.2c0,0-0.2,0.3-0.3,0.5c-0.1,0.1-0.2,0.3-0.2,0.4c-0.1,0.1-0.1,0.2-0.1,0.2l39.6,27.1
			c0,0,0.1-0.1,0.2-0.3c0.1-0.2,0.2-0.4,0.4-0.6c0.3-0.4,0.5-0.8,0.5-0.8L232.9,255.7z"/>
		<path class="st0" d="M241.7,255.8l-19.3-11.6c0,0-0.2,0.3-0.3,0.5c-0.2,0.3-0.3,0.5-0.3,0.5l19.1,11.8c0,0,0.2-0.3,0.4-0.7
			C241.5,256.2,241.7,255.8,241.7,255.8z"/>
		<polygon class="st0" points="233.7,254.4 221.1,246.4 220.4,247.4 232.9,255.7 		"/>
		<polygon class="st0" points="256.7,269.2 257.7,267.6 240.9,257.2 221.8,245.3 221.1,246.4 233.7,254.4 		"/>
		<path class="st0" d="M252,243l-24-9.8c0,0-0.1,0.3-0.2,0.6c-0.1,0.1-0.1,0.3-0.2,0.4c0,0.1-0.1,0.2-0.1,0.2l23.8,10.2
			c0,0,0-0.1,0.1-0.2c0.1-0.1,0.1-0.3,0.2-0.5C251.8,243.3,252,243,252,243z"/>
		<path class="st0" d="M238.3,250.3l-14.6-8.2c0,0-0.2,0.3-0.3,0.5c-0.1,0.1-0.2,0.3-0.2,0.4c-0.1,0.1-0.1,0.2-0.1,0.2l14.5,8.4
			c0,0,0-0.1,0.1-0.2c0.1-0.1,0.2-0.3,0.3-0.4C238.1,250.6,238.3,250.3,238.3,250.3z"/>
		<path class="st0" d="M279.1,249.6c0,0,0.2-0.5,0.4-1c0.2-0.5,0.3-1,0.3-1l-31.2-11.2l-19.3-6.9c0,0-0.1,0.3-0.2,0.6
			c-0.1,0.3-0.2,0.6-0.2,0.6l15.5,5.8L279.1,249.6z"/>
		<path class="st0" d="M269,249.9c0,0,0.2-0.4,0.4-0.9c0.1-0.2,0.2-0.4,0.2-0.6c0.1-0.2,0.1-0.3,0.1-0.3L243.9,238l-15.4-6.1
			c0,0,0,0.1-0.1,0.2c0,0.1-0.1,0.3-0.2,0.4c-0.1,0.3-0.2,0.6-0.2,0.6l24,9.8L269,249.9z"/>
		<path class="st0" d="M261.9,235.7l-31.4-9.7c0,0,0,0.1-0.1,0.2c0,0.1-0.1,0.3-0.1,0.4c-0.1,0.3-0.2,0.6-0.2,0.6l31.2,10.1
			c0,0,0.1-0.4,0.3-0.8c0.1-0.2,0.1-0.4,0.2-0.6C261.9,235.8,261.9,235.7,261.9,235.7z"/>
		<path class="st0" d="M277.4,244.7c0,0,0-0.1,0.1-0.3c0.1-0.2,0.1-0.4,0.2-0.7c0.2-0.5,0.3-1,0.3-1l-16.7-5.4l-31.2-10.1
			c0,0-0.1,0.3-0.2,0.6c0,0.1-0.1,0.3-0.1,0.4c0,0.1-0.1,0.2-0.1,0.2l19.4,6.6L277.4,244.7z"/>
		<polygon class="st0" points="249.1,235.1 229.8,228.4 229.3,229.6 248.6,236.5 		"/>
		<polygon class="st0" points="244.4,236.6 228.9,230.8 228.5,232 243.9,238 		"/>
		<polygon class="st0" points="238.3,246.9 224.8,239.9 224.3,241 237.6,248.2 		"/>
		<path class="st0" d="M264.3,264.8c0,0,0.2-0.4,0.5-0.8c0.1-0.2,0.2-0.4,0.3-0.6c0.1-0.2,0.1-0.3,0.1-0.3l-27.6-14.9l-13.3-7.2
			c0,0,0,0.1-0.1,0.2c-0.1,0.1-0.1,0.2-0.2,0.4c-0.2,0.3-0.3,0.5-0.3,0.5l14.6,8.2L264.3,264.8z"/>
		<polygon class="st0" points="277.9,258.1 278.7,256.2 251.4,244.5 227.5,234.3 227,235.4 238.2,240.4 		"/>
		<path class="st0" d="M267.7,262.2c0,0,0.1-0.1,0.1-0.3c0.1-0.2,0.2-0.4,0.3-0.6c0.2-0.4,0.4-0.9,0.4-0.9l-25.2-12.6l-18-9
			c0,0-0.1,0.3-0.3,0.6c-0.1,0.1-0.1,0.3-0.2,0.4c-0.1,0.1-0.1,0.2-0.1,0.2l13.5,7L267.7,262.2z"/>
		<path class="st0" d="M238.2,240.4l-11.2-5c0,0,0,0.1-0.1,0.2c0,0.1-0.1,0.3-0.2,0.4c-0.1,0.3-0.3,0.6-0.3,0.6l11.1,5.1
			c0,0,0.2-0.3,0.3-0.6c0.1-0.2,0.1-0.3,0.2-0.4C238.1,240.5,238.2,240.4,238.2,240.4z"/>
		<polygon class="st0" points="261.7,254.9 262.5,253.2 237.6,241.7 226.5,236.5 226,237.7 244.1,246.4 		"/>
		<polygon class="st0" points="244.1,246.4 226,237.7 225.4,238.8 243.4,247.8 		"/>
		<polygon class="st0" points="253.5,262.9 254.5,261.4 237.6,251.6 223,243.2 222.4,244.3 241.7,255.8 		"/>
	</g>
	<g>
		<polygon class="st0" points="213.2,277.5 203.7,266 202.7,266.7 232.7,304.2 234.2,303 		"/>
		<polygon class="st0" points="221.6,280.2 206.6,263.5 205.6,264.3 220.4,281.3 		"/>
		<path class="st0" d="M214.3,276.5l-9.7-11.4c0,0-0.2,0.2-0.5,0.4c-0.1,0.1-0.2,0.2-0.3,0.3c-0.1,0.1-0.2,0.1-0.2,0.1l9.5,11.5
			c0,0,0.1-0.1,0.2-0.1c0.1-0.1,0.2-0.2,0.4-0.3C214.1,276.8,214.3,276.5,214.3,276.5z"/>
		<path class="st0" d="M232,297.4c0,0,0.4-0.3,0.7-0.6c0.2-0.2,0.4-0.3,0.5-0.4c0.1-0.1,0.2-0.2,0.2-0.2l-13-14.9l-14.8-16.9
			c0,0-0.1,0.1-0.1,0.1c-0.1,0.1-0.2,0.2-0.3,0.3c-0.2,0.2-0.5,0.4-0.5,0.4l9.7,11.4L232,297.4z"/>
		<path class="st0" d="M235.2,271l-20-16.5c0,0,0,0.1-0.1,0.2c-0.1,0.1-0.2,0.2-0.3,0.3c-0.2,0.2-0.4,0.5-0.4,0.5l19.8,16.8
			c0,0,0.3-0.3,0.5-0.6c0.1-0.2,0.3-0.3,0.4-0.4C235.2,271,235.2,271,235.2,271z"/>
		<path class="st0" d="M220,273.9l-11.6-12.1c0,0-0.1,0.1-0.1,0.1c-0.1,0.1-0.2,0.2-0.3,0.3c-0.2,0.2-0.5,0.4-0.5,0.4l11.4,12.3
			c0,0,0.3-0.3,0.5-0.5c0.1-0.1,0.3-0.3,0.4-0.4C219.9,274,220,273.9,220,273.9z"/>
		<polygon class="st0" points="259.1,285.3 260.4,283.7 233.9,263.8 217.5,251.5 216.8,252.5 229.9,262.7 		"/>
		<polygon class="st0" points="249.5,282.7 250.7,281.2 229,263.8 216,253.5 215.2,254.5 235.2,271 		"/>
		<polygon class="st0" points="246.8,267 219.7,248.5 219,249.5 245.8,268.4 		"/>
		<path class="st0" d="M259,280.2c0,0,0.3-0.4,0.6-0.8c0.3-0.4,0.6-0.8,0.6-0.8l-14.3-10.1L219,249.5c0,0-0.2,0.3-0.4,0.5
			c-0.2,0.3-0.4,0.5-0.4,0.5l16.5,12L259,280.2z"/>
		<path class="st0" d="M234.8,262.5l-16.5-12c0,0-0.2,0.3-0.4,0.5c-0.1,0.1-0.2,0.3-0.3,0.3c-0.1,0.1-0.1,0.2-0.1,0.2l16.4,12.3
			c0,0,0.1-0.1,0.1-0.2c0.1-0.1,0.2-0.3,0.3-0.4C234.6,262.9,234.8,262.5,234.8,262.5z"/>
		<path class="st0" d="M229.9,262.7l-13.1-10.2c0,0-0.2,0.2-0.4,0.5c-0.2,0.2-0.4,0.5-0.4,0.5l13,10.3c0,0,0.2-0.3,0.5-0.6
			C229.7,263,229.9,262.7,229.9,262.7z"/>
		<path class="st0" d="M221,270.7L210.2,260c0,0-0.2,0.2-0.4,0.4c-0.2,0.2-0.4,0.4-0.4,0.4l10.6,10.8c0,0,0.3-0.3,0.5-0.5
			C220.7,271,221,270.7,221,270.7z"/>
		<polygon class="st0" points="240.6,295.5 242,294.1 219.9,271.7 209.3,260.9 208.4,261.8 220,273.9 		"/>
		<path class="st0" d="M255.5,293c0,0,0.1-0.1,0.2-0.2c0.1-0.1,0.3-0.3,0.5-0.5c0.3-0.4,0.7-0.8,0.7-0.8l-22.7-19.2l-19.8-16.8
			c0,0-0.2,0.2-0.4,0.5c-0.1,0.1-0.2,0.2-0.3,0.3c-0.1,0.1-0.1,0.1-0.1,0.1l9.2,8L255.5,293z"/>
		<polygon class="st0" points="244.6,293.9 246,292.5 225.6,273 211.1,259.2 210.2,260 221,270.7 		"/>
		<polygon class="st0" points="222.8,264.4 213.6,256.4 212.8,257.3 221.8,265.5 		"/>
		<path class="st0" d="M241,285.2c0,0,0.3-0.3,0.6-0.7c0.2-0.2,0.3-0.3,0.4-0.5c0.1-0.1,0.2-0.2,0.2-0.2l-20.4-18.4l-9.1-8.2
			c0,0-0.1,0.1-0.1,0.1c-0.1,0.1-0.2,0.2-0.3,0.3c-0.2,0.2-0.4,0.5-0.4,0.5l14.7,13.7L241,285.2z"/>
		<path class="st0" d="M226.6,271.9l-14.7-13.7c0,0-0.2,0.2-0.4,0.5c-0.1,0.1-0.2,0.2-0.3,0.3c-0.1,0.1-0.1,0.1-0.1,0.1l14.5,13.9
			c0,0,0.1-0.1,0.2-0.2c0.1-0.1,0.2-0.2,0.4-0.4C226.4,272.2,226.6,271.9,226.6,271.9z"/>
		<path class="st0" d="M230.9,290.5c0,0,0.1-0.1,0.2-0.2c0.1-0.1,0.3-0.3,0.5-0.4c0.3-0.3,0.7-0.6,0.7-0.6l-13.3-14.3l-11.4-12.3
			c0,0-0.2,0.2-0.5,0.4c-0.1,0.1-0.2,0.2-0.3,0.3c-0.1,0.1-0.1,0.1-0.1,0.1l15.1,16.7L230.9,290.5z"/>
	</g>
	<g>
		<path class="st0" d="M188,292.5l-5.7-13.8c0,0-0.3,0.1-0.6,0.2c-0.1,0.1-0.3,0.1-0.4,0.2c-0.1,0-0.2,0.1-0.2,0.1l17.5,44.7
			c0,0,0.1,0,0.3-0.1c0.2-0.1,0.4-0.2,0.6-0.3c0.5-0.2,0.9-0.4,0.9-0.4L188,292.5z"/>
		<path class="st0" d="M195.3,297.6l-9.5-20.4c0,0-0.3,0.1-0.6,0.3c-0.1,0.1-0.3,0.1-0.4,0.2c-0.1,0-0.2,0.1-0.2,0.1l9.2,20.5
			c0,0,0.1,0,0.2-0.1c0.1-0.1,0.3-0.1,0.5-0.2C194.9,297.8,195.3,297.6,195.3,297.6z"/>
		<path class="st0" d="M189.4,292l-5.9-13.7c0,0-0.1,0-0.2,0.1c-0.1,0-0.3,0.1-0.4,0.2c-0.3,0.1-0.6,0.2-0.6,0.2l5.7,13.8
			c0,0,0.3-0.1,0.7-0.3c0.2-0.1,0.3-0.1,0.5-0.2C189.3,292,189.4,292,189.4,292z"/>
		<polygon class="st0" points="200.1,317.1 201.9,316.4 193.8,298.3 184.7,277.8 183.5,278.3 189.4,292 		"/>
		<polygon class="st0" points="211,292.8 196.7,271.2 195.6,271.8 209.6,293.7 		"/>
		<polygon class="st0" points="195.5,291.1 188,276.2 186.9,276.7 194.2,291.8 		"/>
		<path class="st0" d="M229.6,313.5c0,0,0.4-0.3,0.8-0.6c0.4-0.3,0.8-0.6,0.8-0.6l-19.5-26.8l-12-16.5c0,0-0.3,0.2-0.5,0.4
			c-0.2,0.2-0.5,0.4-0.5,0.4l9.6,13.6L229.6,313.5z"/>
		<path class="st0" d="M221.1,308.1c0,0,0.4-0.3,0.8-0.5c0.2-0.1,0.4-0.3,0.5-0.4c0.1-0.1,0.2-0.2,0.2-0.2l-15.7-22.9l-9.4-13.7
			c0,0-0.1,0-0.2,0.1c-0.1,0.1-0.2,0.2-0.4,0.2c-0.3,0.2-0.5,0.3-0.5,0.3l14.3,21.6L221.1,308.1z"/>
		<path class="st0" d="M223.2,292.4l-20.5-25.7c0,0-0.2,0.2-0.5,0.4c-0.2,0.2-0.5,0.4-0.5,0.4l20.1,26c0,0,0.3-0.3,0.7-0.5
			C222.9,292.7,223.2,292.4,223.2,292.4z"/>
		<polygon class="st0" points="231,308.6 232.6,307.4 221.9,293.5 201.8,267.5 200.8,268.3 213.1,284.6 		"/>
		<path class="st0" d="M213.1,284.6l-12.3-16.4c0,0-0.1,0-0.2,0.1c-0.1,0.1-0.2,0.2-0.3,0.3c-0.3,0.2-0.5,0.4-0.5,0.4l12,16.5
			c0,0,0.3-0.2,0.6-0.5c0.2-0.1,0.3-0.2,0.4-0.3C213,284.7,213.1,284.6,213.1,284.6z"/>
		<polygon class="st0" points="208.3,283.3 198.7,269.8 197.7,270.5 207.1,284.2 		"/>
		<polygon class="st0" points="197.5,288.4 190.3,275 189.2,275.6 196.1,289 		"/>
		<path class="st0" d="M208.9,317.8c0,0,0.4-0.2,0.9-0.4c0.2-0.1,0.4-0.2,0.6-0.3c0.2-0.1,0.3-0.1,0.3-0.1L196.1,289l-7-13.5
			c0,0-0.1,0-0.2,0.1c-0.1,0.1-0.2,0.1-0.4,0.2c-0.3,0.1-0.6,0.3-0.6,0.3l7.5,15L208.9,317.8z"/>
		<polygon class="st0" points="223.9,319.8 225.7,318.7 209.6,293.7 195.6,271.8 194.6,272.5 201,282.9 		"/>
		<path class="st0" d="M213.2,317.5c0,0,0.1-0.1,0.3-0.1c0.2-0.1,0.4-0.2,0.6-0.3c0.4-0.2,0.9-0.5,0.9-0.5l-13.8-24.6l-9.8-17.5
			c0,0-0.3,0.2-0.5,0.3c-0.1,0.1-0.3,0.2-0.4,0.2c-0.1,0.1-0.2,0.1-0.2,0.1l7.2,13.3L213.2,317.5z"/>
		<path class="st0" d="M201,282.9l-6.4-10.4c0,0-0.3,0.2-0.5,0.3c-0.3,0.2-0.5,0.3-0.5,0.3l6.3,10.5c0,0,0.3-0.2,0.6-0.4
			C200.7,283.1,201,282.9,201,282.9z"/>
		<polygon class="st0" points="212.3,308.1 213.9,307.2 199.8,283.6 193.5,273.2 192.4,273.8 202.5,291.2 		"/>
		<path class="st0" d="M202.5,291.2l-10.1-17.4c0,0-0.1,0-0.2,0.1c-0.1,0.1-0.2,0.1-0.4,0.2c-0.3,0.2-0.5,0.3-0.5,0.3l9.8,17.5
			c0,0,0.3-0.2,0.7-0.4c0.2-0.1,0.3-0.2,0.5-0.3C202.4,291.2,202.5,291.2,202.5,291.2z"/>
		<polygon class="st0" points="201.1,310.2 202.7,309.4 194.2,291.8 186.9,276.7 185.8,277.2 195.3,297.6 		"/>
	</g>
	<g>
		<path class="st0" d="M159.5,299.5l-1.3-14.9c0,0-0.3,0-0.6,0.1c-0.2,0-0.3,0-0.4,0c-0.1,0-0.2,0-0.2,0l3.5,47.9c0,0,0.1,0,0.3,0
			c0.2,0,0.4,0,0.7-0.1c0.5,0,1-0.1,1-0.1L159.5,299.5z"/>
		<path class="st0" d="M164.9,306.5l-3-22.3c0,0-0.3,0-0.6,0.1c-0.3,0-0.6,0.1-0.6,0.1l2.7,22.3c0,0,0.4,0,0.8-0.1
			C164.5,306.5,164.9,306.5,164.9,306.5z"/>
		<path class="st0" d="M161,299.3l-1.5-14.8c0,0-0.1,0-0.2,0c-0.1,0-0.3,0-0.4,0c-0.3,0-0.6,0.1-0.6,0.1l1.3,14.9c0,0,0.4,0,0.7-0.1
			c0.2,0,0.4,0,0.5,0C160.9,299.3,161,299.3,161,299.3z"/>
		<polygon class="st0" points="163.8,326.5 165.7,326.3 163.4,306.7 160.7,284.4 159.5,284.5 161,299.3 		"/>
		<path class="st0" d="M181.4,306.5l-7.3-24.9c0,0-0.3,0.1-0.6,0.2c-0.3,0.1-0.6,0.2-0.6,0.2l6.9,25c0,0,0.4-0.1,0.8-0.2
			C181,306.6,181.4,306.5,181.4,306.5z"/>
		<path class="st0" d="M167.1,300.4l-2.7-16.5c0,0-0.3,0.1-0.6,0.1c-0.3,0.1-0.6,0.1-0.6,0.1l2.5,16.6c0,0,0.4,0,0.7-0.1
			C166.8,300.4,167.1,300.4,167.1,300.4z"/>
		<path class="st0" d="M193.1,331.9c0,0,0.5-0.2,1-0.3c0.2-0.1,0.5-0.2,0.7-0.2c0.2-0.1,0.3-0.1,0.3-0.1l-10.7-31.3l-6.6-19.4
			c0,0-0.1,0-0.2,0.1c-0.1,0-0.3,0.1-0.4,0.1c-0.3,0.1-0.6,0.2-0.6,0.2l5.1,15.8L193.1,331.9z"/>
		<polygon class="st0" points="186.6,324.2 188.4,323.7 180.2,297.1 175.3,281.3 174.1,281.6 181.4,306.5 		"/>
		<polygon class="st0" points="193.2,309.8 181.2,279.2 180,279.7 191.6,310.4 		"/>
		<path class="st0" d="M195.9,327.5c0,0,0.5-0.2,0.9-0.3c0.5-0.2,0.9-0.4,0.9-0.4l-6.2-16.4L180,279.7c0,0-0.3,0.1-0.6,0.2
			c-0.3,0.1-0.6,0.2-0.6,0.2l6.9,19.3L195.9,327.5z"/>
		<polygon class="st0" points="185.8,299.3 178.9,280.1 177.7,280.5 184.3,299.9 		"/>
		<path class="st0" d="M181.6,296.7l-5.1-15.8c0,0-0.3,0.1-0.6,0.2c-0.1,0-0.3,0.1-0.4,0.1c-0.1,0-0.2,0.1-0.2,0.1l4.9,15.8
			c0,0,0.1,0,0.2-0.1c0.1,0,0.3-0.1,0.5-0.2C181.3,296.8,181.6,296.7,181.6,296.7z"/>
		<polygon class="st0" points="169.8,298.3 166.9,283.4 165.6,283.6 168.3,298.5 		"/>
		<path class="st0" d="M172,329.8c0,0,0.5-0.1,1-0.2c0.2,0,0.5-0.1,0.7-0.1c0.2,0,0.3-0.1,0.3-0.1l-5.6-30.9l-2.7-14.9
			c0,0-0.1,0-0.2,0c-0.1,0-0.3,0-0.4,0.1c-0.3,0.1-0.6,0.1-0.6,0.1l2.7,16.5L172,329.8z"/>
		<polygon class="st0" points="185.7,336.2 187.7,335.6 179.8,307 172.9,282 171.7,282.3 174.8,294.1 		"/>
		<path class="st0" d="M176.1,330.8c0,0,0.5-0.1,1-0.2c0.5-0.1,1-0.2,1-0.2l-5.8-27.6l-4.2-19.7c0,0-0.3,0.1-0.6,0.1
			c-0.3,0.1-0.6,0.1-0.6,0.1l2.9,14.9L176.1,330.8z"/>
		<path class="st0" d="M174.8,294.1l-3.1-11.8c0,0-0.1,0-0.2,0.1c-0.1,0-0.3,0.1-0.4,0.1c-0.3,0.1-0.6,0.1-0.6,0.1l2.9,11.9
			c0,0,0.3-0.1,0.7-0.2c0.2,0,0.3-0.1,0.5-0.1C174.7,294.1,174.8,294.1,174.8,294.1z"/>
		<path class="st0" d="M178.1,321.6c0,0,0.5-0.1,0.9-0.2c0.4-0.1,0.9-0.2,0.9-0.2l-6.5-26.7l-2.9-11.9c0,0-0.3,0.1-0.6,0.1
			c-0.3,0.1-0.6,0.1-0.6,0.1l4.5,19.6L178.1,321.6z"/>
		<polygon class="st0" points="173.8,302.5 169.3,282.9 168.1,283.1 172.2,302.8 		"/>
		<polygon class="st0" points="166.8,320.2 168.5,319.9 165.7,300.6 163.2,284 161.9,284.2 164.9,306.5 		"/>
	</g>
	<g>
		<polygon class="st0" points="130.2,297.7 133.3,283.1 132.1,282.9 121.4,329.7 123.4,330.1 		"/>
		<path class="st0" d="M133.3,306l3.7-22.2c0,0-0.3-0.1-0.6-0.1c-0.2,0-0.3,0-0.4-0.1c-0.1,0-0.2,0-0.2,0l-4,22.1c0,0,0.1,0,0.2,0
			c0.1,0,0.3,0.1,0.5,0.1C132.9,306,133.3,306,133.3,306z"/>
		<path class="st0" d="M131.7,298l2.9-14.6c0,0-0.3-0.1-0.6-0.1c-0.3-0.1-0.6-0.1-0.6-0.1l-3.1,14.6c0,0,0.4,0.1,0.7,0.2
			C131.3,298,131.7,298,131.7,298z"/>
		<polygon class="st0" points="126.4,324.9 128.2,325.2 131.8,305.8 135.7,283.6 134.5,283.4 131.7,298 		"/>
		<path class="st0" d="M149.1,310.9l0.4-25.9c0,0-0.3,0-0.6,0c-0.2,0-0.3,0-0.4,0c-0.1,0-0.2,0-0.2,0l-0.8,25.9c0,0,0.1,0,0.3,0
			c0.2,0,0.4,0,0.6,0C148.6,310.9,149.1,310.9,149.1,310.9z"/>
		<polygon class="st0" points="137.2,300.8 139.4,284.2 138.2,284 135.7,300.6 		"/>
		<path class="st0" d="M152.7,338.5c0,0,0.5,0,1,0c0.3,0,0.5,0,0.7,0c0.2,0,0.3,0,0.3,0l-1-33.1l-0.6-20.5c0,0-0.1,0-0.2,0
			c-0.1,0-0.3,0-0.4,0c-0.3,0-0.6,0-0.6,0l0.2,16.6L152.7,338.5z"/>
		<polygon class="st0" points="148.8,329.3 150.7,329.3 150.7,301.5 150.7,285 149.4,284.9 149.1,310.9 		"/>
		<polygon class="st0" points="159.4,317.5 157,284.7 155.7,284.8 157.6,317.6 		"/>
		<path class="st0" d="M156.7,335.2c0,0,0.5,0,1,0c0.5,0,1-0.1,1-0.1l-1-17.5l-1.9-32.8c0,0-0.3,0-0.6,0c-0.3,0-0.6,0-0.6,0
			l0.9,20.4L156.7,335.2z"/>
		<polygon class="st0" points="155.4,305.3 154.5,284.9 153.2,284.9 153.8,305.4 		"/>
		<polygon class="st0" points="152.2,301.5 152,284.9 150.7,285 150.7,301.5 		"/>
		<polygon class="st0" points="140.4,299.6 141.9,284.5 140.7,284.4 138.9,299.4 		"/>
		<path class="st0" d="M133.3,330.4c0,0,0.5,0.1,1,0.1c0.5,0.1,1,0.1,1,0.1l3.7-31.2l1.8-15.1c0,0-0.3,0-0.6-0.1
			c-0.3,0-0.6-0.1-0.6-0.1l-2.2,16.6L133.3,330.4z"/>
		<polygon class="st0" points="144.5,340.5 146.5,340.6 147.4,310.8 148.2,284.9 146.9,284.9 146.4,297.1 		"/>
		<path class="st0" d="M136.9,332.5c0,0,0.1,0,0.3,0c0.2,0,0.4,0,0.7,0.1c0.5,0,1,0.1,1,0.1l2.5-28.1l1.8-20c0,0-0.3,0-0.6-0.1
			c-0.2,0-0.3,0-0.4,0c-0.1,0-0.2,0-0.2,0l-1.6,15.1L136.9,332.5z"/>
		<path class="st0" d="M146.4,297.1l0.5-12.2c0,0-0.3,0-0.6,0c-0.3,0-0.6,0-0.6,0L145,297c0,0,0.4,0,0.7,0
			C146,297,146.4,297.1,146.4,297.1z"/>
		<polygon class="st0" points="141.5,324.3 143.3,324.4 145,297 145.7,284.8 144.4,284.7 142.9,304.8 		"/>
		<path class="st0" d="M142.9,304.8l1.5-20c0,0-0.1,0-0.2,0c-0.1,0-0.3,0-0.4,0c-0.3,0-0.6-0.1-0.6-0.1l-1.8,20c0,0,0.4,0,0.8,0.1
			c0.2,0,0.4,0,0.5,0C142.8,304.8,142.9,304.8,142.9,304.8z"/>
		<path class="st0" d="M131.1,319.6c0,0,0.4,0.1,0.9,0.1c0.4,0.1,0.9,0.1,0.9,0.1l2.9-19.3l2.5-16.6c0,0-0.3,0-0.6-0.1
			c-0.3-0.1-0.6-0.1-0.6-0.1l-3.7,22.2L131.1,319.6z"/>
	</g>
	<g>
		<path class="st0" d="M102.8,287.4l7.3-13c0,0-0.3-0.2-0.5-0.3c-0.1-0.1-0.3-0.2-0.4-0.2c-0.1-0.1-0.2-0.1-0.2-0.1l-24,41.5
			c0,0,0.1,0.1,0.3,0.2c0.2,0.1,0.4,0.2,0.6,0.3c0.4,0.2,0.9,0.5,0.9,0.5L102.8,287.4z"/>
		<path class="st0" d="M103.3,296.3l10.1-20.1c0,0-0.3-0.1-0.6-0.3c-0.1-0.1-0.3-0.1-0.4-0.2c-0.1-0.1-0.2-0.1-0.2-0.1l-10.4,20
			c0,0,0.1,0,0.2,0.1c0.1,0.1,0.3,0.2,0.5,0.3C102.9,296.1,103.3,296.3,103.3,296.3z"/>
		<path class="st0" d="M104.1,288.1l7.1-13.1c0,0-0.1,0-0.2-0.1c-0.1-0.1-0.2-0.1-0.4-0.2c-0.3-0.2-0.5-0.3-0.5-0.3l-7.3,13
			c0,0,0.3,0.2,0.6,0.4c0.2,0.1,0.3,0.2,0.4,0.2C104,288.1,104.1,288.1,104.1,288.1z"/>
		<polygon class="st0" points="91.1,312.2 92.7,313.1 101.9,295.5 112.2,275.6 111.1,275 104.1,288.1 		"/>
		<path class="st0" d="M116.9,305.6l8-24.7c0,0-0.3-0.1-0.6-0.2c-0.1,0-0.3-0.1-0.4-0.1c-0.1,0-0.2-0.1-0.2-0.1l-8.4,24.5
			c0,0,0.1,0,0.2,0.1c0.1,0,0.3,0.1,0.5,0.2C116.5,305.4,116.9,305.6,116.9,305.6z"/>
		<polygon class="st0" points="108.5,292.5 115.6,277.2 114.5,276.7 107.2,291.8 		"/>
		<path class="st0" d="M112.3,333.1c0,0,0.5,0.1,1,0.3c0.5,0.1,1,0.3,1,0.3l8.8-31.9l5.4-19.7c0,0-0.3-0.1-0.6-0.2
			c-0.3-0.1-0.6-0.2-0.6-0.2l-4.6,15.9L112.3,333.1z"/>
		<path class="st0" d="M111.2,323.1c0,0,0.5,0.1,0.9,0.3c0.2,0.1,0.5,0.1,0.6,0.2c0.2,0.1,0.3,0.1,0.3,0.1l8.2-26.5l4.9-15.8
			c0,0-0.1,0-0.2-0.1c-0.1,0-0.3-0.1-0.4-0.1c-0.3-0.1-0.6-0.2-0.6-0.2l-8,24.7L111.2,323.1z"/>
		<path class="st0" d="M124.8,314.9l7.3-32c0,0-0.3-0.1-0.6-0.1c-0.3-0.1-0.6-0.1-0.6-0.1l-7.8,31.9c0,0,0.4,0.1,0.8,0.2
			C124.4,314.8,124.8,314.9,124.8,314.9z"/>
		<path class="st0" d="M117,331.1c0,0,0.1,0,0.3,0.1c0.2,0,0.4,0.1,0.7,0.2c0.5,0.1,1,0.2,1,0.2l4.1-17l7.8-31.9
			c0,0-0.3-0.1-0.6-0.1c-0.2,0-0.3-0.1-0.4-0.1c-0.1,0-0.2-0.1-0.2-0.1l-5.1,19.8L117,331.1z"/>
		<polygon class="st0" points="124.5,302.1 129.7,282.3 128.5,282 123,301.7 		"/>
		<polygon class="st0" points="122.6,297.5 127.3,281.6 126.1,281.3 121.2,297.1 		"/>
		<polygon class="st0" points="111.9,292.2 117.9,278.3 116.7,277.8 110.6,291.6 		"/>
		<path class="st0" d="M96,319.5c0,0,0.4,0.2,0.9,0.4c0.2,0.1,0.4,0.2,0.6,0.3c0.2,0.1,0.3,0.1,0.3,0.1l12.8-28.7l6.2-13.9
			c0,0-0.1,0-0.2-0.1c-0.1,0-0.3-0.1-0.4-0.2c-0.3-0.1-0.6-0.3-0.6-0.3l-7.1,15.2L96,319.5z"/>
		<polygon class="st0" points="103.7,332.5 105.7,333.2 115.3,305 123.7,280.5 122.5,280.1 118.4,291.6 		"/>
		<path class="st0" d="M98.9,322.7c0,0,0.1,0,0.3,0.1c0.2,0.1,0.4,0.2,0.6,0.3c0.5,0.2,0.9,0.4,0.9,0.4l10.7-26.1l7.6-18.6
			c0,0-0.3-0.1-0.6-0.2c-0.1-0.1-0.3-0.1-0.4-0.2c-0.1,0-0.2-0.1-0.2-0.1l-6,13.9L98.9,322.7z"/>
		<path class="st0" d="M118.4,291.6l4.1-11.5c0,0-0.3-0.1-0.6-0.2c-0.3-0.1-0.6-0.2-0.6-0.2l-4.3,11.4c0,0,0.3,0.1,0.7,0.3
			C118.1,291.5,118.4,291.6,118.4,291.6z"/>
		<polygon class="st0" points="105.7,316.1 107.4,316.8 117.1,291.1 121.3,279.7 120.2,279.2 112.8,297.9 		"/>
		<path class="st0" d="M112.8,297.9l7.3-18.7c0,0-0.1,0-0.2-0.1c-0.1,0-0.3-0.1-0.4-0.2c-0.3-0.1-0.6-0.2-0.6-0.2l-7.6,18.6
			c0,0,0.4,0.1,0.7,0.3c0.2,0.1,0.4,0.1,0.5,0.2C112.7,297.9,112.8,297.9,112.8,297.9z"/>
		<polygon class="st0" points="97.1,308.6 98.7,309.4 107.2,291.8 114.5,276.7 113.3,276.2 103.3,296.3 		"/>
	</g>
	<g>
		<path class="st0" d="M79.5,269.5l10.8-10.3c0,0-0.1-0.1-0.1-0.1c-0.1-0.1-0.2-0.2-0.3-0.3c-0.2-0.2-0.4-0.5-0.4-0.5l-35.2,32.6
			c0,0,0.3,0.4,0.7,0.7c0.2,0.2,0.3,0.4,0.5,0.5c0.1,0.1,0.2,0.2,0.2,0.2L79.5,269.5z"/>
		<polygon class="st0" points="77.4,278.1 93,261.8 92.1,260.9 76.3,277 		"/>
		<polygon class="st0" points="80.6,270.5 91.2,260 90.3,259.2 79.5,269.5 		"/>
		<path class="st0" d="M61.1,289.7c0,0,0.3,0.3,0.7,0.7c0.3,0.3,0.7,0.7,0.7,0.7L76.3,277l15.8-16c0,0-0.2-0.2-0.4-0.4
			c-0.2-0.2-0.4-0.4-0.4-0.4l-10.6,10.5L61.1,289.7z"/>
		<path class="st0" d="M87.7,290.9l14.9-21.2c0,0-0.3-0.2-0.5-0.4c-0.3-0.2-0.5-0.4-0.5-0.4l-15.3,21c0,0,0.3,0.2,0.7,0.5
			C87.4,290.7,87.7,290.9,87.7,290.9z"/>
		<path class="st0" d="M83.6,276l11.2-12.5c0,0-0.1-0.1-0.1-0.1c-0.1-0.1-0.2-0.2-0.3-0.3c-0.2-0.2-0.5-0.4-0.5-0.4l-11.4,12.3
			c0,0,0.3,0.3,0.5,0.5c0.1,0.1,0.3,0.3,0.4,0.3C83.5,275.9,83.6,276,83.6,276z"/>
		<path class="st0" d="M75.1,315.9c0,0,0.4,0.3,0.9,0.6c0.2,0.1,0.4,0.3,0.6,0.4c0.2,0.1,0.3,0.2,0.3,0.2l17.9-27.9l11-17.2l-1-0.7
			L95.6,285L75.1,315.9z"/>
		<polygon class="st0" points="77.1,306 78.7,307.1 94.3,284.2 103.7,270.5 102.6,269.8 87.7,290.9 		"/>
		<polygon class="st0" points="92.5,302.2 109,273.8 107.9,273.2 91,301.3 		"/>
		<path class="st0" d="M80.3,315.3c0,0,0.4,0.3,0.9,0.5c0.4,0.3,0.9,0.5,0.9,0.5l9-15.1l16.9-28.2c0,0-0.3-0.2-0.5-0.3
			c-0.3-0.2-0.5-0.3-0.5-0.3L96,289.9L80.3,315.3z"/>
		<polygon class="st0" points="96,289.9 106.8,272.5 105.8,271.8 94.7,289.1 		"/>
		<path class="st0" d="M95.6,285l9.1-13.8c0,0-0.3-0.2-0.5-0.3c-0.1-0.1-0.3-0.2-0.4-0.2c-0.1-0.1-0.2-0.1-0.2-0.1l-9.4,13.7
			c0,0,0.1,0.1,0.2,0.1c0.1,0.1,0.3,0.2,0.4,0.3C95.2,284.8,95.6,285,95.6,285z"/>
		<path class="st0" d="M86.9,276.7l9.8-11.6c0,0-0.2-0.2-0.5-0.4c-0.1-0.1-0.2-0.2-0.3-0.3c-0.1-0.1-0.1-0.1-0.1-0.1l-10,11.4
			c0,0,0.1,0.1,0.2,0.2c0.1,0.1,0.2,0.2,0.4,0.3C86.6,276.5,86.9,276.7,86.9,276.7z"/>
		<polygon class="st0" points="63.7,298.1 65.1,299.4 85.8,275.8 95.8,264.3 94.8,263.5 83.6,276 		"/>
		<path class="st0" d="M67.2,312.8c0,0,0.1,0.1,0.3,0.2c0.2,0.1,0.4,0.3,0.6,0.4c0.4,0.3,0.8,0.6,0.8,0.6l17.5-24l15.3-21
			c0,0-0.3-0.2-0.5-0.4c-0.1-0.1-0.3-0.2-0.3-0.3c-0.1-0.1-0.2-0.1-0.2-0.1l-7.3,9.8L67.2,312.8z"/>
		<path class="st0" d="M65.5,302c0,0,0.4,0.3,0.8,0.6c0.2,0.2,0.4,0.3,0.5,0.4c0.1,0.1,0.2,0.2,0.2,0.2l17.9-21.8L97.7,266
			c0,0-0.1,0-0.2-0.1c-0.1-0.1-0.2-0.2-0.3-0.3c-0.2-0.2-0.5-0.4-0.5-0.4l-9.8,11.6L65.5,302z"/>
		<polygon class="st0" points="93.3,278 100.6,268.3 99.6,267.5 92.1,277.2 		"/>
		<path class="st0" d="M73.9,297.7c0,0,0.4,0.3,0.7,0.6c0.4,0.3,0.7,0.6,0.7,0.6l16.8-21.7l7.5-9.7c0,0-0.2-0.2-0.5-0.4
			c-0.2-0.2-0.5-0.4-0.5-0.4l-12.5,15.7L73.9,297.7z"/>
		<polygon class="st0" points="86.1,282.4 98.6,266.7 97.7,266 84.9,281.5 		"/>
		<path class="st0" d="M67.9,288c0,0,0.1,0.1,0.2,0.2c0.1,0.1,0.3,0.3,0.5,0.4c0.3,0.3,0.7,0.6,0.7,0.6l13.3-14.3l11.4-12.3
			c0,0-0.2-0.2-0.5-0.4c-0.1-0.1-0.2-0.2-0.3-0.3c-0.1-0.1-0.1-0.1-0.1-0.1l-15.5,16.3L67.9,288z"/>
	</g>
	<g>
		<polygon class="st0" points="62.6,245.5 76,238.8 75.4,237.7 32.2,258.5 33.1,260.3 		"/>
		<path class="st0" d="M58.1,253.1l19.6-11c0,0-0.2-0.3-0.3-0.5c-0.1-0.1-0.2-0.3-0.2-0.4c-0.1-0.1-0.1-0.2-0.1-0.2l-19.8,10.7
			c0,0,0,0.1,0.1,0.2c0.1,0.1,0.2,0.3,0.3,0.5C57.9,252.7,58.1,253.1,58.1,253.1z"/>
		<path class="st0" d="M63.3,246.8l13.2-6.9c0,0,0-0.1-0.1-0.2c-0.1-0.1-0.1-0.2-0.2-0.4c-0.1-0.3-0.3-0.6-0.3-0.6l-13.3,6.7
			c0,0,0.2,0.3,0.3,0.7c0.1,0.2,0.2,0.3,0.2,0.4C63.3,246.7,63.3,246.8,63.3,246.8z"/>
		<polygon class="st0" points="39.1,259.4 39.9,261.1 57.3,251.7 77.1,241 76.5,239.9 63.3,246.8 		"/>
		<polygon class="st0" points="64.1,268.4 84.6,252.5 83.9,251.5 63.1,267.1 		"/>
		<polygon class="st0" points="64.6,252.9 79,244.3 78.3,243.2 63.8,251.6 		"/>
		<path class="st0" d="M44.8,288.5c0,0,0.1,0.1,0.2,0.2c0.1,0.1,0.3,0.3,0.5,0.5c0.3,0.4,0.7,0.8,0.7,0.8l25.3-21.4L87,255.4
			c0,0-0.2-0.2-0.4-0.5c-0.1-0.1-0.2-0.2-0.3-0.3c-0.1-0.1-0.1-0.2-0.1-0.2L73.4,265L44.8,288.5z"/>
		<path class="st0" d="M49.6,279.7c0,0,0.3,0.4,0.6,0.8c0.3,0.4,0.6,0.7,0.6,0.7l21.7-17.3l13-10.3c0,0-0.2-0.2-0.4-0.5
			c-0.2-0.2-0.4-0.5-0.4-0.5l-20.5,15.9L49.6,279.7z"/>
		<path class="st0" d="M65.4,280.6l24.1-22.3c0,0-0.2-0.2-0.4-0.5c-0.1-0.1-0.2-0.2-0.3-0.3c-0.1-0.1-0.1-0.1-0.1-0.1l-24.4,22
			c0,0,0.1,0.1,0.2,0.2c0.1,0.1,0.3,0.3,0.4,0.4C65.1,280.3,65.4,280.6,65.4,280.6z"/>
		<polygon class="st0" points="49.9,289.5 51.2,291 64.2,279.3 88.6,257.3 87.8,256.4 72.4,269.8 		"/>
		<path class="st0" d="M72.4,269.8l15.4-13.5c0,0-0.1-0.1-0.1-0.1c-0.1-0.1-0.2-0.2-0.3-0.3c-0.2-0.2-0.4-0.5-0.4-0.5l-15.6,13.2
			c0,0,0.3,0.3,0.5,0.6c0.1,0.1,0.3,0.3,0.3,0.4C72.3,269.8,72.4,269.8,72.4,269.8z"/>
		<polygon class="st0" points="73.4,265 86.2,254.5 85.4,253.5 72.4,263.8 		"/>
		<polygon class="st0" points="67.5,254.6 80.3,246.4 79.6,245.3 66.7,253.3 		"/>
		<path class="st0" d="M39,268.2c0,0,0.2,0.4,0.5,0.8c0.3,0.4,0.5,0.8,0.5,0.8l26.7-16.5l12.9-8c0,0-0.2-0.3-0.3-0.5
			c-0.2-0.3-0.3-0.5-0.3-0.5l-14.4,8.6L39,268.2z"/>
		<path class="st0" d="M38.1,283.3c0,0,0.3,0.4,0.6,0.8c0.2,0.2,0.3,0.4,0.4,0.6c0.1,0.2,0.2,0.3,0.2,0.3l23.8-17.9l20.7-15.6
			c0,0,0-0.1-0.1-0.2c-0.1-0.1-0.2-0.2-0.3-0.3c-0.2-0.3-0.4-0.5-0.4-0.5l-9.9,7.2L38.1,283.3z"/>
		<polygon class="st0" points="39.6,272.4 40.7,274.1 64.2,258.5 81,247.4 80.3,246.4 67.5,254.6 		"/>
		<path class="st0" d="M73.2,257.7l9.9-7.2c0,0-0.2-0.3-0.4-0.5c-0.2-0.2-0.4-0.5-0.4-0.5l-10,7c0,0,0.2,0.3,0.4,0.6
			C73,257.4,73.2,257.7,73.2,257.7z"/>
		<polygon class="st0" points="48.9,270.8 50,272.4 72.4,256.5 82.4,249.5 81.7,248.5 65.1,259.8 		"/>
		<path class="st0" d="M65.1,259.8l16.6-11.3c0,0,0-0.1-0.1-0.2c-0.1-0.1-0.2-0.2-0.2-0.4c-0.2-0.3-0.3-0.5-0.3-0.5l-16.8,11.1
			c0,0,0.2,0.3,0.4,0.6c0.1,0.2,0.2,0.3,0.3,0.4C65,259.7,65.1,259.8,65.1,259.8z"/>
		<path class="st0" d="M46.1,259.8c0,0,0.2,0.4,0.4,0.8c0.1,0.2,0.2,0.4,0.3,0.5c0.1,0.1,0.1,0.2,0.1,0.2l16.9-9.8l14.5-8.4
			c0,0,0-0.1-0.1-0.2c-0.1-0.1-0.1-0.2-0.2-0.4c-0.2-0.3-0.3-0.5-0.3-0.5l-19.6,11L46.1,259.8z"/>
	</g>
	<g>
		<path class="st0" d="M53.6,217.6l14.7-2.4c0,0-0.1-0.3-0.1-0.6c-0.1-0.3-0.1-0.6-0.1-0.6L20.7,221c0,0,0.1,0.5,0.2,1
			c0.1,0.5,0.2,1,0.2,1L53.6,217.6z"/>
		<path class="st0" d="M47,223.5l22-4.7c0,0-0.1-0.3-0.1-0.6c-0.1-0.3-0.1-0.6-0.1-0.6l-22.1,4.3c0,0,0.1,0.4,0.1,0.8
			C46.9,223.1,47,223.5,47,223.5z"/>
		<path class="st0" d="M53.8,219l14.7-2.6c0,0,0-0.1,0-0.2c0-0.1,0-0.3-0.1-0.4c-0.1-0.3-0.1-0.6-0.1-0.6l-14.7,2.4
			c0,0,0.1,0.4,0.1,0.7c0,0.2,0.1,0.4,0.1,0.5C53.8,218.9,53.8,219,53.8,219z"/>
		<polygon class="st0" points="26.9,223.9 27.3,225.7 46.7,221.9 68.7,217.6 68.5,216.4 53.8,219 		"/>
		<path class="st0" d="M48.2,239.9l24.3-9.1c0,0-0.1-0.3-0.2-0.6c-0.1-0.3-0.2-0.6-0.2-0.6l-24.4,8.8c0,0,0.1,0.4,0.3,0.8
			C48.1,239.5,48.2,239.9,48.2,239.9z"/>
		<path class="st0" d="M53.3,225.2l16.3-4c0,0-0.1-0.3-0.1-0.6c-0.1-0.3-0.1-0.6-0.1-0.6l-16.3,3.7c0,0,0.1,0.4,0.2,0.7
			C53.2,224.9,53.3,225.2,53.3,225.2z"/>
		<path class="st0" d="M23.8,253.4c0,0,0.2,0.5,0.4,1c0.1,0.2,0.2,0.5,0.3,0.7c0.1,0.2,0.1,0.3,0.1,0.3l30.5-13l18.8-8
			c0,0,0-0.1-0.1-0.2c0-0.1-0.1-0.3-0.2-0.4c-0.1-0.3-0.2-0.6-0.2-0.6l-15.3,6.3L23.8,253.4z"/>
		<polygon class="st0" points="31,246.4 31.6,248.2 57.5,238 72.9,232 72.5,230.8 48.2,239.9 		"/>
		<polygon class="st0" points="45.8,251.9 75.4,237.7 74.9,236.5 45.1,250.4 		"/>
		<path class="st0" d="M28.4,255.9c0,0,0.1,0.1,0.1,0.3c0.1,0.2,0.2,0.4,0.3,0.6c0.2,0.5,0.4,0.9,0.4,0.9l15.9-7.4l29.8-13.8
			c0,0-0.1-0.3-0.3-0.6c-0.1-0.1-0.1-0.3-0.2-0.4c0-0.1-0.1-0.2-0.1-0.2l-18.7,8.3L28.4,255.9z"/>
		<polygon class="st0" points="55.7,243.7 74.4,235.4 73.9,234.3 55.1,242.3 		"/>
		<path class="st0" d="M58.1,239.4l15.3-6.3c0,0-0.1-0.3-0.2-0.6c-0.1-0.1-0.1-0.3-0.2-0.4c0-0.1-0.1-0.2-0.1-0.2L57.5,238
			c0,0,0,0.1,0.1,0.2c0.1,0.1,0.1,0.3,0.2,0.5C57.9,239.1,58.1,239.4,58.1,239.4z"/>
		<polygon class="st0" points="55.6,227.7 70.2,223.7 69.8,222.5 55.2,226.3 		"/>
		<path class="st0" d="M24.3,232.3c0,0,0.1,0.5,0.2,0.9c0.1,0.2,0.1,0.5,0.2,0.7c0,0.2,0.1,0.3,0.1,0.3l30.4-7.9l14.7-3.8
			c0,0,0-0.1-0.1-0.2c0-0.1-0.1-0.3-0.1-0.4c-0.1-0.3-0.1-0.6-0.1-0.6l-16.3,4L24.3,232.3z"/>
		<polygon class="st0" points="18.9,246.4 19.6,248.4 47.6,238.4 72.1,229.6 71.6,228.4 60.1,232.4 		"/>
		<path class="st0" d="M23.6,236.5c0,0,0.1,0.5,0.3,1c0.1,0.5,0.3,0.9,0.3,0.9l27.1-7.9l19.3-5.6c0,0-0.1-0.3-0.2-0.6
			c-0.1-0.3-0.2-0.6-0.2-0.6l-14.6,4L23.6,236.5z"/>
		<path class="st0" d="M60.1,232.4l11.6-3.9c0,0,0-0.1-0.1-0.2c0-0.1-0.1-0.3-0.1-0.4c-0.1-0.3-0.2-0.6-0.2-0.6L59.6,231
			c0,0,0.1,0.3,0.2,0.7c0.1,0.2,0.1,0.3,0.2,0.5C60.1,232.3,60.1,232.4,60.1,232.4z"/>
		<path class="st0" d="M33,237.8c0,0,0,0.1,0.1,0.3c0.1,0.2,0.1,0.4,0.2,0.6c0.1,0.4,0.3,0.9,0.3,0.9l26.1-8.5l11.6-3.8
			c0,0-0.1-0.3-0.2-0.6c0-0.1-0.1-0.3-0.1-0.4c0-0.1-0.1-0.2-0.1-0.2L51.7,232L33,237.8z"/>
		<polygon class="st0" points="51.7,232 70.9,226.1 70.5,224.9 51.2,230.5 		"/>
		<polygon class="st0" points="33.5,226.3 33.9,228.1 52.9,223.8 69.3,220.1 69,218.8 47,223.5 		"/>
	</g>
	<g>
		<polygon class="st0" points="53.1,188.2 67.9,190.2 68.1,189 20.7,181.9 20.4,183.8 		"/>
		<path class="st0" d="M45.1,191.9l22.4,2c0,0,0-0.3,0.1-0.6c0-0.2,0-0.3,0-0.4c0-0.1,0-0.2,0-0.2l-22.4-2.3c0,0,0,0.1,0,0.2
			c0,0.1,0,0.3,0,0.5C45.2,191.5,45.1,191.9,45.1,191.9z"/>
		<path class="st0" d="M53,189.7l14.8,1.8c0,0,0-0.3,0.1-0.6c0-0.3,0.1-0.6,0.1-0.6l-14.8-2c0,0-0.1,0.4-0.1,0.7
			C53,189.3,53,189.7,53,189.7z"/>
		<polygon class="st0" points="25.8,186.4 25.6,188.3 45.3,190.4 67.6,192.7 67.8,191.4 53,189.7 		"/>
		<path class="st0" d="M41.4,208l25.9-1.5c0,0,0-0.3,0-0.6c0-0.3,0-0.6,0-0.6l-25.9,1.1c0,0,0,0.4,0,0.8
			C41.4,207.6,41.4,208,41.4,208z"/>
		<polygon class="st0" points="50.6,195.4 67.3,196.4 67.4,195.2 50.7,193.9 		"/>
		<path class="st0" d="M14.1,213.7c0,0,0,0.5,0.1,1c0,0.3,0,0.5,0.1,0.7c0,0.2,0,0.3,0,0.3l32.9-3.4l20.3-2.1c0,0,0-0.1,0-0.2
			c0-0.1,0-0.3,0-0.4c0-0.3-0.1-0.6-0.1-0.6L51,210.4L14.1,213.7z"/>
		<polygon class="st0" points="23.1,209.1 23.2,211 50.9,208.9 67.4,207.7 67.3,206.5 41.4,208 		"/>
		<polygon class="st0" points="35.6,218.8 68.1,213.9 67.9,212.7 35.4,217.1 		"/>
		<path class="st0" d="M17.7,217.4c0,0,0.1,0.5,0.1,1c0.1,0.5,0.1,1,0.1,1l17.4-2.3l32.5-4.4c0,0,0-0.3-0.1-0.6
			c0-0.3-0.1-0.6-0.1-0.6l-20.3,2.4L17.7,217.4z"/>
		<polygon class="st0" points="47.5,213.9 67.8,211.4 67.6,210.2 47.3,212.3 		"/>
		<path class="st0" d="M51,210.4l16.5-1.5c0,0,0-0.3-0.1-0.6c0-0.2,0-0.3,0-0.4c0-0.1,0-0.2,0-0.2l-16.5,1.2c0,0,0,0.1,0,0.2
			c0,0.1,0,0.3,0,0.5C51,210.1,51,210.4,51,210.4z"/>
		<polygon class="st0" points="52.1,198.5 67.2,198.9 67.3,197.7 52.1,197 		"/>
		<path class="st0" d="M20.8,193.7c0,0,0,0.5-0.1,1c0,0.5,0,1,0,1l31.4,1.4l15.1,0.7c0,0,0-0.3,0-0.6c0-0.3,0-0.6,0-0.6l-16.7-1
			L20.8,193.7z"/>
		<polygon class="st0" points="11.6,205.6 11.6,207.7 41.4,206.4 67.3,205.2 67.2,204 55,204.3 		"/>
		<path class="st0" d="M19,197.5c0,0,0,0.1,0,0.3c0,0.2,0,0.4,0,0.7c0,0.5,0,1,0,1l28.2,0.4l20.1,0.3c0,0,0-0.3,0-0.6
			c0-0.2,0-0.3,0-0.4c0-0.1,0-0.2,0-0.2l-15.2-0.4L19,197.5z"/>
		<path class="st0" d="M55,204.3l12.2-0.4c0,0,0-0.1,0-0.2c0-0.1,0-0.3,0-0.4c0-0.3,0-0.6,0-0.6L55,202.9c0,0,0,0.4,0,0.7
			c0,0.2,0,0.4,0,0.5C55,204.2,55,204.3,55,204.3z"/>
		<polygon class="st0" points="27.5,201.4 27.5,203.3 55,202.9 67.2,202.7 67.2,201.4 47.1,201.4 		"/>
		<polygon class="st0" points="47.1,201.4 67.2,201.4 67.2,200.2 47.1,199.9 		"/>
		<path class="st0" d="M31.4,190.7c0,0,0,0.4-0.1,0.9c0,0.2,0,0.4-0.1,0.6c0,0.2,0,0.3,0,0.3l19.5,1.4l16.7,1.2c0,0,0-0.1,0-0.2
			c0-0.1,0-0.3,0-0.4c0-0.3,0.1-0.6,0.1-0.6l-22.4-2L31.4,190.7z"/>
	</g>
	<g>
		<polygon class="st0" points="61.4,160.1 74.9,166.3 75.4,165.2 32.2,144.4 31.4,146.1 		"/>
		<path class="st0" d="M52.6,161.2l20.8,8.5c0,0,0.1-0.3,0.2-0.6c0.1-0.1,0.1-0.3,0.2-0.4c0-0.1,0.1-0.2,0.1-0.2l-20.7-8.8
			c0,0,0,0.1-0.1,0.2c-0.1,0.1-0.1,0.3-0.2,0.5C52.7,160.9,52.6,161.2,52.6,161.2z"/>
		<path class="st0" d="M60.7,161.4l13.6,6.1c0,0,0-0.1,0.1-0.2c0-0.1,0.1-0.3,0.2-0.4c0.1-0.3,0.3-0.6,0.3-0.6l-13.5-6.3
			c0,0-0.2,0.3-0.3,0.7c-0.1,0.2-0.2,0.3-0.2,0.5C60.8,161.3,60.7,161.4,60.7,161.4z"/>
		<polygon class="st0" points="35.8,150.3 35,152 53.2,159.8 73.9,168.6 74.4,167.5 60.7,161.4 		"/>
		<path class="st0" d="M44.3,175.5l25.2,6.1c0,0,0.1-0.3,0.1-0.6c0-0.2,0.1-0.3,0.1-0.4c0-0.1,0.1-0.2,0.1-0.2l-25.1-6.5
			c0,0,0,0.1-0.1,0.2c0,0.1-0.1,0.3-0.1,0.5C44.4,175.1,44.3,175.5,44.3,175.5z"/>
		<polygon class="st0" points="56.8,166.2 72.5,172.1 72.9,170.9 57.3,164.8 		"/>
		<path class="st0" d="M16.6,173c0,0-0.1,0.5-0.2,1c-0.1,0.5-0.2,1-0.2,1l32.5,6.4l20.1,3.9c0,0,0.1-0.3,0.1-0.6
			c0.1-0.3,0.1-0.6,0.1-0.6l-16.2-3.4L16.6,173z"/>
		<path class="st0" d="M26.5,171.1c0,0-0.1,0.5-0.2,0.9c-0.1,0.5-0.2,0.9-0.2,0.9l27.1,6.2l16.2,3.7c0,0,0.1-0.3,0.1-0.6
			c0.1-0.3,0.1-0.6,0.1-0.6l-25.2-6.1L26.5,171.1z"/>
		<path class="st0" d="M35.6,184.1l32.5,4.9c0,0,0-0.3,0.1-0.6c0.1-0.3,0.1-0.6,0.1-0.6l-32.4-5.3c0,0-0.1,0.4-0.1,0.9
			C35.7,183.7,35.6,184.1,35.6,184.1z"/>
		<path class="st0" d="M18.9,177.6c0,0,0,0.1-0.1,0.3c0,0.2-0.1,0.4-0.1,0.7c-0.1,0.5-0.2,1-0.2,1l17.3,2.9l32.4,5.3
			c0,0,0.1-0.3,0.1-0.6c0-0.2,0.1-0.3,0.1-0.4c0-0.1,0-0.2,0-0.2l-20.1-3.6L18.9,177.6z"/>
		<polygon class="st0" points="48.4,182.9 68.5,186.5 68.7,185.3 48.7,181.3 		"/>
		<polygon class="st0" points="52.8,180.6 69,184 69.3,182.8 53.1,179.2 		"/>
		<polygon class="st0" points="57.3,169.5 71.6,174.4 72.1,173.3 57.8,168.1 		"/>
		<path class="st0" d="M28.9,155.7c0,0-0.2,0.5-0.3,0.9c-0.2,0.5-0.3,0.9-0.3,0.9l29.6,10.6l14.3,5.1c0,0,0.1-0.3,0.2-0.6
			c0.1-0.3,0.2-0.6,0.2-0.6l-15.7-5.9L28.9,155.7z"/>
		<polygon class="st0" points="16.5,164.4 15.9,166.4 44.7,173.9 69.8,180.4 70.2,179.2 58.4,176 		"/>
		<path class="st0" d="M25.9,158.8c0,0,0,0.1-0.1,0.3c-0.1,0.2-0.1,0.4-0.2,0.6c-0.2,0.5-0.3,0.9-0.3,0.9l26.8,8.7l19.1,6.2
			c0,0,0.1-0.3,0.2-0.6c0-0.1,0.1-0.3,0.1-0.4c0-0.1,0.1-0.2,0.1-0.2l-14.4-4.9L25.9,158.8z"/>
		<path class="st0" d="M58.4,176l11.8,3.2c0,0,0.1-0.3,0.2-0.6c0.1-0.3,0.2-0.6,0.2-0.6l-11.7-3.4c0,0-0.1,0.3-0.2,0.7
			C58.5,175.6,58.4,176,58.4,176z"/>
		<polygon class="st0" points="33,165.1 32.4,166.9 58.8,174.6 70.5,178 70.9,176.8 51.7,170.9 		"/>
		<path class="st0" d="M51.7,170.9l19.2,5.9c0,0,0-0.1,0.1-0.2c0-0.1,0.1-0.3,0.1-0.4c0.1-0.3,0.2-0.6,0.2-0.6l-19.1-6.2
			c0,0-0.1,0.4-0.2,0.7c-0.1,0.2-0.1,0.4-0.2,0.5C51.7,170.8,51.7,170.9,51.7,170.9z"/>
		<path class="st0" d="M39.8,156c0,0-0.2,0.4-0.3,0.8c-0.1,0.2-0.2,0.4-0.2,0.6c-0.1,0.2-0.1,0.3-0.1,0.3l18.2,7.1l15.6,6.1
			c0,0,0-0.1,0.1-0.2c0-0.1,0.1-0.3,0.2-0.4c0.1-0.3,0.2-0.6,0.2-0.6l-20.8-8.5L39.8,156z"/>
	</g>
	<g>
		<path class="st0" d="M77.5,135.6l11.1,10c0,0,0.1-0.1,0.1-0.1c0.1-0.1,0.2-0.2,0.3-0.3c0.2-0.2,0.4-0.5,0.4-0.5L54.3,112
			c0,0-0.3,0.4-0.7,0.7c-0.2,0.2-0.3,0.4-0.5,0.5c-0.1,0.1-0.2,0.2-0.2,0.2L77.5,135.6z"/>
		<path class="st0" d="M68.8,134.1l17.4,14.3c0,0,0-0.1,0.1-0.2c0.1-0.1,0.2-0.2,0.3-0.3c0.2-0.2,0.4-0.5,0.4-0.5l-17.2-14.6
			c0,0-0.3,0.3-0.5,0.6c-0.1,0.2-0.3,0.3-0.4,0.4C68.9,134,68.8,134.1,68.8,134.1z"/>
		<polygon class="st0" points="76.6,136.7 87.8,146.5 88.6,145.6 77.5,135.6 		"/>
		<path class="st0" d="M56,118.7c0,0-0.1,0.1-0.2,0.2c-0.1,0.1-0.3,0.3-0.4,0.5c-0.3,0.4-0.6,0.7-0.6,0.7l15.1,12.8L87,147.5
			c0,0,0.2-0.2,0.4-0.5c0.1-0.1,0.2-0.2,0.3-0.3c0.1-0.1,0.1-0.1,0.1-0.1l-11.2-9.8L56,118.7z"/>
		<path class="st0" d="M56.7,145.3L79,158.6c0,0,0.2-0.3,0.3-0.5c0.2-0.3,0.3-0.5,0.3-0.5l-22.1-13.7c0,0-0.2,0.3-0.4,0.7
			C56.9,144.9,56.7,145.3,56.7,145.3z"/>
		<path class="st0" d="M71.4,140.1l13.3,10.3c0,0,0.2-0.2,0.4-0.5c0.2-0.2,0.4-0.5,0.4-0.5l-13.1-10.5c0,0-0.2,0.3-0.5,0.6
			C71.6,139.8,71.4,140.1,71.4,140.1z"/>
		<path class="st0" d="M31,134.6c0,0-0.2,0.4-0.5,0.9c-0.1,0.2-0.3,0.4-0.3,0.6c-0.1,0.2-0.2,0.3-0.2,0.3l29.2,15.7l18,9.7
			c0,0,0-0.1,0.1-0.2c0.1-0.1,0.1-0.2,0.2-0.4c0.2-0.3,0.3-0.5,0.3-0.5l-14.5-8.1L31,134.6z"/>
		<polygon class="st0" points="40.9,135.8 40,137.5 64,151.4 78.3,159.7 79,158.6 56.7,145.3 		"/>
		<polygon class="st0" points="45.8,150.9 75.4,165.2 76,164.1 46.6,149.4 		"/>
		<path class="st0" d="M31.8,139.7c0,0-0.1,0.1-0.1,0.3c-0.1,0.2-0.2,0.4-0.3,0.6c-0.2,0.4-0.4,0.9-0.4,0.9l15.7,7.9L76,164.1
			c0,0,0.1-0.3,0.3-0.6c0.1-0.1,0.1-0.3,0.2-0.4c0.1-0.1,0.1-0.2,0.1-0.2l-18.2-9.4L31.8,139.7z"/>
		<polygon class="st0" points="58.4,153.5 76.5,163 77.1,161.9 59.1,152.2 		"/>
		<path class="st0" d="M63.3,152.7l14.5,8.1c0,0,0.2-0.3,0.3-0.5c0.1-0.1,0.2-0.3,0.2-0.4c0.1-0.1,0.1-0.2,0.1-0.2L64,151.4
			c0,0,0,0.1-0.1,0.2c-0.1,0.1-0.2,0.3-0.3,0.4C63.4,152.4,63.3,152.7,63.3,152.7z"/>
		<path class="st0" d="M70.9,143.4l12.3,8.9c0,0,0.2-0.3,0.4-0.5c0.1-0.1,0.2-0.3,0.3-0.3c0.1-0.1,0.1-0.2,0.1-0.2l-12.1-9.1
			c0,0-0.1,0.1-0.1,0.2c-0.1,0.1-0.2,0.3-0.3,0.4C71.1,143.1,70.9,143.4,70.9,143.4z"/>
		<polygon class="st0" points="47.8,121.9 46.6,123.4 71.7,142.3 83.9,151.4 84.6,150.4 71.4,140.1 		"/>
		<polygon class="st0" points="33.4,126.5 32.3,128.2 57.6,143.9 79.6,157.6 80.3,156.5 70,149.9 		"/>
		<path class="st0" d="M44.1,124c0,0-0.3,0.4-0.6,0.8c-0.3,0.4-0.6,0.8-0.6,0.8l23,16.3l16.4,11.6c0,0,0.2-0.3,0.4-0.5
			c0.2-0.3,0.4-0.5,0.4-0.5l-12.3-8.9L44.1,124z"/>
		<polygon class="st0" points="70,149.9 80.3,156.5 81,155.5 70.8,148.7 		"/>
		<path class="st0" d="M48.9,132c0,0-0.1,0.1-0.2,0.2c-0.1,0.1-0.2,0.3-0.4,0.5c-0.3,0.4-0.5,0.8-0.5,0.8l22.9,15.1l10.2,6.7
			c0,0,0.2-0.3,0.3-0.5c0.1-0.1,0.2-0.3,0.2-0.4c0.1-0.1,0.1-0.2,0.1-0.2l-16.6-11.3L48.9,132z"/>
		<polygon class="st0" points="65.1,143.1 81.7,154.4 82.4,153.4 66,141.8 		"/>
		<polygon class="st0" points="58.2,125.4 57,126.7 72.3,138.9 85.4,149.4 86.2,148.4 68.8,134.1 		"/>
	</g>
	<g>
		<polygon class="st0" points="100.2,116.9 107.9,129.7 109,129.1 84.9,87.6 83.2,88.6 		"/>
		<polygon class="st0" points="92.3,113 104.7,131.7 105.8,131 93.6,112.1 		"/>
		<path class="st0" d="M99,117.7l7.9,12.7c0,0,0.3-0.2,0.5-0.3c0.3-0.2,0.5-0.3,0.5-0.3l-7.7-12.8c0,0-0.3,0.2-0.6,0.4
			C99.3,117.5,99,117.7,99,117.7z"/>
		<polygon class="st0" points="84.6,94.4 83,95.4 93.6,112.1 105.8,131 106.8,130.4 99,117.7 		"/>
		<polygon class="st0" points="77.5,120.1 94.8,139.4 95.8,138.5 78.7,119 		"/>
		<polygon class="st0" points="93,119.4 102.6,133.1 103.7,132.4 94.2,118.6 		"/>
		<polygon class="st0" points="55.9,102.3 54.5,103.8 77.7,127.4 92.1,141.9 93,141.1 81.5,129.1 		"/>
		<path class="st0" d="M65.1,106.4c0,0-0.1,0.1-0.2,0.2c-0.1,0.1-0.3,0.3-0.5,0.4c-0.4,0.3-0.7,0.7-0.7,0.7l18.9,20.4l11.3,12.2
			c0,0,0.2-0.2,0.5-0.4c0.1-0.1,0.2-0.2,0.3-0.3c0.1-0.1,0.1-0.1,0.1-0.1l-17.4-19.3L65.1,106.4z"/>
		<path class="st0" d="M65.4,122.3l24.1,22.3c0,0,0.2-0.2,0.4-0.5c0.1-0.1,0.2-0.2,0.3-0.3c0.1-0.1,0.1-0.1,0.1-0.1L66.6,121
			c0,0-0.1,0.1-0.2,0.2c-0.1,0.1-0.3,0.3-0.4,0.4C65.7,122,65.4,122.3,65.4,122.3z"/>
		<polygon class="st0" points="55.3,107.5 53.9,108.9 66.6,121 90.3,143.7 91.2,142.8 76.6,128.5 		"/>
		<path class="st0" d="M76.6,128.5l14.6,14.4c0,0,0.2-0.2,0.4-0.4c0.2-0.2,0.4-0.4,0.4-0.4l-14.4-14.6c0,0-0.3,0.3-0.6,0.5
			C76.9,128.2,76.6,128.5,76.6,128.5z"/>
		<path class="st0" d="M81.5,129.1l11.5,12c0,0,0.1-0.1,0.1-0.1c0.1-0.1,0.2-0.2,0.3-0.3c0.2-0.2,0.5-0.4,0.5-0.4l-11.3-12.2
			c0,0-0.3,0.3-0.5,0.5c-0.1,0.1-0.3,0.3-0.4,0.4C81.6,129,81.5,129.1,81.5,129.1z"/>
		<path class="st0" d="M91.5,122.5l9.1,12.1c0,0,0.1,0,0.2-0.1c0.1-0.1,0.2-0.2,0.3-0.3c0.3-0.2,0.5-0.4,0.5-0.4l-8.9-12.3
			c0,0-0.3,0.2-0.6,0.4c-0.1,0.1-0.3,0.2-0.4,0.3C91.6,122.4,91.5,122.5,91.5,122.5z"/>
		<path class="st0" d="M75.8,95.1c0,0-0.4,0.3-0.8,0.6c-0.4,0.3-0.8,0.6-0.8,0.6l18.5,25.4l8.9,12.3c0,0,0.3-0.2,0.5-0.4
			c0.2-0.2,0.5-0.4,0.5-0.4L93,119.4L75.8,95.1z"/>
		<path class="st0" d="M60.7,95.3c0,0-0.4,0.3-0.8,0.7c-0.2,0.2-0.4,0.3-0.5,0.5c-0.1,0.1-0.2,0.2-0.2,0.2L78.7,119l17.1,19.5
			c0,0,0.1-0.1,0.1-0.1c0.1-0.1,0.2-0.2,0.3-0.3c0.2-0.2,0.5-0.4,0.5-0.4l-7.9-9.3L60.7,95.3z"/>
		<polygon class="st0" points="71.6,96 70.1,97.2 87.3,119.5 99.6,135.4 100.6,134.6 91.5,122.5 		"/>
		<path class="st0" d="M88.8,128.4l7.9,9.3c0,0,0.2-0.2,0.5-0.4c0.1-0.1,0.2-0.2,0.3-0.3c0.1-0.1,0.2-0.1,0.2-0.1l-7.8-9.4
			c0,0-0.1,0.1-0.2,0.1c-0.1,0.1-0.2,0.2-0.4,0.3C89.1,128.2,88.8,128.4,88.8,128.4z"/>
		<polygon class="st0" points="73.9,105.1 72.5,106.3 89.9,127.5 97.7,136.9 98.6,136.1 86.1,120.4 		"/>
		<path class="st0" d="M86.1,120.4l12.5,15.7c0,0,0.2-0.2,0.5-0.4c0.2-0.2,0.5-0.4,0.5-0.4l-12.3-15.9c0,0-0.3,0.2-0.6,0.5
			C86.4,120.2,86.1,120.4,86.1,120.4z"/>
		<path class="st0" d="M84.7,101.5c0,0-0.4,0.2-0.7,0.5c-0.2,0.1-0.4,0.2-0.5,0.3c-0.1,0.1-0.2,0.2-0.2,0.2l11,16.1l9.5,13.8
			c0,0,0.1,0,0.2-0.1c0.1-0.1,0.2-0.2,0.4-0.2c0.3-0.2,0.5-0.3,0.5-0.3L92.3,113L84.7,101.5z"/>
	</g>
	<g>
		<path class="st0" d="M127.3,105.8l3.5,14.5c0,0,0.3-0.1,0.6-0.1c0.3-0.1,0.6-0.1,0.6-0.1l-10.6-46.8c0,0-0.5,0.1-1,0.2
			c-0.5,0.1-1,0.2-1,0.2L127.3,105.8z"/>
		<path class="st0" d="M121,99.7l6.3,21.6c0,0,0.3-0.1,0.6-0.2c0.3-0.1,0.6-0.2,0.6-0.2l-6-21.7c0,0-0.4,0.1-0.8,0.2
			C121.3,99.6,121,99.7,121,99.7z"/>
		<path class="st0" d="M125.9,106.2l3.7,14.4c0,0,0.1,0,0.2-0.1c0.1,0,0.3-0.1,0.4-0.1c0.3-0.1,0.6-0.1,0.6-0.1l-3.5-14.5
			c0,0-0.4,0.1-0.7,0.2c-0.2,0-0.4,0.1-0.5,0.1C126,106.1,125.9,106.2,125.9,106.2z"/>
		<polygon class="st0" points="119.1,79.7 117.2,80.2 122.5,99.2 128.5,120.9 129.7,120.6 125.9,106.2 		"/>
		<path class="st0" d="M104.7,102.1l10.9,23.5c0,0,0.3-0.1,0.6-0.3c0.1-0.1,0.3-0.1,0.4-0.2c0.1,0,0.2-0.1,0.2-0.1l-10.6-23.7
			c0,0-0.1,0-0.2,0.1c-0.1,0.1-0.3,0.1-0.5,0.2C105,101.9,104.7,102.1,104.7,102.1z"/>
		<path class="st0" d="M119.7,106l5.2,15.9c0,0,0.3-0.1,0.6-0.2c0.1,0,0.3-0.1,0.4-0.1c0.1,0,0.2-0.1,0.2-0.1l-4.9-16
			c0,0-0.1,0-0.2,0.1c-0.1,0-0.3,0.1-0.5,0.2C120.1,105.9,119.7,106,119.7,106z"/>
		<path class="st0" d="M89.3,78.8c0,0-0.5,0.2-0.9,0.5c-0.2,0.1-0.5,0.2-0.6,0.3c-0.2,0.1-0.3,0.1-0.3,0.1l15.3,29.4l9.4,18.2
			c0,0,0.1,0,0.2-0.1c0.1-0.1,0.2-0.1,0.4-0.2c0.3-0.1,0.6-0.3,0.6-0.3l-7.4-14.8L89.3,78.8z"/>
		<polygon class="st0" points="96.9,85.4 95.2,86.2 107.3,111.2 114.5,126.2 115.6,125.6 104.7,102.1 		"/>
		<path class="st0" d="M92.5,100.7l16.4,28.4c0,0,0.1,0,0.2-0.1c0.1-0.1,0.2-0.1,0.4-0.2c0.3-0.2,0.5-0.3,0.5-0.3L94,99.8
			c0,0-0.4,0.2-0.8,0.4c-0.2,0.1-0.4,0.2-0.5,0.3C92.6,100.6,92.5,100.7,92.5,100.7z"/>
		<path class="st0" d="M87.2,83.5c0,0-0.1,0.1-0.3,0.1c-0.2,0.1-0.4,0.2-0.6,0.3c-0.4,0.2-0.9,0.5-0.9,0.5L94,99.8l16,28.7
			c0,0,0.3-0.2,0.5-0.3c0.1-0.1,0.3-0.2,0.4-0.2c0.1-0.1,0.2-0.1,0.2-0.1l-9.7-18L87.2,83.5z"/>
		<polygon class="st0" points="101.4,109.9 111.1,127.9 112.2,127.3 102.8,109.1 		"/>
		<polygon class="st0" points="105.9,111.9 113.3,126.7 114.5,126.2 107.3,111.2 		"/>
		<polygon class="st0" points="117.4,108.5 122.5,122.8 123.7,122.4 118.8,108 		"/>
		<path class="st0" d="M110.5,77.7c0,0-0.5,0.2-0.9,0.3c-0.2,0.1-0.5,0.2-0.6,0.2c-0.2,0.1-0.3,0.1-0.3,0.1l10.1,29.7l4.9,14.4
			c0,0,0.1,0,0.2-0.1c0.1,0,0.3-0.1,0.4-0.1c0.3-0.1,0.6-0.2,0.6-0.2l-5.2-15.9L110.5,77.7z"/>
		<polygon class="st0" points="96,73.4 94.1,74.3 106.2,101.4 116.7,125.1 117.9,124.6 113.1,113.4 		"/>
		<path class="st0" d="M106.2,77.3c0,0-0.5,0.2-0.9,0.3c-0.5,0.2-0.9,0.3-0.9,0.3l9.9,26.4l7.1,18.8c0,0,0.3-0.1,0.6-0.2
			c0.3-0.1,0.6-0.2,0.6-0.2l-5.1-14.3L106.2,77.3z"/>
		<path class="st0" d="M113.1,113.4l4.8,11.2c0,0,0.1,0,0.2-0.1c0.1,0,0.3-0.1,0.4-0.2c0.3-0.1,0.6-0.2,0.6-0.2l-4.6-11.3
			c0,0-0.3,0.1-0.7,0.3c-0.2,0.1-0.3,0.1-0.5,0.2C113.2,113.4,113.1,113.4,113.1,113.4z"/>
		<path class="st0" d="M105.7,86.7c0,0-0.1,0-0.3,0.1c-0.2,0.1-0.4,0.2-0.6,0.2c-0.4,0.2-0.9,0.3-0.9,0.3l10.4,25.4l4.6,11.3
			c0,0,0.3-0.1,0.6-0.2c0.1-0.1,0.3-0.1,0.4-0.2c0.1,0,0.2-0.1,0.2-0.1l-7.3-18.7L105.7,86.7z"/>
		<polygon class="st0" points="112.8,105 120.2,123.7 121.3,123.2 114.3,104.4 		"/>
		<polygon class="st0" points="117.1,86.4 115.4,86.9 121.1,105.6 126.1,121.6 127.3,121.3 121,99.7 		"/>
	</g>
	<g>
		<polygon class="st0" points="156.6,103.2 155.7,118.1 157,118.2 160.5,70.3 158.5,70.2 		"/>
		<path class="st0" d="M152.3,95.5l-0.3,22.5c0,0,0.3,0,0.6,0c0.2,0,0.3,0,0.4,0c0.1,0,0.2,0,0.2,0l0.7-22.5c0,0-0.1,0-0.2,0
			c-0.1,0-0.3,0-0.5,0C152.7,95.5,152.3,95.5,152.3,95.5z"/>
		<path class="st0" d="M155.1,103.1l-0.7,14.9c0,0,0.3,0,0.6,0c0.3,0,0.6,0,0.6,0l0.9-14.9c0,0-0.4,0-0.7,0
			C155.5,103.1,155.1,103.1,155.1,103.1z"/>
		<polygon class="st0" points="156.3,75.8 154.4,75.7 153.9,95.5 153.2,118 154.5,118 155.1,103.1 		"/>
		<path class="st0" d="M136,93l3.4,25.7c0,0,0.3,0,0.6-0.1c0.3,0,0.6-0.1,0.6-0.1l-3.1-25.8c0,0-0.4,0-0.8,0.1
			C136.4,92.9,136,93,136,93z"/>
		<polygon class="st0" points="149.2,101.2 149.4,117.9 150.7,117.9 150.7,101.2 		"/>
		<path class="st0" d="M128.3,66.2c0,0-0.5,0.1-1,0.2c-0.3,0-0.5,0.1-0.7,0.1c-0.2,0-0.3,0.1-0.3,0.1l5.9,32.6l3.6,20.1
			c0,0,0.1,0,0.2,0c0.1,0,0.3,0,0.4-0.1c0.3-0.1,0.6-0.1,0.6-0.1l-2.7-16.4L128.3,66.2z"/>
		<polygon class="st0" points="133.5,74.7 131.7,75 135.8,102.5 138.2,118.9 139.4,118.7 136,93 		"/>
		<polygon class="st0" points="124.8,88 132.1,120 133.3,119.7 126.5,87.6 		"/>
		<path class="st0" d="M124.8,70c0,0-0.5,0.1-1,0.2c-0.5,0.1-1,0.2-1,0.2l3.6,17.2l6.8,32.1c0,0,0.3-0.1,0.6-0.1
			c0.3-0.1,0.6-0.1,0.6-0.1l-3.9-20.1L124.8,70z"/>
		<polygon class="st0" points="130.6,99.4 134.5,119.5 135.7,119.3 132.1,99.1 		"/>
		<path class="st0" d="M134.3,102.7L137,119c0,0,0.3-0.1,0.6-0.1c0.3-0.1,0.6-0.1,0.6-0.1l-2.5-16.4c0,0-0.4,0-0.7,0.1
			C134.6,102.6,134.3,102.7,134.3,102.7z"/>
		<polygon class="st0" points="146.3,102.9 146.9,118 148.2,118 147.7,102.8 		"/>
		<path class="st0" d="M148.8,71.4c0,0-0.5,0-1,0c-0.2,0-0.5,0-0.7,0c-0.2,0-0.3,0-0.3,0l0.9,31.4l0.4,15.2c0,0,0.1,0,0.2,0
			c0.1,0,0.3,0,0.4,0c0.3,0,0.6,0,0.6,0l-0.2-16.8L148.8,71.4z"/>
		<polygon class="st0" points="136.2,63 134.1,63.2 137.6,92.8 140.7,118.5 141.9,118.4 140.7,106.2 		"/>
		<path class="st0" d="M144.8,69.8c0,0-0.5,0-1,0c-0.5,0-1,0.1-1,0.1l1.7,28.1l1.2,20.1c0,0,0.3,0,0.6,0c0.3,0,0.6,0,0.6,0
			l-0.7-15.1L144.8,69.8z"/>
		<path class="st0" d="M140.7,106.2l1.3,12.1c0,0,0.1,0,0.2,0c0.1,0,0.3,0,0.4,0c0.3,0,0.6-0.1,0.6-0.1l-1.1-12.2c0,0-0.4,0-0.7,0.1
			c-0.2,0-0.4,0-0.5,0C140.8,106.2,140.7,106.2,140.7,106.2z"/>
		<path class="st0" d="M141.5,78.6c0,0-0.1,0-0.3,0c-0.2,0-0.4,0-0.6,0.1c-0.5,0-0.9,0.1-0.9,0.1l2.4,27.4l1.1,12.2
			c0,0,0.3,0,0.6-0.1c0.2,0,0.3,0,0.4,0c0.1,0,0.2,0,0.2,0l-1.5-20L141.5,78.6z"/>
		<polygon class="st0" points="142.9,98.1 144.4,118.2 145.7,118.1 144.5,98 		"/>
		<polygon class="st0" points="152.5,81.7 150.7,81.6 150.7,101.2 150.7,117.9 152,117.9 152.3,95.5 		"/>
	</g>
	<g>
		<polygon class="st0" points="185.3,109.3 180,123.2 181.2,123.7 198.7,79 196.9,78.3 		"/>
		<path class="st0" d="M183.5,100.6l-6.9,21.4c0,0,0.3,0.1,0.6,0.2c0.1,0,0.3,0.1,0.4,0.1c0.1,0,0.2,0.1,0.2,0.1l7.3-21.3
			c0,0-0.1,0-0.2-0.1c-0.1,0-0.3-0.1-0.5-0.2C183.8,100.7,183.5,100.6,183.5,100.6z"/>
		<path class="st0" d="M183.9,108.8l-5,14c0,0,0.3,0.1,0.6,0.2c0.3,0.1,0.6,0.2,0.6,0.2l5.2-14c0,0-0.3-0.1-0.7-0.3
			C184.3,108.9,183.9,108.8,183.9,108.8z"/>
		<polygon class="st0" points="193.1,83 191.4,82.4 185,101.1 177.7,122.4 178.9,122.8 183.9,108.8 		"/>
		<path class="st0" d="M168.6,93.5l-4.2,25.6c0,0,0.3,0.1,0.6,0.1c0.2,0,0.3,0.1,0.4,0.1c0.1,0,0.2,0,0.2,0l4.6-25.5
			c0,0-0.1,0-0.3,0c-0.2,0-0.4-0.1-0.6-0.1C169,93.5,168.6,93.5,168.6,93.5z"/>
		<polygon class="st0" points="178.8,105.2 174.1,121.3 175.3,121.6 180.3,105.6 		"/>
		<path class="st0" d="M169.1,65.6c0,0-0.5-0.1-1-0.1c-0.5-0.1-1-0.1-1-0.1l-3.9,32.9l-2.4,20.3c0,0,0.3,0,0.6,0.1
			c0.3,0,0.6,0.1,0.6,0.1l2.2-16.4L169.1,65.6z"/>
		<path class="st0" d="M171.6,75.3c0,0-0.5-0.1-0.9-0.2c-0.5-0.1-0.9-0.1-0.9-0.1l-4.1,27.5l-2.5,16.4c0,0,0.3,0,0.6,0.1
			c0.3,0.1,0.6,0.1,0.6,0.1l4.2-25.6L171.6,75.3z"/>
		<path class="st0" d="M159.4,85.4l-2.4,32.7c0,0,0.1,0,0.2,0c0.1,0,0.3,0,0.4,0c0.3,0,0.6,0.1,0.6,0.1l2.9-32.7c0,0-0.4,0-0.9-0.1
			c-0.2,0-0.4,0-0.6-0.1C159.5,85.4,159.4,85.4,159.4,85.4z"/>
		<path class="st0" d="M164.7,68.3c0,0-0.1,0-0.3,0c-0.2,0-0.4,0-0.7-0.1c-0.5,0-1-0.1-1-0.1l-1.6,17.5l-2.9,32.7c0,0,0.3,0,0.6,0.1
			c0.2,0,0.3,0,0.4,0c0.1,0,0.2,0,0.2,0l2.1-20.3L164.7,68.3z"/>
		<polygon class="st0" points="161.6,98 159.5,118.4 160.7,118.5 163.1,98.2 		"/>
		<polygon class="st0" points="164.1,102.2 161.9,118.7 163.2,118.9 165.6,102.5 		"/>
		<polygon class="st0" points="175.5,105.9 171.7,120.6 172.9,120.9 177,106.3 		"/>
		<path class="st0" d="M187.2,76.6c0,0-0.5-0.1-0.9-0.3c-0.5-0.1-0.9-0.3-0.9-0.3l-8.3,30.3l-4,14.6c0,0,0.3,0.1,0.6,0.2
			c0.3,0.1,0.6,0.2,0.6,0.2l4.7-16.1L187.2,76.6z"/>
		<polygon class="st0" points="177.6,64.9 175.5,64.5 170.2,93.7 165.6,119.3 166.9,119.5 169.2,107.5 		"/>
		<path class="st0" d="M183.8,73.8c0,0-0.1,0-0.3-0.1c-0.2,0-0.4-0.1-0.7-0.2c-0.5-0.1-1-0.2-1-0.2l-6.7,27.4l-4.7,19.5
			c0,0,0.3,0.1,0.6,0.1c0.2,0,0.3,0.1,0.4,0.1c0.1,0,0.2,0.1,0.2,0.1l3.8-14.7L183.8,73.8z"/>
		<path class="st0" d="M169.2,107.5l-2.3,12c0,0,0.3,0.1,0.6,0.1c0.3,0.1,0.6,0.1,0.6,0.1l2.5-11.9c0,0-0.3-0.1-0.7-0.2
			C169.6,107.6,169.2,107.5,169.2,107.5z"/>
		<polygon class="st0" points="178.1,81.3 176.3,80.9 170.6,107.8 168.1,119.7 169.3,120 173.8,100.4 		"/>
		<path class="st0" d="M173.8,100.4l-4.5,19.6c0,0,0.3,0.1,0.6,0.1c0.3,0.1,0.6,0.1,0.6,0.1l4.7-19.5c0,0-0.4-0.1-0.8-0.2
			C174.1,100.5,173.8,100.4,173.8,100.4z"/>
		<path class="st0" d="M187.7,87.5c0,0-0.4-0.1-0.9-0.3c-0.2-0.1-0.4-0.1-0.6-0.2c-0.2,0-0.3-0.1-0.3-0.1l-5.7,18.7l-4.9,16
			c0,0,0.1,0,0.2,0.1c0.1,0,0.3,0.1,0.4,0.1c0.3,0.1,0.6,0.2,0.6,0.2l6.9-21.4L187.7,87.5z"/>
	</g>
	<g>
		<path class="st0" d="M210.9,123.6l-9.1,11.8c0,0,0.2,0.2,0.5,0.4c0.2,0.2,0.5,0.4,0.5,0.4l29.9-37.5c0,0-0.4-0.3-0.8-0.6
			c-0.4-0.3-0.8-0.6-0.8-0.6L210.9,123.6z"/>
		<path class="st0" d="M211.7,114.7l-13,18.4c0,0,0.3,0.2,0.5,0.4c0.3,0.2,0.5,0.4,0.5,0.4l13.2-18.2c0,0-0.3-0.2-0.6-0.5
			C212,115,211.7,114.7,211.7,114.7z"/>
		<polygon class="st0" points="209.7,122.7 200.8,134.6 201.8,135.4 210.9,123.6 		"/>
		<path class="st0" d="M226.1,100.8c0,0-0.1-0.1-0.2-0.2c-0.1-0.1-0.3-0.2-0.5-0.4c-0.4-0.3-0.8-0.6-0.8-0.6l-11.6,16l-13.2,18.2
			c0,0,0.3,0.2,0.5,0.4c0.1,0.1,0.3,0.2,0.3,0.3c0.1,0.1,0.2,0.1,0.2,0.1l9-11.9L226.1,100.8z"/>
		<path class="st0" d="M199.7,103.5L188,126.7c0,0,0.3,0.1,0.6,0.3c0.1,0.1,0.3,0.1,0.4,0.2c0.1,0.1,0.2,0.1,0.2,0.1l12-23
			c0,0-0.1,0-0.2-0.1c-0.1-0.1-0.3-0.2-0.5-0.3C200,103.7,199.7,103.5,199.7,103.5z"/>
		<path class="st0" d="M205.9,117.7l-9.2,14c0,0,0.3,0.2,0.5,0.3c0.1,0.1,0.3,0.2,0.4,0.2c0.1,0.1,0.2,0.1,0.2,0.1l9.5-13.8
			c0,0-0.1-0.1-0.2-0.1c-0.1-0.1-0.3-0.2-0.4-0.3C206.2,117.9,205.9,117.7,205.9,117.7z"/>
		<path class="st0" d="M208.3,77c0,0-0.5-0.2-0.9-0.4c-0.2-0.1-0.5-0.2-0.6-0.3c-0.2-0.1-0.3-0.1-0.3-0.1L193,106.4l-8.3,18.7
			c0,0,0.1,0,0.2,0.1c0.1,0,0.3,0.1,0.4,0.2c0.3,0.1,0.6,0.3,0.6,0.3l7-15L208.3,77z"/>
		<polygon class="st0" points="207.9,87.1 206.2,86.2 194.1,111.2 186.9,126.2 188,126.7 199.7,103.5 		"/>
		<path class="st0" d="M193.2,93.1l-12,30.6c0,0,0.1,0,0.2,0.1c0.1,0,0.3,0.1,0.4,0.2c0.3,0.1,0.6,0.2,0.6,0.2l12.5-30.4
			c0,0-0.4-0.2-0.8-0.3c-0.2-0.1-0.4-0.2-0.6-0.2C193.3,93.1,193.2,93.1,193.2,93.1z"/>
		<path class="st0" d="M203.3,78.3c0,0-0.1-0.1-0.3-0.1c-0.2-0.1-0.4-0.2-0.6-0.3c-0.5-0.2-0.9-0.4-0.9-0.4l-6.7,16.2l-12.5,30.4
			c0,0,0.3,0.1,0.6,0.2c0.1,0.1,0.3,0.1,0.4,0.2c0.1,0,0.2,0.1,0.2,0.1l8-18.8L203.3,78.3z"/>
		<polygon class="st0" points="191.6,105.8 183.5,124.6 184.7,125.1 193,106.4 		"/>
		<polygon class="st0" points="192.8,110.6 185.8,125.6 186.9,126.2 194.1,111.2 		"/>
		<polygon class="st0" points="202.6,117.5 194.6,130.4 195.6,131 203.8,118.3 		"/>
		<polygon class="st0" points="222.4,92.9 220.7,91.8 203.8,118.3 195.6,131 196.7,131.7 205.9,117.7 		"/>
		<polygon class="st0" points="216.7,78.9 214.8,77.9 201.1,104.3 189.2,127.3 190.3,127.9 196.1,117.1 		"/>
		<path class="st0" d="M220,89.3c0,0-0.4-0.3-0.8-0.5c-0.4-0.3-0.8-0.5-0.8-0.5l-14.5,24.2l-10.3,17.2c0,0,0.3,0.2,0.5,0.3
			c0.3,0.2,0.5,0.3,0.5,0.3l8-12.9L220,89.3z"/>
		<path class="st0" d="M196.1,117.1l-5.8,10.7c0,0,0.1,0,0.2,0.1c0.1,0.1,0.2,0.1,0.4,0.2c0.3,0.2,0.5,0.3,0.5,0.3l6-10.7
			c0,0-0.3-0.2-0.6-0.3c-0.2-0.1-0.3-0.2-0.4-0.2C196.1,117.2,196.1,117.1,196.1,117.1z"/>
		<path class="st0" d="M212.3,94.7c0,0-0.1-0.1-0.2-0.1c-0.2-0.1-0.4-0.2-0.6-0.3c-0.4-0.2-0.8-0.5-0.8-0.5l-13.4,24l-6,10.7
			c0,0,0.3,0.2,0.5,0.3c0.1,0.1,0.3,0.2,0.4,0.2c0.1,0.1,0.2,0.1,0.2,0.1l10.1-17.4L212.3,94.7z"/>
		<polygon class="st0" points="202.5,111.7 192.4,129.1 193.5,129.7 203.8,112.5 		"/>
		<polygon class="st0" points="219.7,103.5 218.2,102.5 207.2,118.6 197.7,132.4 198.7,133.1 211.7,114.7 		"/>
	</g>
	<g>
		<polygon class="st0" points="231.2,144.8 219,153.4 219.7,154.4 259.3,127.3 258.2,125.7 		"/>
		<polygon class="st0" points="234.6,136.6 216.8,150.4 217.5,151.4 235.5,137.9 		"/>
		<path class="st0" d="M230.3,143.6l-12.1,8.8c0,0,0.2,0.3,0.4,0.5c0.2,0.2,0.4,0.5,0.4,0.5l12.2-8.6c0,0-0.2-0.3-0.4-0.6
			C230.6,143.9,230.3,143.6,230.3,143.6z"/>
		<path class="st0" d="M252.4,127.5c0,0-0.3-0.4-0.6-0.8c-0.1-0.2-0.3-0.4-0.4-0.5c-0.1-0.1-0.2-0.2-0.2-0.2l-15.8,11.9l-18,13.5
			c0,0,0,0.1,0.1,0.2c0.1,0.1,0.2,0.2,0.3,0.3c0.2,0.3,0.4,0.5,0.4,0.5l12.1-8.8L252.4,127.5z"/>
		<polygon class="st0" points="226.3,122.3 208.4,141.1 209.3,141.9 227.5,123.5 		"/>
		<polygon class="st0" points="228.2,137.8 215.2,148.4 216,149.4 229.1,138.9 		"/>
		<polygon class="st0" points="242.4,99.6 240.9,98.2 219.1,123.1 205.6,138.5 206.6,139.4 217.7,127.1 		"/>
		<path class="st0" d="M239.1,109c0,0-0.1-0.1-0.2-0.2c-0.1-0.1-0.3-0.3-0.5-0.4c-0.3-0.3-0.7-0.7-0.7-0.7l-18.9,20.4l-11.3,12.2
			c0,0,0.2,0.2,0.5,0.4c0.1,0.1,0.2,0.2,0.3,0.3c0.1,0.1,0.1,0.1,0.1,0.1l17.9-18.7L239.1,109z"/>
		<polygon class="st0" points="223.2,110.5 202.7,136.1 203.7,136.9 224.6,111.6 		"/>
		<path class="st0" d="M237.3,99.3c0,0-0.4-0.3-0.8-0.6c-0.2-0.2-0.4-0.3-0.5-0.4c-0.1-0.1-0.2-0.2-0.2-0.2l-11.1,13.5l-20.9,25.4
			c0,0,0.1,0,0.2,0.1c0.1,0.1,0.2,0.2,0.3,0.3c0.2,0.2,0.5,0.4,0.5,0.4l13.2-15.6L237.3,99.3z"/>
		<path class="st0" d="M217.9,122.1l-13.2,15.6c0,0,0.2,0.2,0.5,0.4c0.1,0.1,0.2,0.2,0.3,0.3c0.1,0.1,0.1,0.1,0.1,0.1l13.5-15.4
			c0,0-0.1-0.1-0.2-0.2c-0.1-0.1-0.3-0.2-0.4-0.3C218.2,122.4,217.9,122.1,217.9,122.1z"/>
		<path class="st0" d="M217.7,127.1l-11.1,12.3c0,0,0.1,0.1,0.1,0.1c0.1,0.1,0.2,0.2,0.3,0.3c0.2,0.2,0.5,0.4,0.5,0.4l11.3-12.2
			c0,0-0.3-0.3-0.5-0.5c-0.1-0.1-0.3-0.3-0.4-0.3C217.7,127.1,217.7,127.1,217.7,127.1z"/>
		<path class="st0" d="M225,136.5l-11.4,10c0,0,0.1,0.1,0.1,0.1c0.1,0.1,0.2,0.2,0.3,0.3c0.2,0.2,0.4,0.5,0.4,0.5l11.6-9.8
			c0,0-0.2-0.3-0.5-0.6c-0.1-0.1-0.2-0.3-0.3-0.4C225.1,136.6,225,136.5,225,136.5z"/>
		<path class="st0" d="M251.2,118.8c0,0-0.1-0.1-0.2-0.2c-0.1-0.1-0.3-0.3-0.4-0.5c-0.3-0.4-0.6-0.7-0.6-0.7L226,137.6l-11.6,9.8
			c0,0,0.2,0.2,0.4,0.5c0.1,0.1,0.2,0.2,0.3,0.3c0.1,0.1,0.1,0.2,0.1,0.2l12.9-10.7L251.2,118.8z"/>
		<path class="st0" d="M249.8,103.8c0,0-0.4-0.4-0.7-0.7c-0.4-0.4-0.7-0.7-0.7-0.7l-20.9,21.2l-18.2,18.5c0,0,0.2,0.2,0.4,0.4
			c0.2,0.2,0.4,0.4,0.4,0.4l8.7-8.6L249.8,103.8z"/>
		<polygon class="st0" points="249.9,114.7 248.6,113.2 227.7,132.1 212.8,145.6 213.6,146.5 225,136.5 		"/>
		<polygon class="st0" points="218.9,134.3 210.2,142.8 211.1,143.7 219.9,135.3 		"/>
		<path class="st0" d="M241,117.7c0,0-0.3-0.3-0.6-0.7c-0.2-0.2-0.3-0.3-0.4-0.5c-0.1-0.1-0.2-0.2-0.2-0.2l-19.8,19l-8.8,8.4
			c0,0,0.1,0.1,0.1,0.1c0.1,0.1,0.2,0.2,0.3,0.3c0.2,0.2,0.4,0.5,0.4,0.5l14.7-13.7L241,117.7z"/>
		<path class="st0" d="M226.6,131l-14.7,13.7c0,0,0.2,0.2,0.4,0.5c0.1,0.1,0.2,0.2,0.3,0.3c0.1,0.1,0.1,0.1,0.1,0.1l14.9-13.4
			c0,0-0.1-0.1-0.2-0.2c-0.1-0.1-0.2-0.3-0.4-0.4C226.9,131.3,226.6,131,226.6,131z"/>
		<path class="st0" d="M245.5,128.2c0,0-0.3-0.4-0.5-0.7c-0.3-0.3-0.6-0.7-0.6-0.7l-15.3,12.2L216,149.4c0,0,0.2,0.2,0.4,0.5
			c0.2,0.2,0.4,0.5,0.4,0.5l17.8-13.8L245.5,128.2z"/>
	</g>
	<g>
		<path class="st0" d="M244.3,171l-14.2,4.6c0,0,0.1,0.3,0.2,0.6c0,0.1,0.1,0.3,0.1,0.4c0,0.1,0.1,0.2,0.1,0.2l45.9-14.1
			c0,0,0-0.1-0.1-0.3c-0.1-0.2-0.1-0.4-0.2-0.6c-0.2-0.5-0.3-0.9-0.3-0.9L244.3,171z"/>
		<path class="st0" d="M250,164.2l-21.1,7.9c0,0,0.1,0.3,0.2,0.6c0.1,0.3,0.2,0.6,0.2,0.6l21.2-7.6c0,0-0.1-0.4-0.3-0.7
			C250.1,164.6,250,164.2,250,164.2z"/>
		<path class="st0" d="M243.9,169.6l-14.1,4.8c0,0,0,0.1,0.1,0.2c0,0.1,0.1,0.3,0.1,0.4c0.1,0.3,0.2,0.6,0.2,0.6l14.2-4.6
			c0,0-0.1-0.3-0.2-0.7c-0.1-0.2-0.1-0.3-0.2-0.5C243.9,169.7,243.9,169.6,243.9,169.6z"/>
		<polygon class="st0" points="269.7,160.8 269.1,159 250.5,165.7 229.3,173.3 229.8,174.4 243.9,169.6 		"/>
		<path class="st0" d="M246.3,148.1l-22.6,12.7c0,0,0.2,0.3,0.3,0.5c0.1,0.1,0.2,0.3,0.2,0.4c0.1,0.1,0.1,0.2,0.1,0.2l22.8-12.3
			c0,0,0-0.1-0.1-0.2c-0.1-0.1-0.2-0.3-0.3-0.5C246.5,148.5,246.3,148.1,246.3,148.1z"/>
		<path class="st0" d="M243.5,163.4l-15.5,6.4c0,0,0.1,0.3,0.2,0.6c0.1,0.1,0.1,0.3,0.2,0.4c0,0.1,0.1,0.2,0.1,0.2l15.6-6.1
			c0,0,0-0.1-0.1-0.2c-0.1-0.1-0.1-0.3-0.2-0.5C243.6,163.8,243.5,163.4,243.5,163.4z"/>
		<path class="st0" d="M268.4,131.1c0,0-0.3-0.4-0.5-0.9c-0.3-0.4-0.5-0.9-0.5-0.9l-28.2,17.4l-17.4,10.8c0,0,0.2,0.3,0.3,0.5
			c0.2,0.3,0.3,0.5,0.3,0.5l14.2-8.5L268.4,131.1z"/>
		<path class="st0" d="M262.4,139.2c0,0-0.2-0.4-0.5-0.8c-0.1-0.2-0.2-0.4-0.3-0.6c-0.1-0.2-0.2-0.3-0.2-0.3l-24,13.9l-14.4,8.3
			c0,0,0,0.1,0.1,0.2c0.1,0.1,0.1,0.2,0.2,0.4c0.2,0.3,0.3,0.5,0.3,0.5l22.6-12.7L262.4,139.2z"/>
		<path class="st0" d="M246.8,135.9l-27.1,18.5c0,0,0,0.1,0.1,0.2c0.1,0.1,0.2,0.2,0.2,0.4c0.2,0.3,0.3,0.5,0.3,0.5l27.4-18.1
			c0,0-0.2-0.4-0.5-0.7c-0.1-0.2-0.2-0.4-0.3-0.5C246.9,136,246.8,135.9,246.8,135.9z"/>
		<polygon class="st0" points="263.5,129.3 262.4,127.7 247.8,137.3 220.4,155.5 221.1,156.5 238.3,145.5 		"/>
		<polygon class="st0" points="238.3,145.5 221.1,156.5 221.8,157.6 239.2,146.8 		"/>
		<polygon class="st0" points="236.6,150.1 222.4,158.6 223,159.7 237.4,151.4 		"/>
		<polygon class="st0" points="240.9,161.3 227,167.5 227.5,168.6 241.5,162.7 		"/>
		<path class="st0" d="M271.1,152.1c0,0-0.2-0.5-0.4-0.9c-0.1-0.2-0.2-0.5-0.3-0.6c-0.1-0.2-0.1-0.3-0.1-0.3l-28.9,12.4l-13.9,6
			c0,0,0,0.1,0.1,0.2c0,0.1,0.1,0.3,0.2,0.4c0.1,0.3,0.2,0.6,0.2,0.6l15.5-6.4L271.1,152.1z"/>
		<polygon class="st0" points="274.2,137.3 273.3,135.5 247.1,149.6 224.3,161.9 224.8,163 235.7,157.4 		"/>
		<path class="st0" d="M271.1,147.8c0,0,0-0.1-0.1-0.3c-0.1-0.2-0.2-0.4-0.3-0.6c-0.2-0.4-0.4-0.9-0.4-0.9l-25.6,11.9l-18.2,8.5
			c0,0,0.1,0.3,0.3,0.6c0.1,0.1,0.1,0.3,0.2,0.4c0,0.1,0.1,0.2,0.1,0.2l13.9-6.2L271.1,147.8z"/>
		<path class="st0" d="M235.7,157.4l-10.8,5.6c0,0,0,0.1,0.1,0.2c0.1,0.1,0.1,0.2,0.2,0.4c0.1,0.3,0.3,0.6,0.3,0.6l10.9-5.5
			c0,0-0.2-0.3-0.3-0.6c-0.1-0.2-0.2-0.3-0.2-0.4C235.7,157.4,235.7,157.4,235.7,157.4z"/>
		<polygon class="st0" points="261.7,148 260.9,146.3 236.3,158.6 225.4,164.1 226,165.2 244.1,156.5 		"/>
		<polygon class="st0" points="244.1,156.5 226,165.2 226.5,166.3 244.7,157.9 		"/>
		<polygon class="st0" points="262.9,159.3 262.2,157.7 244.1,164.8 228.5,170.9 228.9,172.1 250,164.2 		"/>
	</g>
	<g>
		<polygon class="st0" points="249.1,200 234.2,200.2 234.2,201.4 282.2,201.4 282.2,199.5 		"/>
		<path class="st0" d="M256.5,195.1l-22.5,1.3c0,0,0,0.3,0,0.6c0,0.3,0,0.6,0,0.6l22.5-1c0,0,0-0.4,0-0.8
			C256.5,195.5,256.5,195.1,256.5,195.1z"/>
		<path class="st0" d="M249.1,198.5l-14.9,0.4c0,0,0,0.1,0,0.2c0,0.1,0,0.3,0,0.4c0,0.3,0,0.6,0,0.6l14.9-0.2c0,0,0-0.4,0-0.7
			c0-0.2,0-0.4,0-0.5C249.1,198.6,249.1,198.5,249.1,198.5z"/>
		<polygon class="st0" points="276.4,197.7 276.3,195.8 256.6,196.7 234.1,197.7 234.2,198.9 249.1,198.5 		"/>
		<path class="st0" d="M257.8,178.7l-25.4,5.4c0,0,0.1,0.3,0.1,0.6c0.1,0.3,0.1,0.6,0.1,0.6l25.5-5c0,0-0.1-0.4-0.2-0.8
			C257.9,179.1,257.8,178.7,257.8,178.7z"/>
		<path class="st0" d="M250.6,192.4l-16.7,1.5c0,0,0,0.3,0.1,0.6c0,0.2,0,0.3,0,0.4c0,0.1,0,0.2,0,0.2l16.7-1.2c0,0,0-0.1,0-0.2
			c0-0.1,0-0.3,0-0.5C250.6,192.8,250.6,192.4,250.6,192.4z"/>
		<path class="st0" d="M283.9,169c0,0-0.1-0.5-0.2-1c-0.1-0.2-0.1-0.5-0.2-0.7c0-0.2-0.1-0.3-0.1-0.3l-32.1,8.3l-19.8,5.1
			c0,0,0,0.1,0.1,0.2c0,0.1,0.1,0.3,0.1,0.4c0.1,0.3,0.1,0.6,0.1,0.6l16.1-3.9L283.9,169z"/>
		<polygon class="st0" points="275.8,174.9 275.4,173 248.3,179.2 232.1,182.8 232.4,184 257.8,178.7 		"/>
		<polygon class="st0" points="261.9,167.1 230.5,176.8 230.9,178 262.4,168.8 		"/>
		<path class="st0" d="M279.8,165.8c0,0-0.1-0.5-0.3-1c-0.1-0.5-0.3-1-0.3-1l-16.8,4.9l-31.5,9.2c0,0,0.1,0.3,0.2,0.6
			c0.1,0.3,0.2,0.6,0.2,0.6l19.7-5.4L279.8,165.8z"/>
		<polygon class="st0" points="250.9,173.8 231.2,179.2 231.5,180.4 251.3,175.3 		"/>
		<path class="st0" d="M248,177.7l-16.1,3.9c0,0,0.1,0.3,0.1,0.6c0.1,0.3,0.1,0.6,0.1,0.6l16.2-3.7c0,0-0.1-0.4-0.2-0.7
			C248,178.1,248,177.7,248,177.7z"/>
		<polygon class="st0" points="248.7,189.6 233.6,191.4 233.8,192.7 248.8,191.1 		"/>
		<path class="st0" d="M280.3,189.8c0,0,0-0.5-0.1-1c0-0.2,0-0.5-0.1-0.7c0-0.2,0-0.3,0-0.3l-31.2,3.2l-15.1,1.6c0,0,0,0.1,0,0.2
			c0,0.1,0,0.3,0,0.4c0,0.3,0.1,0.6,0.1,0.6l16.7-1.5L280.3,189.8z"/>
		<polygon class="st0" points="287.7,176.6 287.3,174.6 258.1,180.3 232.6,185.3 232.9,186.5 244.9,184.3 		"/>
		<path class="st0" d="M281.6,185.7c0,0-0.1-0.5-0.1-1c-0.1-0.5-0.1-1-0.1-1l-27.9,3.8l-19.9,2.7c0,0,0,0.3,0.1,0.6
			c0,0.3,0.1,0.6,0.1,0.6l15.1-1.8L281.6,185.7z"/>
		<path class="st0" d="M244.9,184.3l-12,2.2c0,0,0,0.1,0,0.2c0,0.1,0,0.3,0.1,0.4c0.1,0.3,0.1,0.6,0.1,0.6l12-2c0,0-0.1-0.4-0.1-0.7
			c0-0.2-0.1-0.4-0.1-0.5C244.9,184.4,244.9,184.3,244.9,184.3z"/>
		<path class="st0" d="M272.5,183.1c0,0-0.1-0.5-0.1-0.9c-0.1-0.5-0.2-0.9-0.2-0.9l-27.1,4.5l-12,2c0,0,0.1,0.3,0.1,0.6
			c0.1,0.3,0.1,0.6,0.1,0.6l19.9-3L272.5,183.1z"/>
		<polygon class="st0" points="253.2,186 233.3,189 233.5,190.2 253.4,187.5 		"/>
		<polygon class="st0" points="270.3,194.3 270.2,192.5 250.7,193.9 234,195.2 234.1,196.4 256.5,195.1 		"/>
	</g>
</g>
<g>
	<path class="st1" d="M124.4,219c-1.3-3.7-3.9-5.5-7.9-5.5h-1.3v22.5h1.3c3.1,0,5.3-1.2,6.8-3.7c1.2-2.1,1.8-4.8,1.8-8.1
		C125.2,222.3,124.9,220.5,124.4,219z"/>
	<path class="st1" d="M102.9,219.3c1.3,3.7,3.9,5.5,7.9,5.5h1.3v-22.5h-1.3c-3.1,0-5.3,1.2-6.8,3.7c-1.2,2.1-1.8,4.8-1.8,8.1
		C102.1,216.1,102.4,217.8,102.9,219.3z"/>
	<path class="st1" d="M82,166.2h16.7v6H88v3h8.9v5.7H88v3h10.7v6H82V166.2z"/>
	<path class="st1" d="M107.1,166.2h21.6l-10.8,24.1L107.1,166.2z M117.9,187.4l8.9-19.9H109L117.9,187.4z"/>
	<path class="st1" d="M137.3,166.2H154v6h-10.7v3h8.9v5.7h-8.9v3H154v6h-16.7V166.2z"/>
	<path class="st1" d="M164.3,189.8v-23.6h1.3l16,16.1v-16.1h1.2v23.6L164.3,189.8z"/>
	<path class="st1" d="M200.3,189.9v-17.6h-8.7v-6h18.5v6h-8.7v17.6H200.3z"/>
	<path class="st1" d="M91.8,207c1.4,0,2.6,0.2,3.5,0.7c1,0.5,1.8,1.3,2.4,2.2c0.6,1,0.9,2.1,0.8,3.2c0,1.1-0.3,2.2-0.9,3.1
		c-0.6,0.9-1.4,1.7-2.3,2.2c1.2,0.4,2.2,1.2,3,2.2c0.8,1,1.2,2.3,1.2,3.6c0,1.1-0.3,2.3-0.9,3.2c-0.6,1-1.4,1.8-2.3,2.3
		c-0.5,0.3-1.1,0.5-1.6,0.6c-0.6,0.1-1.4,0.2-2.4,0.2H82.2V207H91.8z"/>
	<path class="st1" d="M130.5,228.9c-1.7-1.5-2.6-3.9-2.6-7h5.4c0,1.3,0.4,2.3,1.1,3c0.8,0.7,1.8,1,3.2,1c1.1,0,2-0.2,2.7-0.6
		c0.7-0.4,1-1,1-1.8c0-0.7-0.3-1.1-1-1.4c-0.6-0.3-1.3-0.5-2-0.6c-0.7-0.1-1.1-0.2-1.2-0.2c-1.5-0.3-3-0.7-4.4-1.2
		c-1.2-0.5-2.3-1.2-3.1-2.2c-0.8-1-1.3-2.3-1.3-3.9c0-1.6,0.4-3,1.3-4.2c0.8-1.1,1.9-2,3.3-2.6c1.5-0.6,3-0.9,4.6-0.8
		c2,0,3.7,0.4,5.2,1.2s2.6,1.9,3.4,3.5c0.4,0.7,0.6,1.4,0.8,2.2c0.1,0.7,0.1,1.3,0.1,2h-5.4c0-1.2-0.3-2.1-1-2.7
		c-0.6-0.6-1.6-0.9-3-0.9c-1.1,0-1.9,0.2-2.5,0.6c-0.6,0.4-0.9,0.9-0.9,1.6c0,0.7,0.4,1.3,1.2,1.6c1,0.4,2,0.7,3,0.9
		c2,0.4,3.5,0.8,4.6,1.2c1.1,0.4,2.1,1.1,2.9,2c0.8,1,1.2,2.3,1.2,4c0,1.6-0.4,3-1.3,4.2c-0.9,1.2-2,2.1-3.5,2.7
		c-1.5,0.6-3.1,0.9-4.7,0.9C134.6,231.2,132.2,230.4,130.5,228.9z"/>
	<path class="st1" d="M160.8,230.6v-17.6h-8.7v-6h18.5v6H162v17.6H160.8z"/>
	<path class="st1" d="M176.9,207h16.7v6h-10.7v3h8.9v5.7h-8.9v3h10.7v6h-16.7V207z"/>
	<path class="st1" d="M218.3,230.6h-17.6V207h8.9c1.9,0,3.5,0.4,4.7,1.1c1.2,0.6,2.1,1.6,2.8,2.8c0.7,1.2,1,2.5,1,3.9
		c0,1.7-0.5,3.4-1.6,4.7c-1,1.4-2.4,2.3-4,2.8L218.3,230.6z M201.9,209v12.2h8.5L201.9,209z M201.9,229.3H216l-4.8-6.9l-1,0h-8.3
		V229.3z M202.7,208.2l9,12.9c1.4-0.3,2.7-1.1,3.7-2.3c0.9-1.2,1.5-2.6,1.4-4.1c0-1.2-0.3-2.4-0.9-3.4c-0.6-1-1.5-1.8-2.5-2.3
		c-1-0.5-2.2-0.7-3.8-0.7H202.7z"/>
</g>
</svg>
