<svg aria-hidden="true" style="position: absolute; width: 0; height: 0; overflow: hidden;" version="1.1"
    xmlns="http://www.w3.org/2000/svg" xmlns:xlink="http://www.w3.org/1999/xlink">
    <defs>
        <symbol id="icon-close" viewBox="0 0 32 32">
            <path fill="#4c00fe" style="fill: var(--color1, #4c00fe)"
                d="M1.646 32c-0.422 0-0.843-0.16-1.163-0.483-0.643-0.643-0.643-1.685 0-2.328l28.707-28.707c0.643-0.643 1.685-0.643 2.328 0s0.643 1.685 0 2.329l-28.707 28.706c-0.323 0.321-0.744 0.483-1.165 0.483z">
            </path>
            <path fill="#4c00fe" style="fill: var(--color1, #4c00fe)"
                d="M30.355 32c-0.422 0-0.843-0.16-1.163-0.483l-28.709-28.706c-0.643-0.643-0.643-1.686 0-2.329s1.685-0.643 2.329 0l28.707 28.707c0.643 0.643 0.643 1.685 0 2.328-0.323 0.321-0.744 0.483-1.163 0.483z">
            </path>
        </symbol>
        <symbol id="open-select" viewBox="0 0 42 32">
            <path fill="#939393" style="fill: var(--color2, #939393)" d="M21 16l-12.99-15h25.981l-12.99 15z"></path>
        </symbol>
        <symbol id="close-select" viewBox="0 0 42 32">
            <path fill="#939393" style="fill: var(--color1, #939393)" d="M21 16l-12.99-15h25.981l-12.99 15z"></path>
        </symbol>
        <symbol id="icon-search" viewBox="0 0 32 32">
            <path fill="#939393" style="fill: var(--color2, #939393)"
                d="M4.024 4.024c2.595-2.595 6.045-4.024 9.715-4.024s7.12 1.429 9.715 4.024c2.595 2.595 4.024 6.045 4.024 9.715 0 3.355-1.195 6.526-3.383 9.029l7.63 7.63c0.366 0.366 0.366 0.961 0 1.327-0.183 0.183-0.423 0.275-0.664 0.275s-0.48-0.092-0.663-0.275l-7.63-7.63c-2.502 2.188-5.673 3.383-9.029 3.383-3.67 0-7.12-1.429-9.715-4.024s-4.024-6.045-4.024-9.715 1.429-7.12 4.024-9.715zM5.351 22.127c4.625 4.625 12.15 4.625 16.775 0s4.625-12.15 0-16.775c-2.313-2.313-5.35-3.469-8.388-3.469s-6.076 1.157-8.388 3.469c-4.625 4.625-4.625 12.15 0 16.775z">
            </path>
        </symbol>
        <symbol id="icon-close-modal" viewBox="0 0 32 32">
            <path fill="" style=""
                d="M1.646 32c-0.422 0-0.843-0.16-1.163-0.483-0.643-0.643-0.643-1.685 0-2.328l28.707-28.707c0.643-0.643 1.685-0.643 2.328 0s0.643 1.685 0 2.329l-28.707 28.706c-0.323 0.321-0.744 0.483-1.165 0.483z">
            </path>
            <path fill="" style=""
                d="M30.355 32c-0.421 0-0.843-0.16-1.163-0.483l-28.709-28.706c-0.643-0.643-0.643-1.686 0-2.329s1.685-0.643 2.329 0l28.707 28.707c0.643 0.643 0.643 1.685 0 2.328-0.323 0.321-0.744 0.483-1.163 0.483z">
            </path>
        </symbol>
        <symbol id="icon-place" viewBox="0 0 42 32">
            <path fill="#939393" style="fill: var(--color1, #939393)" d="M21 16l-12.99-15h25.981l-12.99 15z"></path>
        </symbol>
        <symbol id="icon-location" viewBox="0 0 26 32">
            <path d="M12.075 0c-6.658 0-12.075 4.99-12.075 11.123 0 7.709 12.087 20.877 12.087 20.877s12.063-13.547 12.063-20.877c0-6.133-5.417-11.123-12.075-11.123zM15.718 14.38c-1.005 0.925-2.324 1.388-3.643 1.388s-2.639-0.463-3.643-1.388c-2.009-1.85-2.009-4.861 0-6.712 0.973-0.896 2.267-1.39 3.643-1.39s2.67 0.494 3.643 1.39c2.009 1.851 2.009 4.862 0 6.712z"></path>
        </symbol>
        <symbol id="icon-ticket" viewBox="0 0 45 32">
            <path d="M5.020 1.569h-5.020v30.118h5.020v-30.118z"></path>
            <path d="M17.645 1.569h-5.020v30.118h5.020v-30.118z"></path>
            <path d="M25.25 1.569h-5.019v30.118h5.019v-30.118z"></path>
            <path d="M45.176 1.569h-7.453v30.118h7.453v-30.118z"></path>
            <path d="M10.039 1.569h-2.434v30.118h2.434v-30.118z"></path>
            <path d="M30.118 1.569h-2.434v30.118h2.434v-30.118z"></path>
            <path d="M35.137 1.569h-2.434v30.118h2.434v-30.118z"></path>
        </symbol>
        <symbol id="icon-event-logo" viewBox="0 0 62 32">
            <path fill="#fff" style="fill: var(--color1, #fff)"
                d="M19.119 23.909c-0.575-1.648-1.759-2.472-3.552-2.472h-0.566v10.163h0.566c1.385 0 2.408-0.563 3.068-1.688 0.556-0.96 0.834-2.183 0.834-3.666-0.001-0.883-0.118-1.662-0.35-2.337z">
            </path>
            <path fill="#fff" style="fill: var(--color1, #fff)"
                d="M9.412 24.031c0.576 1.648 1.76 2.471 3.551 2.471h0.566v-10.163h-0.566c-1.385 0-2.408 0.563-3.068 1.688-0.554 0.96-0.831 2.182-0.832 3.666 0 0.882 0.116 1.661 0.348 2.337z">
            </path>
            <path fill="#fff" style="fill: var(--color1, #fff)"
                d="M-0 0.108h7.526v2.692h-4.824v1.346h4.008v2.554h-4.008v1.361h4.824v2.692h-7.526v-10.644z"></path>
            <path fill="#fff" style="fill: var(--color1, #fff)"
                d="M11.31 0.096h9.738l-4.869 10.874-4.869-10.874zM16.179 9.623l4.023-8.962h-8.030l4.008 8.962z"></path>
            <path fill="#fff" style="fill: var(--color1, #fff)"
                d="M24.937 0.108h7.526v2.692h-4.824v1.346h4.008v2.554h-4.008v1.361h4.824v2.692h-7.526v-10.644z"></path>
            <path fill="#fff" style="fill: var(--color1, #fff)"
                d="M37.094 10.737v-10.642h0.579l7.214 7.234v-7.234h0.549v10.644l-8.342-0.003z"></path>
            <path fill="#fff" style="fill: var(--color1, #fff)"
                d="M53.318 10.753v-7.953h-3.904v-2.692h8.342v2.692h-3.904v7.953h-0.534z"></path>
            <path fill="#fff" style="fill: var(--color1, #fff)"
                d="M4.438 18.461c0.653 0 1.173 0.102 1.559 0.306 0.443 0.223 0.816 0.572 1.074 1.005s0.39 0.934 0.381 1.442c0.003 0.49-0.131 0.97-0.386 1.384-0.259 0.424-0.623 0.77-1.054 1.002 0.536 0.195 1.005 0.545 1.351 1.009 0.359 0.459 0.553 1.032 0.549 1.621 0.004 0.515-0.132 1.021-0.393 1.46-0.255 0.436-0.616 0.797-1.046 1.048-0.229 0.127-0.474 0.219-0.727 0.275-0.267 0.061-0.623 0.092-1.069 0.092h-4.572v-10.644h4.334z">
            </path>
            <path fill="#fff" style="fill: var(--color1, #fff)"
                d="M21.842 28.333c-0.777-0.698-1.16-1.746-1.15-3.143h2.419c-0.010 0.581 0.158 1.025 0.505 1.331s0.831 0.459 1.455 0.459c0.515 0 0.92-0.087 1.217-0.26s0.445-0.438 0.445-0.795c0-0.296-0.151-0.51-0.453-0.642-0.288-0.128-0.589-0.223-0.898-0.283-0.297-0.056-0.48-0.090-0.549-0.102-0.672-0.128-1.333-0.316-1.974-0.561-0.538-0.206-1.018-0.548-1.395-0.994-0.376-0.449-0.564-1.040-0.564-1.774s0.188-1.359 0.564-1.873c0.376-0.515 0.878-0.9 1.507-1.155 0.656-0.26 1.353-0.39 2.056-0.382 0.901 0 1.68 0.173 2.338 0.52s1.175 0.872 1.551 1.575c0.174 0.297 0.291 0.627 0.341 0.971 0.039 0.302 0.059 0.606 0.059 0.91h-2.42c0-0.551-0.143-0.956-0.43-1.216s-0.732-0.39-1.336-0.39c-0.485 0-0.861 0.087-1.128 0.26s-0.401 0.408-0.401 0.703c0 0.326 0.178 0.566 0.534 0.719 0.438 0.178 0.89 0.316 1.351 0.413 0.891 0.184 1.586 0.359 2.086 0.528 0.504 0.171 0.953 0.48 1.299 0.895 0.366 0.428 0.549 1.030 0.549 1.805 0 0.734-0.198 1.366-0.594 1.896s-0.918 0.935-1.566 1.216c-0.666 0.284-1.38 0.427-2.1 0.421-1.435-0.002-2.541-0.352-3.318-1.050z">
            </path>
            <path fill="#fff" style="fill: var(--color1, #fff)"
                d="M35.506 29.105v-7.953h-3.904v-2.692h8.342v2.692h-3.904v7.953h-0.534z"></path>
            <path fill="#fff" style="fill: var(--color1, #fff)"
                d="M42.749 18.461h7.526v2.692h-4.824v1.346h4.008v2.554h-4.008v1.361h4.824v2.692h-7.526v-10.644z"></path>
            <path fill="#fff" style="fill: var(--color1, #fff)"
                d="M61.422 29.105h-7.941v-10.644h4.023c0.861 0 1.563 0.158 2.108 0.474 0.52 0.291 0.951 0.725 1.247 1.254 0.298 0.535 0.452 1.142 0.445 1.759 0.007 0.774-0.244 1.528-0.713 2.133-0.448 0.609-1.080 1.047-1.796 1.246l2.628 3.777zM54.030 19.394v5.49h3.815l-3.815-5.49zM54.030 28.539h6.353l-2.167-3.105-0.46 0.015h-3.726v3.089zM54.416 19.026l4.037 5.811c0.648-0.134 1.231-0.496 1.648-1.025 0.428-0.521 0.66-1.183 0.653-1.866 0.006-0.538-0.133-1.067-0.401-1.529-0.267-0.459-0.659-0.826-1.128-1.055-0.435-0.224-1.004-0.336-1.707-0.336h-3.102z">
            </path>
        </symbol>
        <symbol id="icon-unload" viewBox="0 0 24 32">
<path fill="#d400bd" style="fill: var(--color2, #d400bd)" d="M20.296 18.128l-1.752-0.424c0 0-0.008 0.024-0.008 0.048 0 0.016-0.008 0.024-0.008 0.032s-0.008 0.016-0.008 0.016l1.744 0.448c0 0 0-0.008 0.008-0.016 0-0.008 0.008-0.024 0.008-0.040 0.008-0.032 0.016-0.064 0.016-0.064z"></path>
<path fill="#d400bd" style="fill: var(--color2, #d400bd)" d="M20.776 16.904l-2.064-0.184c0 0 0 0.024-0.008 0.048 0 0.016 0 0.024 0 0.032s0 0.016 0 0.016l2.064 0.216c0 0 0-0.008 0-0.024s0-0.032 0-0.048c0.008-0.024 0.008-0.056 0.008-0.056z"></path>
<path fill="#d400bd" style="fill: var(--color2, #d400bd)" d="M22.24 17.032c0 0 0-0.040 0.008-0.080 0-0.016 0-0.040 0.008-0.056 0-0.016 0-0.024 0-0.024l-3.536-0.256c0 0 0 0.008 0 0.016s0 0.024 0 0.032-0.008 0.048-0.008 0.048l2.064 0.184 1.464 0.136z"></path>
<path fill="#d400bd" style="fill: var(--color2, #d400bd)" d="M22.76 16.432c0 0 0-0.008 0-0.024s0-0.032 0-0.056 0-0.080 0-0.080l-1.4-0.024-2.624-0.040c0 0 0 0.024 0 0.048 0 0.016 0 0.024 0 0.032s0 0.016 0 0.016l1.64 0.048 2.384 0.080z"></path>
<path fill="#d400bd" style="fill: var(--color2, #d400bd)" d="M22.432 18c0 0 0-0.008 0.008-0.024 0-0.016 0.008-0.032 0.008-0.056 0.008-0.040 0.016-0.080 0.016-0.080l-3.808-0.632c0 0-0.008 0.024-0.008 0.048 0 0.016-0.008 0.024-0.008 0.032s0 0.016 0 0.016l1.192 0.216 2.6 0.48z"></path>
<path fill="#d400bd" style="fill: var(--color2, #d400bd)" d="M21.368 18.384c0 0 0.008-0.032 0.016-0.072 0.008-0.032 0.016-0.072 0.016-0.072l-2.824-0.64c0 0-0.008 0.024-0.008 0.048-0.008 0.024-0.008 0.048-0.008 0.048l1.752 0.424 1.056 0.264z"></path>
<path fill="#d400bd" style="fill: var(--color2, #d400bd)" d="M18.632 20.456l-0.992-0.656c0 0-0.016 0.024-0.024 0.040-0.008 0.008-0.016 0.024-0.016 0.032-0.008 0.008-0.008 0.016-0.008 0.016l3.168 2.168c0 0 0.008-0.008 0.016-0.024s0.016-0.032 0.032-0.048 0.040-0.064 0.040-0.064l-2.216-1.464z"></path>
<path fill="#d400bd" style="fill: var(--color2, #d400bd)" d="M20.16 19.44l-1.92-0.784c0 0-0.008 0.024-0.016 0.048-0.008 0.008-0.008 0.024-0.016 0.032 0 0.008-0.008 0.016-0.008 0.016l1.904 0.816c0 0 0-0.008 0.008-0.016s0.008-0.024 0.016-0.040c0.016-0.048 0.032-0.072 0.032-0.072z"></path>
<path fill="#d400bd" style="fill: var(--color2, #d400bd)" d="M19.064 20.024l-1.168-0.656c0 0-0.016 0.024-0.024 0.040-0.008 0.008-0.016 0.024-0.016 0.032-0.008 0.008-0.008 0.016-0.008 0.016l1.16 0.672c0 0 0-0.008 0.008-0.016s0.016-0.024 0.024-0.032c0.008-0.032 0.024-0.056 0.024-0.056z"></path>
<path fill="#d400bd" style="fill: var(--color2, #d400bd)" d="M22.328 19.968c0 0 0.016-0.040 0.032-0.080s0.024-0.080 0.024-0.080l-4.040-1.448c0 0-0.008 0.024-0.016 0.048s-0.016 0.048-0.016 0.048l1.24 0.464 2.776 1.048z"></path>
<path fill="#d400bd" style="fill: var(--color2, #d400bd)" d="M21.52 19.992c0 0 0.016-0.032 0.032-0.072 0.008-0.016 0.016-0.032 0.016-0.048 0.008-0.016 0.008-0.024 0.008-0.024l-2.064-0.808-1.232-0.488c0 0 0 0.008-0.008 0.016 0 0.008-0.008 0.024-0.016 0.032-0.008 0.024-0.016 0.048-0.016 0.048l1.92 0.784 1.36 0.56z"></path>
<path fill="#d400bd" style="fill: var(--color2, #d400bd)" d="M20.952 18.856l-2.512-0.776c0 0 0 0.008-0.008 0.016 0 0.008-0.008 0.024-0.008 0.032-0.008 0.024-0.016 0.048-0.016 0.048l2.496 0.808c0 0 0.008-0.032 0.024-0.064 0.008-0.016 0.008-0.032 0.016-0.048 0.008-0.008 0.008-0.016 0.008-0.016z"></path>
<path fill="#d400bd" style="fill: var(--color2, #d400bd)" d="M22.192 19.576c0 0 0-0.008 0.008-0.024s0.008-0.032 0.016-0.056c0.016-0.040 0.024-0.080 0.024-0.080l-3.832-1.24c0 0-0.008 0.024-0.016 0.048 0 0.008-0.008 0.024-0.008 0.032s-0.008 0.016-0.008 0.016l1.552 0.528 2.264 0.776z"></path>
<path fill="#d400bd" style="fill: var(--color2, #d400bd)" d="M21.144 21.184c0 0 0.016-0.032 0.040-0.064 0.008-0.016 0.016-0.032 0.024-0.048s0.008-0.024 0.008-0.024l-3.272-1.768c0 0 0 0.008-0.008 0.016s-0.008 0.016-0.016 0.032c-0.016 0.024-0.024 0.040-0.024 0.040l1.168 0.656 2.080 1.16z"></path>
<path fill="#d400bd" style="fill: var(--color2, #d400bd)" d="M21.416 20.976c0 0 0.008-0.008 0.008-0.024 0.008-0.016 0.016-0.032 0.024-0.048 0.016-0.032 0.032-0.072 0.032-0.072l-3.456-1.728c0 0-0.008 0.024-0.024 0.048-0.008 0.008-0.008 0.024-0.016 0.032s-0.008 0.016-0.008 0.016l1.080 0.56 2.36 1.216z"></path>
<path fill="#d400bd" style="fill: var(--color2, #d400bd)" d="M19.056 19.232l-0.896-0.4c0 0 0 0.008-0.008 0.016 0 0.008-0.008 0.024-0.016 0.032-0.008 0.024-0.024 0.048-0.024 0.048l0.888 0.408c0 0 0.016-0.024 0.024-0.048 0.008-0.016 0.008-0.024 0.016-0.032 0.008-0.016 0.016-0.024 0.016-0.024z"></path>
<path fill="#d400bd" style="fill: var(--color2, #d400bd)" d="M17.144 22.12l-0.776-0.912c0 0-0.016 0.016-0.040 0.032-0.008 0.008-0.016 0.016-0.024 0.024s-0.016 0.008-0.016 0.008l0.76 0.92c0 0 0.008-0.008 0.016-0.008 0.008-0.008 0.016-0.016 0.032-0.024 0.032-0.016 0.048-0.040 0.048-0.040z"></path>
<path fill="#d400bd" style="fill: var(--color2, #d400bd)" d="M18.56 23.792c0 0 0.032-0.024 0.056-0.048 0.016-0.016 0.032-0.024 0.040-0.032s0.016-0.016 0.016-0.016l-1.040-1.192-1.184-1.352c0 0-0.008 0.008-0.008 0.008-0.008 0.008-0.016 0.016-0.024 0.024-0.016 0.016-0.040 0.032-0.040 0.032l0.776 0.912 1.408 1.664z"></path>
<path fill="#d400bd" style="fill: var(--color2, #d400bd)" d="M18.816 21.68l-1.6-1.32c0 0 0 0.008-0.008 0.016s-0.016 0.016-0.024 0.024-0.032 0.040-0.032 0.040l1.584 1.344c0 0 0.024-0.024 0.040-0.048 0.008-0.016 0.024-0.024 0.032-0.032 0.008-0.024 0.008-0.024 0.008-0.024z"></path>
<path fill="#d400bd" style="fill: var(--color2, #d400bd)" d="M17.6 21.912l-0.928-0.968c0 0-0.008 0.008-0.008 0.008-0.008 0.008-0.016 0.016-0.024 0.024-0.016 0.016-0.040 0.032-0.040 0.032l0.912 0.984c0 0 0.024-0.024 0.040-0.040 0.008-0.008 0.024-0.024 0.032-0.032 0.008 0 0.016-0.008 0.016-0.008z"></path>
<path fill="#d400bd" style="fill: var(--color2, #d400bd)" d="M18.784 21l-1.32-0.96c0 0-0.016 0.024-0.032 0.040-0.008 0.008-0.016 0.024-0.024 0.024-0.008 0.008-0.008 0.016-0.008 0.016l1.312 0.984c0 0 0.008-0.008 0.008-0.016 0.008-0.008 0.016-0.024 0.024-0.032 0.024-0.024 0.040-0.056 0.040-0.056z"></path>
<path fill="#d400bd" style="fill: var(--color2, #d400bd)" d="M20.44 23.44c0 0 0.008-0.008 0.016-0.016s0.024-0.024 0.040-0.040c0.024-0.032 0.056-0.064 0.056-0.064l-1.816-1.536-1.584-1.344c0 0-0.016 0.016-0.032 0.040-0.008 0.008-0.016 0.016-0.024 0.024s-0.008 0.008-0.008 0.008l0.736 0.64 2.616 2.288z"></path>
<path fill="#d400bd" style="fill: var(--color2, #d400bd)" d="M19.28 22.816c0 0 0.024-0.024 0.048-0.056 0.016-0.016 0.024-0.024 0.032-0.040 0.008-0.008 0.016-0.016 0.016-0.016l-2.36-2.128c0 0-0.008 0.008-0.008 0.008-0.008 0.008-0.016 0.016-0.024 0.024-0.016 0.016-0.032 0.040-0.032 0.040l2.328 2.168z"></path>
<path fill="#d400bd" style="fill: var(--color2, #d400bd)" d="M18.128 21.752l-1.176-1.096c0 0-0.016 0.016-0.032 0.040-0.008 0.008-0.016 0.016-0.024 0.024s-0.008 0.008-0.008 0.008l1.16 1.112c0 0 0.008-0.008 0.016-0.016s0.016-0.016 0.032-0.032c0.016-0.016 0.032-0.040 0.032-0.040z"></path>
<path fill="#d400bd" style="fill: var(--color2, #d400bd)" d="M18.472 23.24c0 0 0.008-0.008 0.016-0.016s0.024-0.024 0.040-0.032c0.024-0.024 0.056-0.048 0.056-0.048l-1.064-1.144-0.912-0.984c0 0-0.016 0.016-0.040 0.032-0.008 0.008-0.016 0.016-0.024 0.024s-0.008 0.008-0.008 0.008l1.208 1.336 0.728 0.824z"></path>
<path fill="#d400bd" style="fill: var(--color2, #d400bd)" d="M15.040 23.4l-0.456-1.104c0 0-0.024 0.008-0.048 0.016-0.008 0.008-0.024 0.008-0.032 0.016-0.008 0-0.016 0.008-0.016 0.008l1.4 3.576c0 0 0.008 0 0.024-0.008s0.032-0.016 0.048-0.024c0.040-0.016 0.072-0.032 0.072-0.032l-0.992-2.448z"></path>
<path fill="#d400bd" style="fill: var(--color2, #d400bd)" d="M15.624 23.808l-0.76-1.632c0 0-0.024 0.008-0.048 0.024-0.008 0.008-0.024 0.008-0.032 0.016-0.008 0-0.016 0.008-0.016 0.008l0.736 1.64c0 0 0.008 0 0.016-0.008s0.024-0.008 0.040-0.016c0.032-0.016 0.064-0.032 0.064-0.032z"></path>
<path fill="#d400bd" style="fill: var(--color2, #d400bd)" d="M15.152 23.36l-0.472-1.096c0 0-0.008 0-0.016 0.008-0.008 0-0.024 0.008-0.032 0.016-0.024 0.008-0.048 0.016-0.048 0.016l0.456 1.104c0 0 0.024-0.008 0.056-0.024 0.016-0.008 0.024-0.008 0.040-0.016 0.008-0.008 0.016-0.008 0.016-0.008z"></path>
<path fill="#d400bd" style="fill: var(--color2, #d400bd)" d="M18.368 25.080c0 0 0.032-0.024 0.064-0.048s0.064-0.048 0.064-0.048l-2.52-3.464c0 0-0.024 0.016-0.040 0.032s-0.040 0.032-0.040 0.032l0.768 1.088 1.704 2.408z"></path>
<path fill="#d400bd" style="fill: var(--color2, #d400bd)" d="M17.688 24.648c0 0 0.032-0.024 0.064-0.040 0.016-0.008 0.032-0.024 0.040-0.032s0.016-0.016 0.016-0.016l-2.008-2.928c0 0-0.008 0-0.016 0.008s-0.016 0.016-0.032 0.016c-0.024 0.016-0.040 0.024-0.040 0.024l1.144 1.728 0.832 1.24z"></path>
<path fill="#d400bd" style="fill: var(--color2, #d400bd)" d="M17.048 22.768l-0.984-1.312c0 0-0.008 0-0.016 0.008s-0.016 0.016-0.024 0.024c-0.024 0.016-0.040 0.032-0.040 0.032l0.96 1.32c0 0 0.024-0.016 0.048-0.040 0.016-0.008 0.024-0.016 0.032-0.024 0.016 0 0.024-0.008 0.024-0.008z"></path>
<path fill="#d400bd" style="fill: var(--color2, #d400bd)" d="M16.712 25.424c0 0 0.032-0.016 0.072-0.032 0.016-0.008 0.032-0.016 0.048-0.024s0.024-0.008 0.024-0.008l-1.168-2.24-0.56-1.080c0 0-0.008 0-0.016 0.008s-0.016 0.008-0.032 0.016-0.048 0.024-0.048 0.024l0.6 1.2 1.080 2.136z"></path>
<path fill="#d400bd" style="fill: var(--color2, #d400bd)" d="M17.056 25.4c0 0 0.008-0.008 0.024-0.008 0.016-0.008 0.032-0.016 0.048-0.024 0.032-0.016 0.072-0.040 0.072-0.040l-1.104-1.968-0.784-1.4c0 0-0.024 0.016-0.040 0.024-0.008 0.008-0.024 0.016-0.032 0.016-0.008 0.008-0.016 0.008-0.016 0.008l0.576 1.064 1.256 2.328z"></path>
<path fill="#d400bd" style="fill: var(--color2, #d400bd)" d="M16.2 23.296l-0.808-1.392c0 0-0.008 0-0.016 0.008s-0.016 0.008-0.032 0.016c-0.024 0.016-0.040 0.024-0.040 0.024l0.784 1.4c0 0 0.024-0.016 0.056-0.032 0.016-0.008 0.024-0.016 0.040-0.024 0.008 0 0.016 0 0.016 0z"></path>
<path fill="#d400bd" style="fill: var(--color2, #d400bd)" d="M12.76 23.96l-0.104-1.192c0 0-0.024 0-0.048 0.008-0.016 0-0.024 0-0.032 0s-0.016 0-0.016 0l0.28 3.832c0 0 0.008 0 0.024 0s0.032 0 0.056-0.008c0.040 0 0.080-0.008 0.080-0.008l-0.24-2.632z"></path>
<path fill="#d400bd" style="fill: var(--color2, #d400bd)" d="M12.88 23.944l-0.12-1.184c0 0-0.008 0-0.016 0s-0.024 0-0.032 0-0.048 0.008-0.048 0.008l0.104 1.192c0 0 0.032 0 0.056-0.008 0.016 0 0.032 0 0.040 0 0.008-0.008 0.016-0.008 0.016-0.008z"></path>
<path fill="#d400bd" style="fill: var(--color2, #d400bd)" d="M15.448 26.552c0 0 0.040-0.016 0.080-0.024 0.016-0.008 0.040-0.016 0.056-0.016 0.016-0.008 0.024-0.008 0.024-0.008l-0.856-2.504-0.528-1.552c0 0-0.008 0-0.016 0.008-0.008 0-0.024 0.008-0.032 0.008-0.024 0.008-0.048 0.016-0.048 0.016l0.408 1.264 0.912 2.808z"></path>
<path fill="#d400bd" style="fill: var(--color2, #d400bd)" d="M15.672 26.2c0 0 0.040-0.016 0.072-0.024 0.040-0.016 0.072-0.032 0.072-0.032l-0.496-1.312-0.92-2.456c0 0-0.024 0.008-0.048 0.016s-0.048 0.016-0.048 0.016l0.552 1.544 0.816 2.248z"></path>
<path fill="#d400bd" style="fill: var(--color2, #d400bd)" d="M14.528 23.736l-0.408-1.264c0 0-0.024 0.008-0.048 0.016-0.008 0-0.024 0.008-0.032 0.008s-0.016 0.008-0.016 0.008l0.392 1.264c0 0 0.008 0 0.016-0.008 0.008 0 0.024-0.008 0.040-0.016 0.032 0 0.056-0.008 0.056-0.008z"></path>
<path fill="#d400bd" style="fill: var(--color2, #d400bd)" d="M13.76 26.384c0 0 0.040-0.008 0.080-0.016 0.016 0 0.040-0.008 0.056-0.008s0.024-0.008 0.024-0.008l-0.664-3.664c0 0-0.008 0-0.016 0s-0.024 0-0.032 0.008-0.048 0.008-0.048 0.008l0.216 1.32 0.384 2.36z"></path>
<path fill="#d400bd" style="fill: var(--color2, #d400bd)" d="M14.088 26.464c0 0 0.040-0.008 0.080-0.016s0.080-0.016 0.080-0.016l-0.464-2.208-0.336-1.576c0 0-0.024 0.008-0.048 0.008-0.024 0.008-0.048 0.008-0.048 0.008l0.232 1.192 0.504 2.608z"></path>
<path fill="#d400bd" style="fill: var(--color2, #d400bd)" d="M13.984 23.528l-0.248-0.944c0 0-0.008 0-0.016 0.008-0.008 0-0.024 0.008-0.032 0.008-0.024 0.008-0.048 0.008-0.048 0.008l0.232 0.952c0 0 0.024-0.008 0.056-0.016 0.016 0 0.024-0.008 0.040-0.008 0.008-0.008 0.016-0.008 0.016-0.008z"></path>
<path fill="#d400bd" style="fill: var(--color2, #d400bd)" d="M14.248 25.728c0 0 0.040-0.008 0.072-0.016s0.072-0.016 0.072-0.016l-0.52-2.136-0.232-0.952c0 0-0.024 0.008-0.048 0.008-0.024 0.008-0.048 0.008-0.048 0.008l0.36 1.568 0.344 1.536z"></path>
<path fill="#d400bd" style="fill: var(--color2, #d400bd)" d="M10.664 24.48l0.296-1.776c0 0-0.024-0.008-0.048-0.008-0.016 0-0.024 0-0.032-0.008-0.008 0-0.016 0-0.016 0l-0.32 1.768c0 0 0.008 0 0.016 0s0.024 0.008 0.040 0.008c0.032 0.016 0.064 0.016 0.064 0.016z"></path>
<path fill="#d400bd" style="fill: var(--color2, #d400bd)" d="M11.928 24.872l0.032-2.072c0 0-0.024 0-0.048 0-0.016 0-0.024 0-0.032 0s-0.016 0-0.016 0l-0.064 2.072c0 0 0.008 0 0.024 0s0.032 0 0.048 0c0.016 0 0.056 0 0.056 0z"></path>
<path fill="#d400bd" style="fill: var(--color2, #d400bd)" d="M12.216 27.080c0 0 0.040 0 0.080 0 0.024 0 0.040 0 0.056 0s0.024 0 0.024 0l-0.080-2.648-0.048-1.64c0 0-0.008 0-0.016 0s-0.024 0-0.032 0-0.048 0-0.048 0l0.016 1.328 0.048 2.96z"></path>
<path fill="#d400bd" style="fill: var(--color2, #d400bd)" d="M12.536 26.816c0 0 0.040 0 0.080 0s0.080-0.008 0.080-0.008l-0.080-1.4-0.152-2.624c0 0-0.024 0-0.048 0s-0.048 0-0.048 0l0.072 1.632 0.096 2.4z"></path>
<path fill="#d400bd" style="fill: var(--color2, #d400bd)" d="M10.664 26.432c0 0 0.040 0.008 0.080 0.008 0.040 0.008 0.080 0.008 0.080 0.008l0.296-2.496 0.144-1.208c0 0-0.024 0-0.048-0.008-0.024 0-0.048-0.008-0.048-0.008l-0.176 1.328-0.328 2.376z"></path>
<path fill="#d400bd" style="fill: var(--color2, #d400bd)" d="M10.952 26.6c0 0 0.008 0 0.024 0s0.032 0 0.056 0.008c0.040 0 0.080 0.008 0.080 0.008l0.2-2.248 0.144-1.6c0 0-0.024 0-0.048-0.008-0.016 0-0.024 0-0.032 0s-0.016 0-0.016 0l-0.128 1.208-0.28 2.632z"></path>
<path fill="#d400bd" style="fill: var(--color2, #d400bd)" d="M11.432 24.384l0.12-1.6c0 0-0.008 0-0.016 0s-0.024 0-0.032 0-0.048-0.008-0.048-0.008l-0.144 1.6c0 0 0.032 0 0.064 0.008 0.016 0 0.032 0 0.040 0s0.016 0 0.016 0z"></path>
<path fill="#d400bd" style="fill: var(--color2, #d400bd)" d="M10.488 25.568c0 0 0.032 0.008 0.072 0.008 0.032 0.008 0.072 0.008 0.072 0.008l0.232-1.544 0.2-1.328c0 0-0.024 0-0.048-0.008s-0.048-0.008-0.048-0.008l-0.296 1.776-0.184 1.096z"></path>
<path fill="#d400bd" style="fill: var(--color2, #d400bd)" d="M8.224 22.992l0.584-1.040c0 0-0.024-0.016-0.040-0.024-0.008-0.008-0.024-0.016-0.032-0.016-0.008-0.008-0.016-0.008-0.016-0.008l-1.92 3.32c0 0 0.008 0.008 0.024 0.016s0.032 0.016 0.048 0.024 0.072 0.040 0.072 0.040l1.28-2.312z"></path>
<path fill="#d400bd" style="fill: var(--color2, #d400bd)" d="M8.264 23.704l0.808-1.608c0 0-0.024-0.008-0.048-0.024-0.008-0.008-0.024-0.008-0.032-0.016s-0.016-0.008-0.016-0.008l-0.832 1.6c0 0 0.008 0 0.016 0.008s0.024 0.016 0.040 0.024c0.032 0.008 0.064 0.024 0.064 0.024z"></path>
<path fill="#d400bd" style="fill: var(--color2, #d400bd)" d="M8.328 23.048l0.568-1.048c0 0-0.008 0-0.016-0.008s-0.016-0.008-0.032-0.016c-0.024-0.016-0.040-0.024-0.040-0.024l-0.584 1.040c0 0 0.024 0.016 0.048 0.032 0.016 0.008 0.024 0.016 0.032 0.016 0.016 0.008 0.024 0.008 0.024 0.008z"></path>
<path fill="#d400bd" style="fill: var(--color2, #d400bd)" d="M9.352 24.448l0.64-1.976c0 0-0.024-0.008-0.048-0.016-0.008 0-0.024-0.008-0.032-0.008s-0.016-0.008-0.016-0.008l-0.672 1.96c0 0 0.008 0 0.016 0.008 0.008 0 0.024 0.008 0.040 0.016 0.040 0.008 0.072 0.024 0.072 0.024z"></path>
<path fill="#d400bd" style="fill: var(--color2, #d400bd)" d="M8.984 26.648c0 0 0.040 0.008 0.080 0.024 0.040 0.008 0.080 0.024 0.080 0.024l0.704-2.552 0.432-1.576c0 0-0.024-0.008-0.048-0.016s-0.048-0.016-0.048-0.016l-0.368 1.272-0.832 2.84z"></path>
<path fill="#d400bd" style="fill: var(--color2, #d400bd)" d="M8.896 25.848c0 0 0.040 0.008 0.072 0.024 0.016 0.008 0.040 0.008 0.048 0.016 0.016 0.008 0.024 0.008 0.024 0.008l0.656-2.12 0.392-1.264c0 0-0.008 0-0.016-0.008-0.008 0-0.024-0.008-0.032-0.008-0.024-0.008-0.048-0.016-0.048-0.016l-0.64 1.976-0.456 1.392z"></path>
<path fill="#d400bd" style="fill: var(--color2, #d400bd)" d="M9.36 26.488c0 0 0.008 0 0.024 0.008 0.016 0 0.032 0.008 0.056 0.016 0.040 0.008 0.080 0.016 0.080 0.016l0.328-1.36 0.624-2.552c0 0-0.024-0.008-0.048-0.008-0.016 0-0.024-0.008-0.032-0.008s-0.016-0.008-0.016-0.008l-0.408 1.584-0.608 2.312z"></path>
<path fill="#d400bd" style="fill: var(--color2, #d400bd)" d="M7.68 25.56c0 0 0.032 0.016 0.072 0.032 0.016 0.008 0.032 0.016 0.048 0.024s0.024 0.008 0.024 0.008l1.52-3.408c0 0-0.008 0-0.016-0.008-0.008 0-0.024-0.008-0.032-0.016-0.024-0.008-0.048-0.024-0.048-0.024l-0.568 1.216-1 2.176z"></path>
<path fill="#d400bd" style="fill: var(--color2, #d400bd)" d="M7.912 25.816c0 0 0.008 0 0.024 0.008s0.032 0.016 0.048 0.024c0.040 0.016 0.072 0.032 0.072 0.032l0.856-2.088 0.608-1.488c0 0-0.024-0.008-0.048-0.016-0.008-0.008-0.024-0.008-0.032-0.016-0.008 0-0.016-0.008-0.016-0.008l-0.48 1.112-1.032 2.44z"></path>
<path fill="#d400bd" style="fill: var(--color2, #d400bd)" d="M9.024 23.832l0.584-1.496c0 0-0.008 0-0.016-0.008-0.008 0-0.024-0.008-0.032-0.016-0.024-0.008-0.048-0.016-0.048-0.016l-0.608 1.488c0 0 0.032 0.008 0.056 0.024 0.016 0.008 0.032 0.008 0.040 0.016 0.016 0.008 0.024 0.008 0.024 0.008z"></path>
<path fill="#d400bd" style="fill: var(--color2, #d400bd)" d="M6.36 21.56l0.864-0.824c0 0-0.008-0.008-0.008-0.008-0.008-0.008-0.016-0.016-0.024-0.024-0.016-0.016-0.032-0.040-0.032-0.040l-2.816 2.608c0 0 0.024 0.032 0.056 0.056 0.016 0.016 0.024 0.032 0.040 0.040 0.008 0.008 0.016 0.016 0.016 0.016l1.904-1.824z"></path>
<path fill="#d400bd" style="fill: var(--color2, #d400bd)" d="M4.888 23.176c0 0 0.024 0.024 0.056 0.056 0.024 0.024 0.056 0.056 0.056 0.056l1.104-1.128 1.264-1.28c0 0-0.016-0.016-0.032-0.032s-0.032-0.032-0.032-0.032l-0.848 0.84-1.568 1.52z"></path>
<path fill="#d400bd" style="fill: var(--color2, #d400bd)" d="M6.688 22.080l0.896-1c0 0-0.008-0.008-0.008-0.008-0.008-0.008-0.016-0.016-0.024-0.024-0.016-0.016-0.040-0.032-0.040-0.032l-0.912 0.984c0 0 0.024 0.024 0.040 0.040 0.008 0.008 0.024 0.024 0.032 0.024 0.008 0.008 0.016 0.016 0.016 0.016z"></path>
<path fill="#d400bd" style="fill: var(--color2, #d400bd)" d="M6.008 25.272c0 0 0.032 0.024 0.072 0.048 0.016 0.008 0.032 0.024 0.048 0.032s0.024 0.016 0.024 0.016l1.432-2.232 0.88-1.376-0.080-0.056-0.736 1.096-1.64 2.472z"></path>
<path fill="#d400bd" style="fill: var(--color2, #d400bd)" d="M6.424 25.224c0 0 0.032 0.024 0.072 0.040 0.032 0.024 0.072 0.040 0.072 0.040l0.72-1.208 1.352-2.256c0 0-0.024-0.016-0.040-0.024-0.024-0.016-0.040-0.024-0.040-0.024l-0.88 1.4-1.256 2.032z"></path>
<path fill="#d400bd" style="fill: var(--color2, #d400bd)" d="M7.648 22.8l0.728-1.104c0 0-0.024-0.016-0.040-0.024-0.008-0.008-0.024-0.016-0.032-0.016-0.008-0.008-0.016-0.008-0.016-0.008l-0.752 1.096c0 0 0.008 0.008 0.016 0.008 0.008 0.008 0.024 0.016 0.032 0.024 0.032 0.008 0.064 0.024 0.064 0.024z"></path>
<path fill="#d400bd" style="fill: var(--color2, #d400bd)" d="M6.952 22.136l0.784-0.928c0 0-0.016-0.016-0.040-0.032-0.008-0.008-0.016-0.016-0.024-0.024s-0.008-0.008-0.008-0.008l-0.8 0.912c0 0 0.008 0.008 0.016 0.016s0.016 0.016 0.032 0.024c0.016 0.024 0.040 0.040 0.040 0.040z"></path>
<path fill="#d400bd" style="fill: var(--color2, #d400bd)" d="M5.376 25.024c0 0 0.008 0.008 0.024 0.016s0.032 0.024 0.048 0.032 0.064 0.048 0.064 0.048l2.624-3.6c0 0-0.024-0.016-0.040-0.032-0.008-0.008-0.024-0.016-0.024-0.024-0.008-0.008-0.016-0.008-0.016-0.008l-0.584 0.784-2.096 2.784z"></path>
<path fill="#d400bd" style="fill: var(--color2, #d400bd)" d="M5.24 24.16c0 0 0.032 0.024 0.064 0.048 0.016 0.016 0.032 0.024 0.040 0.032s0.016 0.016 0.016 0.016l1.432-1.744 1.024-1.232c0 0-0.008 0-0.016-0.008s-0.016-0.016-0.024-0.024-0.040-0.032-0.040-0.032l-0.784 0.928-1.712 2.016z"></path>
<path fill="#d400bd" style="fill: var(--color2, #d400bd)" d="M5.432 23.040c0 0 0.008 0.008 0.016 0.016s0.024 0.024 0.040 0.032c0.024 0.024 0.056 0.048 0.056 0.048l1.064-1.144 0.912-0.984c0 0-0.016-0.016-0.040-0.032-0.008-0.008-0.016-0.016-0.024-0.024s-0.008-0.008-0.008-0.008l-1.24 1.304-0.776 0.792z"></path>
<path fill="#d400bd" style="fill: var(--color2, #d400bd)" d="M4.648 20.248l1.568-0.88c0 0-0.016-0.024-0.024-0.040-0.008-0.008-0.016-0.024-0.016-0.032-0.008-0.008-0.008-0.016-0.008-0.016l-1.584 0.856c0 0 0 0.008 0.008 0.016s0.016 0.024 0.024 0.040c0.016 0.024 0.032 0.056 0.032 0.056z"></path>
<path fill="#d400bd" style="fill: var(--color2, #d400bd)" d="M5.064 19.744l1.056-0.552c0 0 0-0.008-0.008-0.016s-0.008-0.016-0.016-0.032-0.024-0.048-0.024-0.048l-1.064 0.536c0 0 0.016 0.024 0.024 0.056 0.008 0.016 0.016 0.024 0.016 0.032 0.016 0.016 0.016 0.024 0.016 0.024z"></path>
<path fill="#d400bd" style="fill: var(--color2, #d400bd)" d="M3.584 23.080c0 0 0.008 0.008 0.016 0.016s0.024 0.024 0.040 0.040c0.024 0.032 0.056 0.064 0.056 0.064l2.024-1.712 1.24-1.056c0 0-0.016-0.016-0.032-0.040-0.008-0.008-0.016-0.016-0.024-0.024s-0.008-0.016-0.008-0.016l-1.024 0.848-2.288 1.88z"></path>
<path fill="#d400bd" style="fill: var(--color2, #d400bd)" d="M3.968 22.376c0 0 0.024 0.032 0.048 0.064s0.048 0.056 0.048 0.056l1.736-1.384 1.040-0.824c0 0-0.016-0.016-0.032-0.040-0.016-0.016-0.032-0.040-0.032-0.040l-1.64 1.272-1.168 0.896z"></path>
<path fill="#d400bd" style="fill: var(--color2, #d400bd)" d="M5.232 22.448l1.928-1.784c0 0-0.016-0.016-0.032-0.040-0.008-0.008-0.016-0.016-0.024-0.024s-0.008-0.008-0.008-0.008l-1.952 1.76c0 0 0.008 0.008 0.016 0.016s0.024 0.024 0.032 0.032c0.016 0.024 0.040 0.048 0.040 0.048z"></path>
<path fill="#d400bd" style="fill: var(--color2, #d400bd)" d="M5.792 21.584l1.232-1.080c0 0-0.008-0.008-0.008-0.008-0.008-0.008-0.016-0.016-0.024-0.024-0.016-0.016-0.032-0.040-0.032-0.040l-1.248 1.056c0 0 0.024 0.024 0.040 0.048 0.008 0.008 0.024 0.024 0.024 0.032 0.008 0.016 0.016 0.016 0.016 0.016z"></path>
<path fill="#d400bd" style="fill: var(--color2, #d400bd)" d="M3.048 22.664c0 0 0.024 0.032 0.048 0.064 0.016 0.016 0.024 0.032 0.032 0.048s0.016 0.024 0.016 0.024l3.56-2.68c0 0 0-0.008-0.008-0.016s-0.016-0.016-0.024-0.024c-0.016-0.024-0.032-0.040-0.032-0.040l-0.792 0.576-2.8 2.048z"></path>
<path fill="#d400bd" style="fill: var(--color2, #d400bd)" d="M5.208 20.784l1.328-0.904c0 0 0-0.008-0.008-0.016s-0.016-0.016-0.016-0.032c-0.016-0.024-0.024-0.040-0.024-0.040l-1.344 0.888c0 0 0.016 0.024 0.032 0.048 0.008 0.016 0.016 0.024 0.024 0.032 0 0.016 0.008 0.024 0.008 0.024z"></path>
<path fill="#d400bd" style="fill: var(--color2, #d400bd)" d="M3.688 20.784c0 0 0.016 0.032 0.032 0.064 0.008 0.016 0.016 0.032 0.024 0.040s0.008 0.016 0.008 0.016l2.512-1.456c0 0 0-0.008-0.008-0.016s-0.008-0.016-0.016-0.032c-0.016-0.024-0.024-0.040-0.024-0.040l-1.568 0.88-0.96 0.544z"></path>
<path fill="#d400bd" style="fill: var(--color2, #d400bd)" d="M4.288 17.408l1.176-0.192c0 0-0.008-0.024-0.008-0.048-0.008-0.024-0.008-0.048-0.008-0.048l-3.792 0.56c0 0 0.008 0.040 0.016 0.080s0.016 0.080 0.016 0.080l2.6-0.432z"></path>
<path fill="#d400bd" style="fill: var(--color2, #d400bd)" d="M4.304 17.52l1.176-0.208c0 0 0-0.008 0-0.016s0-0.024-0.008-0.032-0.008-0.048-0.008-0.048l-1.176 0.192c0 0 0.008 0.032 0.008 0.056 0 0.016 0.008 0.032 0.008 0.040s0 0.016 0 0.016z"></path>
<path fill="#d400bd" style="fill: var(--color2, #d400bd)" d="M1.904 20.272c0 0 0.016 0.040 0.032 0.080 0.008 0.016 0.016 0.040 0.024 0.056s0.008 0.024 0.008 0.024l3.944-1.68c0 0 0-0.008-0.008-0.016 0-0.008-0.008-0.024-0.016-0.032-0.008-0.024-0.016-0.048-0.016-0.048l-1.224 0.504-2.744 1.112z"></path>
<path fill="#d400bd" style="fill: var(--color2, #d400bd)" d="M2.272 20.472c0 0 0.008 0.008 0.008 0.024 0.008 0.016 0.016 0.032 0.024 0.048 0.016 0.040 0.032 0.072 0.032 0.072l1.272-0.592 2.384-1.104c0 0-0.008-0.024-0.024-0.048-0.008-0.008-0.008-0.024-0.016-0.032 0-0.008-0.008-0.016-0.008-0.016l-1.496 0.664-2.176 0.984z"></path>
<path fill="#d400bd" style="fill: var(--color2, #d400bd)" d="M4.648 19.152l1.224-0.504c0 0-0.008-0.024-0.016-0.048-0.008-0.008-0.008-0.024-0.016-0.032 0-0.008-0.008-0.016-0.008-0.016l-1.232 0.488c0 0 0 0.008 0.008 0.016s0.008 0.024 0.016 0.040 0.024 0.056 0.024 0.056z"></path>
<path fill="#d400bd" style="fill: var(--color2, #d400bd)" d="M1.944 18.584c0 0 0.008 0.040 0.016 0.072 0.008 0.016 0.008 0.040 0.016 0.056 0 0.016 0.008 0.024 0.008 0.024l3.608-0.936c0 0 0-0.008-0.008-0.016 0-0.008-0.008-0.024-0.008-0.032-0.008-0.024-0.008-0.048-0.008-0.048l-1.304 0.32-2.32 0.56z"></path>
<path fill="#d400bd" style="fill: var(--color2, #d400bd)" d="M4.808 18.592l0.928-0.312c0 0 0-0.008-0.008-0.016 0-0.008-0.008-0.024-0.008-0.032-0.008-0.024-0.016-0.048-0.016-0.048l-0.936 0.296c0 0 0.008 0.024 0.016 0.056 0.008 0.016 0.008 0.024 0.016 0.040 0.008 0.008 0.008 0.016 0.008 0.016z"></path>
<path fill="#d400bd" style="fill: var(--color2, #d400bd)" d="M2.64 19.024c0 0 0 0.008 0.008 0.024s0.008 0.032 0.016 0.048 0.024 0.072 0.024 0.072l3.016-0.984c0 0-0.008-0.024-0.016-0.048 0-0.008-0.008-0.024-0.008-0.032s-0.008-0.016-0.008-0.016l-1.536 0.472-1.496 0.464z"></path>
<path fill="#d400bd" style="fill: var(--color2, #d400bd)" d="M3.608 15.352l1.792 0.16c0 0 0-0.024 0.008-0.048 0-0.016 0-0.024 0-0.032s0-0.016 0-0.016l-1.792-0.184c0 0 0 0.008 0 0.016s0 0.024 0 0.040-0.008 0.064-0.008 0.064z"></path>
<path fill="#d400bd" style="fill: var(--color2, #d400bd)" d="M1.128 17.096c0 0 0 0.040 0.008 0.080 0 0.024 0 0.040 0.008 0.056 0 0.016 0 0.024 0 0.024l4.256-0.44c0 0 0-0.008 0-0.016s0-0.024 0-0.032-0.008-0.048-0.008-0.048l-1.312 0.112-2.952 0.264z"></path>
<path fill="#d400bd" style="fill: var(--color2, #d400bd)" d="M1.416 17.392c0 0 0.008 0.040 0.008 0.080 0.008 0.040 0.008 0.080 0.008 0.080l1.392-0.184 2.6-0.352c0 0 0-0.024-0.008-0.048 0-0.024-0.008-0.048-0.008-0.048l-3.992 0.472z"></path>
<path fill="#d400bd" style="fill: var(--color2, #d400bd)" d="M4.080 16.832l1.32-0.12c0 0 0-0.024-0.008-0.048 0-0.016 0-0.024 0-0.032s0-0.016 0-0.016l-1.32 0.096c0 0 0 0.008 0 0.016s0 0.024 0 0.040c0.008 0.040 0.008 0.064 0.008 0.064z"></path>
<path fill="#d400bd" style="fill: var(--color2, #d400bd)" d="M1.664 15.496c0 0 0 0.040-0.008 0.080 0 0.040 0 0.080 0 0.080l3.72 0.168c0 0 0-0.024 0-0.048s0-0.048 0-0.048l-1.336-0.080-2.376-0.152z"></path>
<path fill="#d400bd" style="fill: var(--color2, #d400bd)" d="M1.52 15.8c0 0 0 0.008 0 0.024s0 0.032 0 0.056 0 0.080 0 0.080l3.864 0.056c0 0 0-0.024 0-0.048 0-0.016 0-0.024 0-0.032s0-0.016 0-0.016l-1.216-0.032-2.648-0.088z"></path>
<path fill="#d400bd" style="fill: var(--color2, #d400bd)" d="M4.4 16.344l0.976-0.032c0 0 0-0.008 0-0.016s0-0.024 0-0.032 0-0.048 0-0.048l-0.976 0.016c0 0 0 0.032 0 0.056 0 0.016 0 0.032 0 0.040s0 0.016 0 0.016z"></path>
<path fill="#d400bd" style="fill: var(--color2, #d400bd)" d="M2.512 15.256c0 0 0 0.032-0.008 0.072 0 0.016 0 0.032-0.008 0.048 0 0.016 0 0.024 0 0.024l2.896 0.208c0 0 0-0.008 0-0.016s0-0.024 0-0.032 0.008-0.048 0.008-0.048l-2.888-0.256z"></path>
<path fill="#d400bd" style="fill: var(--color2, #d400bd)" d="M4.208 12.896l1.664 0.68c0 0 0.008-0.024 0.016-0.048 0.008-0.008 0.008-0.024 0.016-0.032 0-0.008 0.008-0.016 0.008-0.016l-1.656-0.704c0 0 0 0.008-0.008 0.016s-0.008 0.024-0.016 0.040c-0.016 0.040-0.024 0.064-0.024 0.064z"></path>
<path fill="#d400bd" style="fill: var(--color2, #d400bd)" d="M4.856 12.912l1.088 0.488c0 0 0-0.008 0.008-0.016 0-0.008 0.008-0.024 0.016-0.032 0.008-0.024 0.024-0.048 0.024-0.048l-1.080-0.504c0 0-0.016 0.024-0.024 0.056-0.008 0.016-0.016 0.024-0.016 0.040-0.008 0.008-0.016 0.016-0.016 0.016z"></path>
<path fill="#d400bd" style="fill: var(--color2, #d400bd)" d="M3.544 14.040l2.016 0.488c0 0 0.008-0.024 0.008-0.048 0-0.016 0.008-0.024 0.008-0.032s0.008-0.016 0.008-0.016l-2.008-0.52c0 0 0 0.008-0.008 0.016 0 0.008-0.008 0.024-0.008 0.040-0.008 0.040-0.016 0.072-0.016 0.072z"></path>
<path fill="#d400bd" style="fill: var(--color2, #d400bd)" d="M1.328 13.84c0 0-0.008 0.040-0.016 0.080s-0.016 0.080-0.016 0.080l2.6 0.512 1.608 0.312c0 0 0.008-0.024 0.008-0.048 0.008-0.024 0.008-0.048 0.008-0.048l-1.296-0.272-2.896-0.616z"></path>
<path fill="#d400bd" style="fill: var(--color2, #d400bd)" d="M2.12 13.688c0 0-0.008 0.040-0.016 0.072-0.008 0.040-0.016 0.072-0.016 0.072l3.464 0.792c0 0 0.008-0.024 0.008-0.048 0.008-0.024 0.008-0.048 0.008-0.048l-2.016-0.488-1.432-0.352z"></path>
<path fill="#d400bd" style="fill: var(--color2, #d400bd)" d="M1.512 14.208c0 0 0 0.008-0.008 0.024 0 0.016-0.008 0.032-0.008 0.056-0.008 0.040-0.016 0.080-0.016 0.080l1.384 0.232 2.592 0.424c0 0 0.008-0.024 0.008-0.048 0-0.016 0.008-0.024 0.008-0.032s0-0.016 0-0.016l-1.608-0.288-2.352-0.432z"></path>
<path fill="#d400bd" style="fill: var(--color2, #d400bd)" d="M2.312 12.456c0 0-0.016 0.040-0.024 0.072-0.016 0.040-0.024 0.072-0.024 0.072l3.512 1.256c0 0 0.008-0.024 0.016-0.048s0.016-0.048 0.016-0.048l-1.256-0.472-2.24-0.832z"></path>
<path fill="#d400bd" style="fill: var(--color2, #d400bd)" d="M2.072 12.704c0 0 0 0.008-0.008 0.024s-0.008 0.032-0.016 0.048c-0.016 0.040-0.024 0.072-0.024 0.072l3.672 1.192c0 0 0.008-0.024 0.016-0.048 0-0.008 0.008-0.024 0.008-0.032s0.008-0.016 0.008-0.016l-1.152-0.392-2.504-0.848z"></path>
<path fill="#d400bd" style="fill: var(--color2, #d400bd)" d="M4.136 13.672l1.536 0.472c0 0 0-0.008 0.008-0.016 0-0.008 0.008-0.024 0.008-0.032 0.008-0.024 0.016-0.048 0.016-0.048l-1.528-0.496c0 0-0.008 0.032-0.016 0.056-0.008 0.016-0.008 0.032-0.016 0.040-0.008 0.016-0.008 0.024-0.008 0.024z"></path>
<path fill="#d400bd" style="fill: var(--color2, #d400bd)" d="M3.184 12.48c0 0-0.016 0.032-0.024 0.064-0.008 0.016-0.016 0.032-0.016 0.048-0.008 0.016-0.008 0.024-0.008 0.024l2.704 1.056c0 0 0-0.008 0.008-0.016 0-0.008 0.008-0.024 0.016-0.032 0.008-0.024 0.016-0.048 0.016-0.048l-1.664-0.68-1.032-0.416z"></path>
<path fill="#d400bd" style="fill: var(--color2, #d400bd)" d="M6.2 10.848l0.888 0.8c0 0 0.008-0.008 0.008-0.008 0.008-0.008 0.016-0.016 0.024-0.024 0.016-0.016 0.032-0.040 0.032-0.040l-2.808-2.616c0 0-0.024 0.032-0.056 0.056-0.016 0.016-0.024 0.032-0.040 0.040-0.008 0.008-0.016 0.016-0.016 0.016l1.968 1.776z"></path>
<path fill="#d400bd" style="fill: var(--color2, #d400bd)" d="M5.504 10.728l1.392 1.144c0 0 0-0.008 0.008-0.016s0.016-0.016 0.024-0.024 0.032-0.040 0.032-0.040l-1.376-1.168c0 0-0.024 0.024-0.040 0.048-0.008 0.016-0.024 0.024-0.032 0.032 0 0.016-0.008 0.024-0.008 0.024z"></path>
<path fill="#d400bd" style="fill: var(--color2, #d400bd)" d="M4.48 9.496c0 0-0.008 0.008-0.016 0.016s-0.024 0.024-0.032 0.040-0.048 0.056-0.048 0.056l1.208 1.024 1.368 1.168c0 0 0.016-0.016 0.032-0.040 0.008-0.008 0.016-0.016 0.024-0.024s0.008-0.008 0.008-0.008l-0.896-0.784-1.648-1.448z"></path>
<path fill="#d400bd" style="fill: var(--color2, #d400bd)" d="M2.48 10.768c0 0-0.016 0.032-0.040 0.072-0.008 0.016-0.024 0.032-0.024 0.048-0.008 0.016-0.016 0.024-0.016 0.024l3.776 2.032c0 0 0-0.008 0.008-0.016s0.008-0.016 0.016-0.032c0.016-0.024 0.024-0.040 0.024-0.040l-3.744-2.088z"></path>
<path fill="#d400bd" style="fill: var(--color2, #d400bd)" d="M2.544 11.176c0 0-0.008 0.008-0.008 0.024-0.008 0.016-0.016 0.032-0.024 0.048-0.016 0.032-0.032 0.072-0.032 0.072l3.6 1.808c0 0 0.008-0.024 0.024-0.048 0.008-0.008 0.008-0.024 0.016-0.032s0.008-0.016 0.008-0.016l-1.456-0.752-2.128-1.104z"></path>
<path fill="#d400bd" style="fill: var(--color2, #d400bd)" d="M5.064 12.216l1.16 0.648c0 0 0.016-0.024 0.024-0.040 0.008-0.008 0.016-0.024 0.016-0.032 0.008-0.008 0.008-0.016 0.008-0.016l-1.152-0.664c0 0 0 0.008-0.008 0.016s-0.016 0.024-0.024 0.032c-0.016 0.032-0.024 0.056-0.024 0.056z"></path>
<path fill="#d400bd" style="fill: var(--color2, #d400bd)" d="M5.672 11.472l0.984 0.712c0 0 0.016-0.024 0.032-0.040 0.008-0.008 0.016-0.024 0.024-0.024 0.008-0.008 0.008-0.016 0.008-0.016l-0.968-0.728c0 0-0.008 0.008-0.008 0.016-0.008 0.008-0.016 0.024-0.024 0.032-0.032 0.024-0.048 0.048-0.048 0.048z"></path>
<path fill="#d400bd" style="fill: var(--color2, #d400bd)" d="M3.528 9.92c0 0-0.024 0.032-0.048 0.064s-0.048 0.064-0.048 0.064l3.152 2.232c0 0 0.016-0.024 0.032-0.040 0.016-0.024 0.032-0.040 0.032-0.040l-0.984-0.712-2.136-1.568z"></path>
<path fill="#d400bd" style="fill: var(--color2, #d400bd)" d="M3.912 10.56c0 0-0.008 0.008-0.016 0.016s-0.016 0.024-0.032 0.040-0.040 0.064-0.040 0.064l2.648 1.744c0 0 0.016-0.024 0.024-0.040 0.008-0.008 0.016-0.024 0.016-0.032 0.008-0.008 0.008-0.016 0.008-0.016l-2.608-1.776z"></path>
<path fill="#d400bd" style="fill: var(--color2, #d400bd)" d="M5.208 8.512c0 0-0.008 0.008-0.016 0.016s-0.024 0.024-0.040 0.032-0.056 0.056-0.056 0.056l2.416 2.608c0 0 0.016-0.016 0.040-0.032 0.008-0.008 0.016-0.016 0.024-0.024s0.008-0.008 0.008-0.008l-1.392-1.544-0.984-1.104z"></path>
<path fill="#d400bd" style="fill: var(--color2, #d400bd)" d="M5.232 9.784l1.928 1.784c0 0 0.016-0.016 0.032-0.040 0.008-0.008 0.016-0.016 0.024-0.024s0.008-0.008 0.008-0.008l-1.896-1.816c0 0-0.008 0.008-0.016 0.016s-0.024 0.024-0.032 0.032c-0.024 0.032-0.048 0.056-0.048 0.056z"></path>
<path fill="#d400bd" style="fill: var(--color2, #d400bd)" d="M6.52 10.328l0.92 0.96c0 0 0.008-0.008 0.008-0.008 0.008-0.008 0.016-0.016 0.024-0.024 0.016-0.016 0.040-0.032 0.040-0.032l-0.904-0.976c0 0-0.024 0.024-0.040 0.040-0.008 0.008-0.024 0.024-0.032 0.032-0.008 0-0.016 0.008-0.016 0.008z"></path>
<path fill="#d400bd" style="fill: var(--color2, #d400bd)" d="M7.32 9.8l0.728 0.968c0 0 0.008 0 0.016-0.008s0.016-0.016 0.024-0.024c0.024-0.016 0.040-0.032 0.040-0.032l-0.712-0.984c0 0-0.024 0.016-0.048 0.032-0.008 0.008-0.024 0.016-0.032 0.024-0.008 0.016-0.016 0.024-0.016 0.024z"></path>
<path fill="#d400bd" style="fill: var(--color2, #d400bd)" d="M6.064 7.608c0 0-0.032 0.024-0.064 0.048s-0.064 0.048-0.064 0.048l1.48 2.032 0.712 0.984c0 0 0.024-0.016 0.040-0.032s0.040-0.032 0.040-0.032l-0.768-1.104-1.376-1.944z"></path>
<path fill="#d400bd" style="fill: var(--color2, #d400bd)" d="M4.856 7.624c0 0-0.032 0.024-0.064 0.056-0.016 0.016-0.032 0.024-0.040 0.040-0.008 0.008-0.016 0.016-0.016 0.016l1.56 1.784 1.368 1.56c0 0 0.008-0.008 0.008-0.008 0.008-0.008 0.016-0.016 0.024-0.024 0.016-0.016 0.040-0.032 0.040-0.032l-2.88-3.392z"></path>
<path fill="#d400bd" style="fill: var(--color2, #d400bd)" d="M7.104 10.272l0.632 0.744c0 0 0.016-0.016 0.040-0.032 0.008-0.008 0.016-0.016 0.024-0.024s0.016-0.008 0.016-0.008l-0.624-0.752c0 0-0.008 0.008-0.016 0.008-0.008 0.008-0.016 0.016-0.032 0.024-0.016 0.024-0.040 0.040-0.040 0.040z"></path>
<path fill="#d400bd" style="fill: var(--color2, #d400bd)" d="M6.776 8.12c0 0-0.032 0.016-0.056 0.040-0.016 0.008-0.032 0.016-0.040 0.024s-0.016 0.016-0.016 0.016l0.88 1.288 0.76 1.104c0 0 0.008 0 0.016-0.008s0.016-0.016 0.032-0.016c0.024-0.016 0.040-0.024 0.040-0.024l-1.008-1.504-0.608-0.92z"></path>
<path fill="#d400bd" style="fill: var(--color2, #d400bd)" d="M10.184 8.464l0.28 1.16c0 0 0.024-0.008 0.048-0.008 0.024-0.008 0.048-0.008 0.048-0.008l-0.848-3.744c0 0-0.040 0.008-0.080 0.016s-0.080 0.016-0.080 0.016l0.632 2.568z"></path>
<path fill="#d400bd" style="fill: var(--color2, #d400bd)" d="M10.072 8.496l0.296 1.152c0 0 0.008 0 0.016-0.008 0.008 0 0.024-0.008 0.032-0.008 0.024-0.008 0.048-0.008 0.048-0.008l-0.28-1.16c0 0-0.032 0.008-0.056 0.016-0.016 0-0.032 0.008-0.040 0.008s-0.016 0.008-0.016 0.008z"></path>
<path fill="#d400bd" style="fill: var(--color2, #d400bd)" d="M8.376 8.168l0.872 1.88c0 0 0.024-0.008 0.048-0.024 0.008-0.008 0.024-0.008 0.032-0.016 0.008 0 0.016-0.008 0.016-0.008l-0.848-1.896c0 0-0.008 0-0.016 0.008s-0.024 0.008-0.040 0.016c-0.040 0.024-0.064 0.040-0.064 0.040z"></path>
<path fill="#d400bd" style="fill: var(--color2, #d400bd)" d="M9.576 8.48l0.416 1.272c0 0 0.024-0.008 0.048-0.016 0.008 0 0.024-0.008 0.032-0.008s0.016-0.008 0.016-0.008l-0.392-1.28c0 0-0.008 0-0.016 0.008-0.008 0-0.024 0.008-0.040 0.016-0.032 0.008-0.064 0.016-0.064 0.016z"></path>
<path fill="#d400bd" style="fill: var(--color2, #d400bd)" d="M7.144 6.304c0 0-0.040 0.016-0.072 0.040-0.016 0.008-0.040 0.016-0.048 0.024-0.016 0.008-0.024 0.008-0.024 0.008l1.224 2.352 0.752 1.456c0 0 0.008 0 0.016-0.008s0.016-0.008 0.032-0.016 0.048-0.024 0.048-0.024l-0.592-1.184-1.336-2.648z"></path>
<path fill="#d400bd" style="fill: var(--color2, #d400bd)" d="M7.4 8.056l1.312 2.272c0 0 0.008 0 0.016-0.008s0.016-0.008 0.032-0.016c0.024-0.016 0.040-0.024 0.040-0.024l-1.28-2.296c0 0-0.032 0.016-0.064 0.032-0.016 0.008-0.032 0.016-0.040 0.024s-0.016 0.016-0.016 0.016z"></path>
<path fill="#d400bd" style="fill: var(--color2, #d400bd)" d="M6.976 6.68c0 0-0.008 0.008-0.024 0.008-0.016 0.008-0.032 0.016-0.048 0.024-0.032 0.016-0.072 0.040-0.072 0.040l0.688 1.232 1.28 2.296c0 0 0.024-0.016 0.040-0.024 0.008-0.008 0.024-0.016 0.032-0.016 0.008-0.008 0.016-0.008 0.016-0.008l-0.776-1.44-1.136-2.112z"></path>
<path fill="#d400bd" style="fill: var(--color2, #d400bd)" d="M8.84 6.216c0 0-0.040 0.016-0.072 0.024-0.016 0.008-0.040 0.016-0.048 0.016-0.016 0.008-0.024 0.008-0.024 0.008l1.2 3.528c0 0 0.008 0 0.016-0.008 0.008 0 0.024-0.008 0.032-0.008 0.024-0.008 0.048-0.016 0.048-0.016l-0.416-1.272-0.736-2.272z"></path>
<path fill="#d400bd" style="fill: var(--color2, #d400bd)" d="M8.496 6.184c0 0-0.040 0.016-0.072 0.024-0.040 0.016-0.072 0.024-0.072 0.024l0.792 2.112 0.568 1.504c0 0 0.024-0.008 0.048-0.016s0.048-0.016 0.048-0.016l-0.408-1.144-0.904-2.488z"></path>
<path fill="#d400bd" style="fill: var(--color2, #d400bd)" d="M9.048 9.072l0.384 0.896c0 0 0.008 0 0.016-0.008 0.008 0 0.024-0.008 0.032-0.016 0.024-0.008 0.048-0.016 0.048-0.016l-0.368-0.904c0 0-0.024 0.008-0.056 0.024-0.016 0.008-0.024 0.008-0.040 0.016-0.008 0.008-0.016 0.008-0.016 0.008z"></path>
<path fill="#d400bd" style="fill: var(--color2, #d400bd)" d="M8.456 6.936c0 0-0.008 0-0.024 0.008s-0.032 0.016-0.048 0.016c-0.032 0.016-0.072 0.024-0.072 0.024l0.832 2.032 0.368 0.904c0 0 0.024-0.008 0.048-0.016 0.008-0.008 0.024-0.008 0.032-0.016 0.008 0 0.016-0.008 0.016-0.008l-0.584-1.496-0.568-1.448z"></path>
<path fill="#d400bd" style="fill: var(--color2, #d400bd)" d="M12.184 7.64l-0.024 1.8c0 0 0.024 0 0.048 0 0.016 0 0.024 0 0.032 0s0.016 0 0.016 0l0.056-1.8c0 0-0.008 0-0.016 0s-0.024 0-0.040 0c-0.040 0-0.072 0-0.072 0z"></path>
<path fill="#d400bd" style="fill: var(--color2, #d400bd)" d="M10.264 5.296c0 0-0.040 0.008-0.080 0.016-0.024 0-0.040 0.008-0.056 0.008s-0.024 0.008-0.024 0.008l0.472 2.608 0.288 1.608c0 0 0.008 0 0.016 0s0.024 0 0.032-0.008 0.048-0.008 0.048-0.008l-0.216-1.312-0.48-2.92z"></path>
<path fill="#d400bd" style="fill: var(--color2, #d400bd)" d="M9.984 5.6c0 0-0.040 0.008-0.080 0.016s-0.080 0.016-0.080 0.016l0.288 1.376 0.544 2.568c0 0 0.024-0.008 0.048-0.008 0.024-0.008 0.048-0.008 0.048-0.008l-0.312-1.608-0.456-2.352z"></path>
<path fill="#d400bd" style="fill: var(--color2, #d400bd)" d="M11.904 5.712c0 0-0.040 0-0.080 0-0.016 0-0.040 0-0.056 0s-0.024 0-0.024 0l0.072 2.512 0.032 1.216c0 0 0.008 0 0.016 0s0.024 0 0.032 0 0.048 0 0.048 0l-0.016-1.344-0.024-2.384z"></path>
<path fill="#d400bd" style="fill: var(--color2, #d400bd)" d="M11.584 5.584c0 0-0.040 0-0.080 0s-0.080 0.008-0.080 0.008l0.136 2.248 0.096 1.608c0 0 0.024 0 0.048 0s0.048 0 0.048 0l-0.056-1.208-0.112-2.656z"></path>
<path fill="#d400bd" style="fill: var(--color2, #d400bd)" d="M11.256 8.496l0.104 0.968c0 0 0.008 0 0.016 0s0.024 0 0.032 0 0.048-0.008 0.048-0.008l-0.088-0.976c0 0-0.032 0-0.056 0.008-0.016 0-0.032 0-0.040 0-0.008 0.008-0.016 0.008-0.016 0.008z"></path>
<path fill="#d400bd" style="fill: var(--color2, #d400bd)" d="M11.32 6.288c0 0-0.008 0-0.024 0s-0.032 0-0.048 0.008c-0.040 0-0.072 0.008-0.072 0.008l0.192 2.192 0.088 0.976c0 0 0.024 0 0.048-0.008 0.016 0 0.024 0 0.032 0s0.016 0 0.016 0l-0.12-1.6-0.112-1.576z"></path>
<path fill="#d400bd" style="fill: var(--color2, #d400bd)" d="M14.68 8.048l-0.552 1.712c0 0 0.024 0.008 0.048 0.016 0.008 0 0.024 0.008 0.032 0.008s0.016 0.008 0.016 0.008l0.584-1.704c0 0-0.008 0-0.016-0.008-0.008 0-0.024-0.008-0.040-0.016-0.048-0.008-0.072-0.016-0.072-0.016z"></path>
<path fill="#d400bd" style="fill: var(--color2, #d400bd)" d="M13.488 7.48l-0.336 2.048c0 0 0.024 0.008 0.048 0.008 0.016 0 0.024 0.008 0.032 0.008s0.016 0 0.016 0l0.368-2.040c0 0-0.008 0-0.024 0s-0.032-0.008-0.048-0.008c-0.024-0.016-0.056-0.016-0.056-0.016z"></path>
<path fill="#d400bd" style="fill: var(--color2, #d400bd)" d="M13.528 5.248c0 0-0.040-0.008-0.080-0.008-0.040-0.008-0.080-0.008-0.080-0.008l-0.312 2.632-0.192 1.624c0 0 0.024 0 0.048 0.008 0.024 0 0.048 0.008 0.048 0.008l0.176-1.312 0.392-2.944z"></path>
<path fill="#d400bd" style="fill: var(--color2, #d400bd)" d="M13.728 6.024c0 0-0.040-0.008-0.072-0.016-0.040-0.008-0.072-0.008-0.072-0.008l-0.328 2.2-0.2 1.312c0 0 0.024 0 0.048 0.008s0.048 0.008 0.048 0.008l0.336-2.048 0.24-1.456z"></path>
<path fill="#d400bd" style="fill: var(--color2, #d400bd)" d="M12.752 6.832l-0.192 2.616c0 0 0.008 0 0.016 0s0.024 0 0.032 0 0.048 0.008 0.048 0.008l0.232-2.616c0 0-0.032 0-0.072-0.008-0.016 0-0.032 0-0.048-0.008-0.008 0.008-0.016 0.008-0.016 0.008z"></path>
<path fill="#d400bd" style="fill: var(--color2, #d400bd)" d="M13.176 5.464c0 0-0.008 0-0.024 0s-0.032 0-0.056-0.008c-0.040 0-0.080-0.008-0.080-0.008l-0.128 1.4-0.232 2.616c0 0 0.024 0 0.048 0.008 0.016 0 0.024 0 0.032 0s0.016 0 0.016 0l0.168-1.624 0.256-2.384z"></path>
<path fill="#d400bd" style="fill: var(--color2, #d400bd)" d="M14.976 6.128c0 0-0.040-0.008-0.072-0.024-0.040-0.008-0.072-0.024-0.072-0.024l-0.984 3.592c0 0 0.024 0.008 0.048 0.016s0.048 0.016 0.048 0.016l0.376-1.288 0.656-2.288z"></path>
<path fill="#d400bd" style="fill: var(--color2, #d400bd)" d="M14.704 5.904c0 0-0.008 0-0.024-0.008-0.016 0-0.032-0.008-0.056-0.016-0.040-0.008-0.080-0.016-0.080-0.016l-0.536 2.192-0.376 1.56c0 0 0.024 0.008 0.048 0.008 0.016 0 0.024 0.008 0.032 0.008s0.016 0.008 0.016 0.008l0.304-1.176 0.672-2.56z"></path>
<path fill="#d400bd" style="fill: var(--color2, #d400bd)" d="M15.016 7c0 0-0.032-0.008-0.072-0.024-0.016-0.008-0.032-0.008-0.048-0.016-0.016 0-0.024-0.008-0.024-0.008l-0.456 1.496-0.392 1.28c0 0 0.008 0 0.016 0.008 0.008 0 0.024 0.008 0.032 0.008 0.024 0.008 0.048 0.016 0.048 0.016l0.552-1.712 0.344-1.048z"></path>
<path fill="#d400bd" style="fill: var(--color2, #d400bd)" d="M16.872 9.888l-0.728 0.944c0 0 0.016 0.016 0.040 0.032 0.016 0.016 0.040 0.032 0.040 0.032l2.392-3c0 0-0.032-0.024-0.064-0.048s-0.064-0.048-0.064-0.048l-1.616 2.088z"></path>
<path fill="#d400bd" style="fill: var(--color2, #d400bd)" d="M18.088 8.064c0 0-0.008-0.008-0.016-0.016s-0.024-0.016-0.040-0.032-0.064-0.048-0.064-0.048l-1.984 2.736c0 0 0.024 0.016 0.040 0.032 0.008 0.008 0.024 0.016 0.024 0.024 0.008 0.008 0.016 0.008 0.016 0.008l0.72-0.952 1.304-1.752z"></path>
<path fill="#d400bd" style="fill: var(--color2, #d400bd)" d="M15.976 8.28l-0.936 1.856c0 0 0.024 0.008 0.048 0.024 0.008 0.008 0.024 0.008 0.032 0.016s0.016 0.008 0.016 0.008l0.96-1.84c0 0-0.008 0-0.016-0.008s-0.024-0.016-0.040-0.024c-0.040-0.016-0.064-0.032-0.064-0.032z"></path>
<path fill="#d400bd" style="fill: var(--color2, #d400bd)" d="M16.472 9.416l-0.736 1.12c0 0 0.024 0.016 0.040 0.024 0.008 0.008 0.024 0.016 0.032 0.016 0.008 0.008 0.016 0.008 0.016 0.008l0.76-1.104c0 0-0.008-0.008-0.016-0.008-0.008-0.008-0.024-0.016-0.032-0.024-0.040-0.016-0.064-0.032-0.064-0.032z"></path>
<path fill="#d400bd" style="fill: var(--color2, #d400bd)" d="M16.664 6.16c0 0-0.040-0.016-0.072-0.032-0.016-0.008-0.040-0.016-0.048-0.024-0.016-0.008-0.024-0.008-0.024-0.008l-1.080 2.416-0.664 1.496c0 0 0.008 0 0.016 0.008 0.008 0 0.024 0.008 0.032 0.016 0.024 0.008 0.048 0.024 0.048 0.024l0.56-1.2 1.232-2.696z"></path>
<path fill="#d400bd" style="fill: var(--color2, #d400bd)" d="M15.456 7.448l-0.96 2.448c0 0 0.008 0 0.016 0.008 0.008 0 0.024 0.008 0.032 0.016 0.024 0.008 0.048 0.016 0.048 0.016l1-2.432c0 0-0.032-0.016-0.064-0.024-0.016-0.008-0.032-0.016-0.048-0.016-0.016-0.016-0.024-0.016-0.024-0.016z"></path>
<path fill="#d400bd" style="fill: var(--color2, #d400bd)" d="M16.264 6.264c0 0-0.008-0.008-0.024-0.008-0.016-0.008-0.032-0.016-0.048-0.024-0.040-0.016-0.072-0.032-0.072-0.032l-0.536 1.296-1 2.432c0 0 0.024 0.008 0.048 0.016 0.008 0.008 0.024 0.008 0.032 0.016 0.008 0 0.016 0.008 0.016 0.008l0.64-1.504 0.944-2.2z"></path>
<path fill="#d400bd" style="fill: var(--color2, #d400bd)" d="M17.6 7.144c0 0-0.032-0.024-0.064-0.040-0.032-0.024-0.064-0.040-0.064-0.040l-1.984 3.312c0 0 0.024 0.016 0.040 0.024 0.024 0.016 0.040 0.024 0.040 0.024l0.64-1.032 1.392-2.248z"></path>
<path fill="#d400bd" style="fill: var(--color2, #d400bd)" d="M15.688 9.368l-0.464 0.856c0 0 0.008 0 0.016 0.008s0.016 0.008 0.032 0.016c0.024 0.016 0.040 0.024 0.040 0.024l0.48-0.856c0 0-0.024-0.016-0.048-0.024-0.016-0.008-0.024-0.016-0.032-0.016-0.024 0-0.024-0.008-0.024-0.008z"></path>
<path fill="#d400bd" style="fill: var(--color2, #d400bd)" d="M16.984 7.576c0 0-0.008-0.008-0.016-0.008-0.016-0.008-0.032-0.016-0.048-0.024-0.032-0.016-0.064-0.040-0.064-0.040l-1.072 1.92-0.48 0.856c0 0 0.024 0.016 0.040 0.024 0.008 0.008 0.024 0.016 0.032 0.016 0.008 0.008 0.016 0.008 0.016 0.008l0.808-1.392 0.784-1.36z"></path>
<path fill="#d400bd" style="fill: var(--color2, #d400bd)" d="M20.192 10.2c0 0-0.024-0.032-0.048-0.064-0.008-0.016-0.024-0.032-0.032-0.040s-0.016-0.016-0.016-0.016l-1.264 0.952-1.44 1.080c0 0 0 0.008 0.008 0.016s0.016 0.016 0.024 0.024c0.016 0.024 0.032 0.040 0.032 0.040l2.736-1.992z"></path>
<path fill="#d400bd" style="fill: var(--color2, #d400bd)" d="M19.128 8.72c0 0-0.008-0.008-0.016-0.016s-0.024-0.024-0.040-0.032c-0.024-0.024-0.056-0.056-0.056-0.056l-2.416 2.608c0 0 0.016 0.016 0.040 0.032 0.008 0.008 0.016 0.016 0.024 0.024s0.008 0.008 0.008 0.008l2.456-2.568z"></path>
<path fill="#d400bd" style="fill: var(--color2, #d400bd)" d="M18.984 7.944c0 0-0.032-0.024-0.064-0.048-0.016-0.016-0.032-0.024-0.040-0.032s-0.016-0.016-0.016-0.016l-2.56 3.112c0 0 0.008 0 0.016 0.008s0.016 0.016 0.024 0.024 0.040 0.032 0.040 0.032l1.056-1.248 1.544-1.832z"></path>
<path fill="#d400bd" style="fill: var(--color2, #d400bd)" d="M17.432 9.768l-1.056 1.248c0 0 0.016 0.016 0.040 0.032 0.008 0.008 0.016 0.016 0.024 0.024s0.008 0.008 0.008 0.008l1.080-1.232c0 0-0.008-0.008-0.016-0.016s-0.024-0.016-0.032-0.024-0.048-0.040-0.048-0.040z"></path>
<path fill="#d400bd" style="fill: var(--color2, #d400bd)" d="M17.416 10.168l-0.888 0.984c0 0 0.008 0.008 0.008 0.008 0.008 0.008 0.016 0.016 0.024 0.024 0.016 0.016 0.040 0.032 0.040 0.032l0.904-0.976c0 0-0.024-0.024-0.040-0.040-0.008-0.008-0.024-0.024-0.032-0.024-0.016-0.008-0.016-0.008-0.016-0.008z"></path>
<path fill="#d400bd" style="fill: var(--color2, #d400bd)" d="M18 10.92l-0.912 0.8c0 0 0.008 0.008 0.008 0.008 0.008 0.008 0.016 0.016 0.024 0.024 0.016 0.016 0.032 0.040 0.032 0.040l0.928-0.784c0 0-0.016-0.024-0.040-0.048-0.008-0.008-0.016-0.024-0.024-0.032-0.008 0-0.016-0.008-0.016-0.008z"></path>
<path fill="#d400bd" style="fill: var(--color2, #d400bd)" d="M20.096 9.504c0 0-0.008-0.008-0.016-0.016s-0.024-0.024-0.032-0.040-0.048-0.056-0.048-0.056l-1.92 1.616-0.928 0.784c0 0 0.016 0.016 0.032 0.040 0.008 0.008 0.016 0.016 0.024 0.024s0.008 0.016 0.008 0.016l1.032-0.856 1.848-1.512z"></path>
<path fill="#d400bd" style="fill: var(--color2, #d400bd)" d="M19.984 8.304c0 0-0.032-0.032-0.056-0.056-0.032-0.032-0.056-0.056-0.056-0.056l-3.128 3.176c0 0 0.016 0.016 0.032 0.032s0.032 0.032 0.032 0.032l0.696-0.688 2.48-2.44z"></path>
<path fill="#d400bd" style="fill: var(--color2, #d400bd)" d="M19.28 9.416c0 0-0.024-0.024-0.048-0.056-0.016-0.016-0.024-0.024-0.032-0.040-0.008-0.008-0.016-0.016-0.016-0.016l-1.584 1.52-0.704 0.672c0 0 0.008 0.008 0.008 0.008 0.008 0.008 0.016 0.016 0.024 0.024 0.016 0.016 0.032 0.040 0.032 0.040l1.176-1.096 1.144-1.056z"></path>
<path fill="#d400bd" style="fill: var(--color2, #d400bd)" d="M18.128 10.48l-1.176 1.096c0 0 0.016 0.016 0.032 0.040 0.008 0.008 0.016 0.016 0.024 0.024s0.008 0.008 0.008 0.008l1.192-1.072c0 0-0.008-0.008-0.016-0.016s-0.016-0.024-0.032-0.032c-0.008-0.024-0.032-0.048-0.032-0.048z"></path>
<path fill="#d400bd" style="fill: var(--color2, #d400bd)" d="M19.64 10.256c0 0-0.024-0.032-0.040-0.056-0.024-0.024-0.048-0.056-0.048-0.056l-1.224 0.976-1.048 0.832c0 0 0.016 0.016 0.032 0.040 0.016 0.016 0.032 0.040 0.032 0.040l1.424-1.104 0.872-0.672z"></path>
<path fill="#d400bd" style="fill: var(--color2, #d400bd)" d="M19.544 13.68l-1.136 0.368c0 0 0.008 0.024 0.016 0.048 0 0.008 0.008 0.024 0.008 0.032s0.008 0.016 0.008 0.016l3.672-1.128c0 0 0-0.008-0.008-0.024s-0.008-0.032-0.016-0.048c-0.016-0.040-0.024-0.072-0.024-0.072l-2.52 0.808z"></path>
<path fill="#d400bd" style="fill: var(--color2, #d400bd)" d="M19.512 13.568l-1.128 0.384c0 0 0 0.008 0.008 0.016 0 0.008 0.008 0.024 0.008 0.032 0.008 0.024 0.016 0.048 0.016 0.048l1.136-0.368c0 0-0.008-0.024-0.016-0.056-0.008-0.016-0.008-0.024-0.016-0.040-0.008-0.008-0.008-0.016-0.008-0.016z"></path>
<path fill="#d400bd" style="fill: var(--color2, #d400bd)" d="M19.704 11.848l-1.808 1.016c0 0 0.016 0.024 0.024 0.040 0.008 0.008 0.016 0.024 0.016 0.032 0.008 0.008 0.008 0.016 0.008 0.016l1.824-0.984c0 0 0-0.008-0.008-0.016s-0.016-0.024-0.024-0.040-0.032-0.064-0.032-0.064z"></path>
<path fill="#d400bd" style="fill: var(--color2, #d400bd)" d="M19.48 13.072l-1.24 0.512c0 0 0.008 0.024 0.016 0.048 0.008 0.008 0.008 0.024 0.016 0.032 0 0.008 0.008 0.016 0.008 0.016l1.248-0.488c0 0 0-0.008-0.008-0.016s-0.008-0.024-0.016-0.040c-0.016-0.032-0.024-0.064-0.024-0.064z"></path>
<path fill="#d400bd" style="fill: var(--color2, #d400bd)" d="M21.472 10.488c0 0-0.024-0.032-0.040-0.072-0.024-0.032-0.040-0.072-0.040-0.072l-2.256 1.392-1.392 0.864c0 0 0.016 0.024 0.024 0.040 0.016 0.024 0.024 0.040 0.024 0.040l1.136-0.68 2.544-1.512z"></path>
<path fill="#d400bd" style="fill: var(--color2, #d400bd)" d="M20.992 11.136c0 0-0.016-0.032-0.040-0.064-0.008-0.016-0.016-0.032-0.024-0.048s-0.016-0.024-0.016-0.024l-1.92 1.112-1.152 0.664c0 0 0 0.008 0.008 0.016s0.008 0.016 0.016 0.032c0.016 0.024 0.024 0.040 0.024 0.040l1.808-1.016 1.296-0.712z"></path>
<path fill="#d400bd" style="fill: var(--color2, #d400bd)" d="M19.744 10.872l-2.168 1.48c0 0 0 0.008 0.008 0.016s0.016 0.016 0.016 0.032c0.016 0.024 0.024 0.040 0.024 0.040l2.192-1.448c0 0-0.016-0.032-0.040-0.056-0.008-0.016-0.016-0.032-0.024-0.040 0-0.016-0.008-0.024-0.008-0.024z"></path>
<path fill="#d400bd" style="fill: var(--color2, #d400bd)" d="M21.688 12.168c0 0-0.016-0.040-0.032-0.072-0.008-0.016-0.016-0.040-0.024-0.048-0.008-0.016-0.008-0.024-0.008-0.024l-3.424 1.472c0 0 0 0.008 0.008 0.016 0 0.008 0.008 0.024 0.016 0.032 0.008 0.024 0.016 0.048 0.016 0.048l3.448-1.424z"></path>
<path fill="#d400bd" style="fill: var(--color2, #d400bd)" d="M21.688 11.824c0 0 0-0.008-0.008-0.024s-0.016-0.032-0.024-0.048-0.032-0.072-0.032-0.072l-3.504 1.632c0 0 0.008 0.024 0.024 0.048 0.008 0.008 0.008 0.024 0.016 0.032 0 0.008 0.008 0.016 0.008 0.016l1.112-0.496 2.408-1.088z"></path>
<path fill="#d400bd" style="fill: var(--color2, #d400bd)" d="M18.856 12.592l-0.864 0.448c0 0 0 0.008 0.008 0.016s0.008 0.016 0.016 0.032 0.024 0.048 0.024 0.048l0.872-0.44c0 0-0.016-0.024-0.024-0.048-0.008-0.016-0.016-0.024-0.016-0.032-0.016-0.024-0.016-0.024-0.016-0.024z"></path>
<path fill="#d400bd" style="fill: var(--color2, #d400bd)" d="M19.928 15.88l-1.192 0.032c0 0 0 0.008 0 0.016s0 0.024 0 0.032 0 0.048 0 0.048l1.192-0.016c0 0 0-0.032 0-0.056 0-0.016 0-0.032 0-0.040s0-0.016 0-0.016z"></path>
<path fill="#d400bd" style="fill: var(--color2, #d400bd)" d="M20.048 15.392l-1.336 0.12c0 0 0 0.024 0.008 0.048 0 0.016 0 0.024 0 0.032s0 0.016 0 0.016l1.336-0.096c0 0 0-0.008 0-0.016s0-0.024 0-0.040c-0.008-0.032-0.008-0.064-0.008-0.064z"></path>
<path fill="#d400bd" style="fill: var(--color2, #d400bd)" d="M22.712 13.52c0 0-0.008-0.040-0.016-0.080-0.008-0.016-0.008-0.040-0.016-0.056 0-0.016-0.008-0.024-0.008-0.024l-4.152 1.072c0 0 0 0.008 0.008 0.016 0 0.008 0.008 0.024 0.008 0.032 0.008 0.024 0.008 0.048 0.008 0.048l4.168-1.008z"></path>
<path fill="#d400bd" style="fill: var(--color2, #d400bd)" d="M22.424 15.184c0 0 0-0.040-0.008-0.080 0-0.016 0-0.040-0.008-0.056 0-0.016 0-0.024 0-0.024l-2.496 0.256-1.208 0.128c0 0 0 0.008 0 0.016s0 0.024 0 0.032 0.008 0.048 0.008 0.048l1.336-0.12 2.376-0.2z"></path>
<path fill="#d400bd" style="fill: var(--color2, #d400bd)" d="M19.592 14.744l-0.96 0.176c0 0 0 0.008 0 0.016s0 0.024 0.008 0.032 0.008 0.048 0.008 0.048l0.96-0.16c0 0-0.008-0.032-0.008-0.056 0-0.016-0.008-0.032-0.008-0.040s0-0.016 0-0.016z"></path>
<path fill="#f715ff" style="fill: var(--color3, #f715ff)" d="M9.952 17.52c-0.104-0.296-0.312-0.44-0.632-0.44h-0.104v1.8h0.104c0.248 0 0.424-0.096 0.544-0.296 0.096-0.168 0.144-0.384 0.144-0.648 0.008-0.152-0.016-0.296-0.056-0.416z"></path>
<path fill="#f715ff" style="fill: var(--color3, #f715ff)" d="M8.232 17.544c0.104 0.296 0.312 0.44 0.632 0.44h0.104v-1.8h-0.104c-0.248 0-0.424 0.096-0.544 0.296-0.096 0.168-0.144 0.384-0.144 0.648-0.008 0.16 0.016 0.296 0.056 0.416z"></path>
<path fill="#f715ff" style="fill: var(--color3, #f715ff)" d="M6.56 13.296h1.336v0.48h-0.856v0.24h0.712v0.456h-0.712v0.24h0.856v0.48h-1.336v-1.896z"></path>
<path fill="#f715ff" style="fill: var(--color3, #f715ff)" d="M8.568 13.296h1.728l-0.864 1.928-0.864-1.928zM9.432 14.992l0.712-1.592h-1.424l0.712 1.592z"></path>
<path fill="#f715ff" style="fill: var(--color3, #f715ff)" d="M10.984 13.296h1.336v0.48h-0.856v0.24h0.712v0.456h-0.712v0.24h0.856v0.48h-1.336v-1.896z"></path>
<path fill="#f715ff" style="fill: var(--color3, #f715ff)" d="M13.144 15.184v-1.888h0.104l1.28 1.288v-1.288h0.096v1.888h-1.48z"></path>
<path fill="#f715ff" style="fill: var(--color3, #f715ff)" d="M16.024 15.192v-1.408h-0.696v-0.48h1.48v0.48h-0.696v1.408h-0.088z"></path>
<path fill="#f715ff" style="fill: var(--color3, #f715ff)" d="M7.344 16.56c0.112 0 0.208 0.016 0.28 0.056 0.080 0.040 0.144 0.104 0.192 0.176 0.048 0.080 0.072 0.168 0.064 0.256 0 0.088-0.024 0.176-0.072 0.248s-0.112 0.136-0.184 0.176c0.096 0.032 0.176 0.096 0.24 0.176s0.096 0.184 0.096 0.288c0 0.088-0.024 0.184-0.072 0.256-0.048 0.080-0.112 0.144-0.184 0.184-0.040 0.024-0.088 0.040-0.128 0.048-0.048 0.008-0.112 0.016-0.192 0.016h-0.808v-1.88h0.768z"></path>
<path fill="#f715ff" style="fill: var(--color3, #f715ff)" d="M10.44 18.312c-0.136-0.12-0.208-0.312-0.208-0.56h0.432c0 0.104 0.032 0.184 0.088 0.24 0.064 0.056 0.144 0.080 0.256 0.080 0.088 0 0.16-0.016 0.216-0.048s0.080-0.080 0.080-0.144c0-0.056-0.024-0.088-0.080-0.112-0.048-0.024-0.104-0.040-0.16-0.048s-0.088-0.016-0.096-0.016c-0.12-0.024-0.24-0.056-0.352-0.096-0.096-0.040-0.184-0.096-0.248-0.176s-0.104-0.184-0.104-0.312c0-0.128 0.032-0.24 0.104-0.336 0.064-0.088 0.152-0.16 0.264-0.208 0.12-0.048 0.24-0.072 0.368-0.064 0.16 0 0.296 0.032 0.416 0.096s0.208 0.152 0.272 0.28c0.032 0.056 0.048 0.112 0.064 0.176 0.008 0.056 0.008 0.104 0.008 0.16h-0.432c0-0.096-0.024-0.168-0.080-0.216-0.048-0.048-0.128-0.072-0.24-0.072-0.088 0-0.152 0.016-0.2 0.048s-0.072 0.072-0.072 0.128c0 0.056 0.032 0.104 0.096 0.128 0.080 0.032 0.16 0.056 0.24 0.072 0.16 0.032 0.28 0.064 0.368 0.096s0.168 0.088 0.232 0.16c0.064 0.080 0.096 0.184 0.096 0.32 0 0.128-0.032 0.24-0.104 0.336s-0.16 0.168-0.28 0.216c-0.12 0.048-0.248 0.072-0.376 0.072-0.24-0.016-0.432-0.080-0.568-0.2z"></path>
<path fill="#f715ff" style="fill: var(--color3, #f715ff)" d="M12.864 18.448v-1.408h-0.696v-0.48h1.48v0.48h-0.688v1.408h-0.096z"></path>
<path fill="#f715ff" style="fill: var(--color3, #f715ff)" d="M14.152 16.56h1.336v0.48h-0.856v0.24h0.712v0.456h-0.712v0.24h0.856v0.48h-1.336v-1.896z"></path>
<path fill="#f715ff" style="fill: var(--color3, #f715ff)" d="M17.464 18.448h-1.408v-1.888h0.712c0.152 0 0.28 0.032 0.376 0.088 0.096 0.048 0.168 0.128 0.224 0.224s0.080 0.2 0.080 0.312c0 0.136-0.040 0.272-0.128 0.376-0.080 0.112-0.192 0.184-0.32 0.224l0.464 0.664zM16.152 16.72v0.976h0.68l-0.68-0.976zM16.152 18.344h1.128l-0.384-0.552h-0.744v0.552zM16.216 16.656l0.72 1.032c0.112-0.024 0.216-0.088 0.296-0.184 0.072-0.096 0.12-0.208 0.112-0.328 0-0.096-0.024-0.192-0.072-0.272s-0.12-0.144-0.2-0.184c-0.080-0.040-0.176-0.056-0.304-0.056h-0.552z"></path>
</symbol>
    </defs>
</svg>