<svg aria-hidden="true" style="position: absolute; width: 0; height: 0; overflow: hidden;" version="1.1"
    xmlns="http://www.w3.org/2000/svg" xmlns:xlink="http://www.w3.org/1999/xlink">
    <defs>
        <symbol id="icon-close" viewBox="0 0 32 32">
            <path fill="#4c00fe" style="fill: var(--color1, #4c00fe)"
                d="M1.646 32c-0.422 0-0.843-0.16-1.163-0.483-0.643-0.643-0.643-1.685 0-2.328l28.707-28.707c0.643-0.643 1.685-0.643 2.328 0s0.643 1.685 0 2.329l-28.707 28.706c-0.323 0.321-0.744 0.483-1.165 0.483z">
            </path>
            <path fill="#4c00fe" style="fill: var(--color1, #4c00fe)"
                d="M30.355 32c-0.422 0-0.843-0.16-1.163-0.483l-28.709-28.706c-0.643-0.643-0.643-1.686 0-2.329s1.685-0.643 2.329 0l28.707 28.707c0.643 0.643 0.643 1.685 0 2.328-0.323 0.321-0.744 0.483-1.163 0.483z">
            </path>
        </symbol>
        <symbol id="open-select" viewBox="0 0 42 32">
            <path fill="#939393" style="fill: var(--color2, #939393)" d="M21 16l-12.99-15h25.981l-12.99 15z"></path>
        </symbol>
        <symbol id="close-select" viewBox="0 0 42 32">
            <path fill="#939393" style="fill: var(--color1, #939393)" d="M21 16l-12.99-15h25.981l-12.99 15z"></path>
        </symbol>
        <symbol id="icon-search" viewBox="0 0 32 32">
            <path fill="#939393" style="fill: var(--color2, #939393)"
                d="M4.024 4.024c2.595-2.595 6.045-4.024 9.715-4.024s7.12 1.429 9.715 4.024c2.595 2.595 4.024 6.045 4.024 9.715 0 3.355-1.195 6.526-3.383 9.029l7.63 7.63c0.366 0.366 0.366 0.961 0 1.327-0.183 0.183-0.423 0.275-0.664 0.275s-0.48-0.092-0.663-0.275l-7.63-7.63c-2.502 2.188-5.673 3.383-9.029 3.383-3.67 0-7.12-1.429-9.715-4.024s-4.024-6.045-4.024-9.715 1.429-7.12 4.024-9.715zM5.351 22.127c4.625 4.625 12.15 4.625 16.775 0s4.625-12.15 0-16.775c-2.313-2.313-5.35-3.469-8.388-3.469s-6.076 1.157-8.388 3.469c-4.625 4.625-4.625 12.15 0 16.775z">
            </path>
        </symbol>
        <symbol id="icon-close-modal" viewBox="0 0 32 32">
            <path fill="" style=""
                d="M1.646 32c-0.422 0-0.843-0.16-1.163-0.483-0.643-0.643-0.643-1.685 0-2.328l28.707-28.707c0.643-0.643 1.685-0.643 2.328 0s0.643 1.685 0 2.329l-28.707 28.706c-0.323 0.321-0.744 0.483-1.165 0.483z">
            </path>
            <path fill="" style=""
                d="M30.355 32c-0.421 0-0.843-0.16-1.163-0.483l-28.709-28.706c-0.643-0.643-0.643-1.686 0-2.329s1.685-0.643 2.329 0l28.707 28.707c0.643 0.643 0.643 1.685 0 2.328-0.323 0.321-0.744 0.483-1.163 0.483z">
            </path>
        </symbol>
        <symbol id="icon-place" viewBox="0 0 42 32">
            <path fill="#939393" style="fill: var(--color1, #939393)" d="M21 16l-12.99-15h25.981l-12.99 15z"></path>
        </symbol>
        <symbol id="icon-ticket" viewBox="0 0 45 32">
            <path d="M5.020 1.569h-5.020v30.118h5.020v-30.118z"></path>
            <path d="M17.645 1.569h-5.020v30.118h5.020v-30.118z"></path>
            <path d="M25.25 1.569h-5.019v30.118h5.019v-30.118z"></path>
            <path d="M45.176 1.569h-7.453v30.118h7.453v-30.118z"></path>
            <path d="M10.039 1.569h-2.434v30.118h2.434v-30.118z"></path>
            <path d="M30.118 1.569h-2.434v30.118h2.434v-30.118z"></path>
            <path d="M35.137 1.569h-2.434v30.118h2.434v-30.118z"></path>
        </symbol>
    </defs>
</svg>